<svg width="138" height="71" viewBox="0 0 138 71" fill="none" xmlns="http://www.w3.org/2000/svg">
<g clip-path="url(#clip0_388_189)">
<g clip-path="url(#clip1_388_189)">
<path d="M125.001 16.1613L110.277 18.6207L108.853 5L100.472 20.2615L86.1867 22.741L95.8776 27.396C85.9027 36.9265 74.0464 42.457 49.1875 49.9992C75.3396 45.9257 92.6295 39.1254 103.781 32.599L113.565 37.0134L111.497 26.9883C119.393 20.8998 125.001 16.1613 125.001 16.1613Z" fill="white"/>
<path d="M72.7028 24.7764L66.0862 37.1407L65.9826 37.1641C65.4246 37.2944 59.4128 38.7046 57.9626 39.0521C57.7167 39.1079 57.466 39.1393 57.214 39.1457C56.138 39.1758 55.2825 38.7848 54.9283 38.1031C54.544 37.3579 54.7077 36.3053 55.4195 34.9719C56.9233 32.1582 59.5833 27.0989 59.61 27.0488L59.6668 26.9418L64.7027 26.1031L64.5557 26.3771C64.5256 26.4339 61.615 31.8374 60.6493 33.6486C60.2438 34.4038 60.0957 34.8873 60.2048 35.0989C60.2583 35.1992 60.3853 35.2459 60.5925 35.2426C60.7366 35.2361 60.8798 35.2159 61.0202 35.1824C61.5415 35.0655 62.5774 34.8048 62.9049 34.7246L67.7704 25.5985L72.7028 24.7764ZM81.0837 23.413L78.1196 23.9109C75.9977 24.2451 73.6251 24.9502 72.1046 27.6202C71.7402 28.2308 71.6208 28.9568 71.7704 29.6519C71.8552 29.9297 72.0121 30.18 72.2252 30.3773C72.4383 30.5745 72.7 30.7117 72.9835 30.7748C73.4413 30.9084 73.8089 31.0053 74.133 31.1089C74.4571 31.2125 74.7679 31.2827 75.072 31.3763C75.1257 31.3865 75.1762 31.4091 75.2197 31.4421C75.2631 31.4752 75.2984 31.5178 75.3226 31.5667C75.3342 31.6217 75.3246 31.6789 75.2959 31.7271C75.1355 32.0179 74.5373 32.2785 73.4714 32.5124L69.2274 33.4047L67.346 36.8667L67.6635 36.7931L71.5298 35.8909L73.869 35.3429C76.7796 34.6745 78.514 33.5784 79.4964 31.8508C79.681 31.5225 79.798 31.1606 79.8405 30.7864C79.8829 30.4122 79.85 30.0333 79.7437 29.672C79.5031 28.9803 78.9116 28.5258 78.0294 28.3353C76.9267 28.1148 76.5123 28.0212 76.5123 28.0212C76.2082 27.941 76.1213 27.8541 76.1046 27.7973C76.0879 27.7405 76.0879 27.7271 76.1648 27.6035C76.4275 27.2935 76.7998 27.0971 77.204 27.0555C77.5382 26.992 78.0795 26.8884 78.7044 26.7614C79.7069 26.5676 80.9233 26.3203 82.0695 26.1131L82.1798 26.093L83.8239 22.9519L83.5365 22.9986L81.0837 23.413ZM46.534 34.6678C44.833 37.9226 42.7445 39.941 36.5824 41.3044C36.1914 41.3913 35.7704 41.4715 35.3994 41.545L34.7612 41.672L33.0903 44.8032L27.2825 46.1833L35.2758 30.9118L35.4429 30.8817C36.1613 30.758 37.4479 30.5475 38.6275 30.3504L40.6325 30.0162C41.3386 29.8956 42.052 29.823 42.7679 29.799C44.8163 29.7455 46.2065 30.2668 46.7779 31.3094C47.2758 32.1716 47.1856 33.3345 46.534 34.6678ZM41.8255 33.7388C41.6852 33.4715 41.3209 33.3445 40.7395 33.3579C40.4601 33.3694 40.1819 33.4018 39.9074 33.4548L39.493 33.535L38.9951 33.6319L36.7361 37.9193C36.96 37.8859 37.2808 37.8324 37.5582 37.7756C40.0945 37.251 41.0135 36.1048 41.5682 35.0287C41.8857 34.4506 41.9659 34.0195 41.8255 33.7388ZM52.1513 37.2643C51.9899 37.3009 51.8255 37.3233 51.6601 37.3312C51.4195 37.3312 51.2725 37.2844 51.2123 37.1674C51.0954 36.9435 51.2457 36.4356 51.6568 35.657L55.8707 27.7706L56.0143 27.4966L50.8447 28.3621L50.7879 28.469C50.7612 28.5225 47.8406 34.0697 46.2666 37.0337C45.4646 38.5375 45.2641 39.6837 45.6551 40.4423C46.0828 41.2643 47.082 41.3612 47.6367 41.3479C47.9194 41.3408 48.2006 41.3038 48.4755 41.2376L49.6551 40.9602C50.4003 40.7865 51.3259 40.5726 52.0578 40.3922L52.1614 40.3688L54.0361 36.8399L53.3677 36.9936L52.1513 37.2643ZM67.7838 15.0254C68.5058 14.1986 69.3172 13.4544 70.2032 12.8065C71.0784 12.1657 72.029 11.6348 73.0336 11.2258C74.0058 10.8284 75.0298 10.5718 76.0745 10.4639C76.2851 10.4439 76.4922 10.4305 76.6861 10.4272C77.3181 10.3923 77.9507 10.4832 78.5474 10.6945C78.8311 10.7929 79.0923 10.9466 79.3161 11.1468C79.5398 11.347 79.7215 11.5897 79.8506 11.8608C80.09 12.4629 80.1424 13.1232 80.001 13.7555C79.8298 14.6057 79.5277 15.4241 79.1054 16.1816C78.6226 17.0832 78.0409 17.9283 77.3711 18.7012C76.698 19.4969 75.9418 20.2183 75.1155 20.8533C74.2762 21.4869 73.3696 22.0259 72.412 22.4606C71.4439 22.899 70.421 23.2048 69.3711 23.3696C68.9917 23.4304 68.6089 23.4672 68.2249 23.4798C67.7262 23.5004 67.2272 23.4463 66.7445 23.3194C66.4372 23.2456 66.1476 23.1116 65.8923 22.9252C65.6371 22.7388 65.4213 22.5037 65.2575 22.2334C64.9545 21.6292 64.8638 20.9405 65.0002 20.2785C65.1635 19.3737 65.4752 18.502 65.9225 17.6987C66.4369 16.7383 67.0615 15.8411 67.7838 15.0254ZM69.8155 19.5968C69.8356 19.9677 70.0461 20.1348 70.4839 20.1214C70.5668 20.1195 70.6494 20.1117 70.7312 20.098C71.4454 19.9652 72.1013 19.6151 72.6092 19.0955C73.3475 18.3568 73.9714 17.5121 74.4605 16.5893C75.3795 14.9485 75.4029 14.2701 75.2625 13.9894C75.1689 13.799 74.9617 13.7121 74.6343 13.7221C74.5742 13.7174 74.5139 13.7174 74.4538 13.7221C73.1706 13.8691 71.9074 15.0588 70.6911 17.2309C70.0728 18.3236 69.7888 19.1189 69.8055 19.6068L69.8155 19.5968ZM104.973 7.96436L99.2926 18.6578L99.179 18.6745L97.7922 18.9017C96.7128 19.0788 95.3695 19.2994 94.6543 19.4097C94.4507 19.4402 94.2453 19.458 94.0395 19.4631C92.7763 19.4965 91.8139 19.0053 91.3327 18.0763C90.7713 16.9903 90.9484 15.4832 91.834 13.8257C92.4455 12.6862 94.778 8.92342 99.1857 8.50237L104.973 7.96436ZM99.5299 11.2459L98.7145 11.3228C97.4179 11.4665 96.1013 12.9335 95.5767 13.9326C95.0854 14.875 94.9384 15.6035 95.1556 15.9978C95.2331 16.1244 95.3439 16.2272 95.476 16.295C95.608 16.3627 95.7561 16.3929 95.9041 16.3821C95.9386 16.3854 95.9733 16.3854 96.0077 16.3821L96.9 16.2618L99.5299 11.2459ZM91.5666 10.6277C91.9576 11.3695 91.7939 12.4355 91.0787 13.799C89.6385 16.5625 87.1823 18.2066 83.7838 18.6778L82.4973 18.8549L81.1606 21.3813L76.8699 22.0162L83.2191 9.98608H83.3394C83.6903 9.94932 84.4288 9.88249 85.2207 9.80897L87.7872 9.56837C88.0512 9.54163 88.3051 9.52493 88.5424 9.52158C90.1531 9.4748 91.1756 9.84907 91.5733 10.6277H91.5666ZM87.7136 12.7396C87.5967 12.5124 87.2926 12.4055 86.8147 12.4055L86.5207 12.4255L86.1865 12.4522C86.0896 12.4522 85.9927 12.4523 85.8523 12.4823L84.1013 15.7939L84.255 15.7739L84.6259 15.7271C86.3937 15.5066 87.0854 14.6076 87.4898 13.8491C87.6903 13.5149 87.8774 13.037 87.7203 12.7396H87.7136ZM35.7938 28.1114L38.1563 23.6803L37.8756 23.7138C37.8322 23.7138 33.2574 24.3821 31.2223 24.6561C30.6684 24.7356 30.1107 24.7858 29.5515 24.8065C28.3217 24.8366 27.5698 24.626 27.3192 24.1749C27.1354 23.8407 27.1989 23.3762 27.5097 22.7313C28.148 21.4113 30.0861 20.3921 32.569 20.0914C33.9057 19.9276 37.2307 19.5366 37.2474 19.5333H37.3644L39.4863 15.4965L39.2223 15.5233C39.1956 15.5233 36.6125 15.7839 34.0728 16.0579C33.9625 16.0579 33.8522 16.078 33.7386 16.0813C33.1572 16.0813 32.7361 15.9376 32.5724 15.6436C32.5187 15.519 32.4964 15.3832 32.5075 15.248C32.5186 15.1128 32.5626 14.9825 32.6359 14.8683C33.2207 13.7087 34.7712 13.0705 37.6484 12.8031C40.138 12.5692 43.6634 12.2985 43.7102 12.2952H43.8305L45.9692 8.28516L45.7286 8.27513C45.7286 8.27513 43.9141 8.39878 38.3301 8.80646C32.9466 9.20078 29.1037 11.1189 27.513 14.21C26.5874 16.0145 27.1488 17.2175 28.011 17.7622C25.0736 18.9184 22.8414 20.7965 21.6952 23.0822C20.8865 24.7163 20.7795 26.1766 21.3944 27.3061C22.1997 28.7864 24.168 29.5617 26.9416 29.4882C27.8231 29.4605 28.7012 29.3656 29.5682 29.2042C32.4019 28.7263 35.6601 28.1315 35.7035 28.1248L35.7938 28.1114ZM49.6083 13.408L49.7386 13.1573L44.2984 13.6553L39.7136 22.4005C38.9416 23.8742 38.7745 25.0438 39.2123 25.8758C39.8172 27.0254 41.3376 27.1089 41.9625 27.0922C42.168 27.092 42.3733 27.0797 42.5774 27.0555L51.6534 25.692L51.7671 25.6753L58.7846 12.3086L53.4646 12.8098L48.2349 22.7714C47.9007 22.8215 46.8982 22.9752 46.2299 23.0621C46.0893 23.0831 45.9476 23.0953 45.8055 23.0989C45.3978 23.0989 45.1371 23.0254 45.0536 22.8416C44.9166 22.5809 45.0536 22.0563 45.4579 21.2843C46.4872 19.3328 49.5849 13.4614 49.615 13.4013L49.6083 13.408ZM53.0302 25.4715L58.3001 24.6795L61.7687 18.0797C63.0553 15.6569 64.265 15.2827 66.925 14.9552L67.0419 14.9385L68.9601 11.3495L68.6961 11.3729C68.3619 11.4096 68.0043 11.4364 67.6234 11.4665C67.1856 11.4999 66.7044 11.54 66.1397 11.5934C62.2499 11.961 58.8815 14.347 56.8932 18.1365L53.0302 25.4715Z" fill="white"/>
<path d="M24.0859 50.5641C46.2581 49.5616 66.4753 42.3736 80.0493 36.0879C80.0493 36.0779 56.8746 42.7078 24.0859 50.5641Z" fill="white"/>
<path d="M52.9531 57.8927C53.04 57.7056 53.1002 57.5585 53.167 57.4416C53.9055 55.9712 54.6507 54.5009 55.3792 53.0205C55.4228 52.8957 55.5041 52.7875 55.6118 52.7109C55.7196 52.6343 55.8485 52.593 55.9807 52.5928C56.365 52.5694 56.7459 52.4892 57.1837 52.4224C57.1169 52.5828 57.0801 52.6897 57.03 52.7933C56.2681 54.3138 55.4995 55.8309 54.7409 57.3547C54.7087 57.4486 54.6504 57.5315 54.5729 57.5936C54.4954 57.6557 54.4019 57.6945 54.3032 57.7056C53.8788 57.7557 53.4577 57.8225 52.9531 57.8927Z" fill="white"/>
<path d="M116.239 43.7905C116.142 43.9977 116.092 44.1247 116.032 44.2383C115.284 45.722 114.532 47.2024 113.797 48.6895C113.755 48.8004 113.681 48.8968 113.586 48.9673C113.491 49.0379 113.377 49.0794 113.259 49.0871C112.861 49.1272 112.467 49.194 112.002 49.2575C112.293 48.5424 112.67 47.9209 112.985 47.2258C112.899 47.2188 112.813 47.2188 112.727 47.2258C112.263 47.2926 111.802 47.3762 111.334 47.4296C111.248 47.434 111.165 47.4631 111.095 47.5135C111.025 47.5639 110.971 47.6334 110.939 47.7137C110.682 48.2417 110.405 48.763 110.151 49.2943C110.119 49.3897 110.059 49.473 109.978 49.5328C109.897 49.5926 109.8 49.626 109.7 49.6285C109.406 49.6452 109.115 49.7153 108.824 49.7554C108.697 49.7554 108.567 49.7755 108.373 49.7889C109.259 48.0211 110.117 46.3135 110.99 44.5858L112.634 44.3386C112.323 44.9635 112.042 45.5349 111.725 46.1798C112.019 46.1498 112.249 46.1297 112.477 46.0996C112.781 46.0562 113.085 45.986 113.389 45.9626C113.482 45.9589 113.571 45.9273 113.646 45.8718C113.72 45.8164 113.776 45.7397 113.807 45.6519C114.021 45.2041 114.254 44.7663 114.475 44.3152C114.508 44.22 114.569 44.1372 114.65 44.0775C114.731 44.0179 114.829 43.9842 114.929 43.981C115.34 43.9442 115.748 43.864 116.239 43.7905Z" fill="white"/>
<path d="M67.2893 55.7937C67.6067 55.1588 67.8841 54.5974 68.1681 54.036C68.5591 53.2574 68.9735 52.4888 69.3377 51.6968C69.4936 51.3188 69.7534 50.9926 70.0869 50.7561C70.4204 50.5195 70.8141 50.3823 71.2224 50.3601C72.118 50.2666 73.0036 50.1129 73.8958 49.9859C73.962 49.9742 74.0291 49.9675 74.0963 49.9658C74.5441 49.9658 74.7446 50.1864 74.6677 50.6342C74.6452 50.7801 74.6013 50.922 74.5374 51.0552C74.26 51.5765 73.9994 52.1045 73.6819 52.5991C73.174 53.4011 72.3787 53.7119 71.4664 53.7987C70.9986 53.8455 70.5374 53.9358 70.0729 53.9892C69.9529 53.9923 69.8367 54.0316 69.7395 54.102C69.6423 54.1724 69.5686 54.2705 69.5282 54.3835C69.3912 54.7177 69.194 55.0285 69.0537 55.356C69.027 55.4249 68.9816 55.4849 68.9225 55.5292C68.8634 55.5735 68.7931 55.6003 68.7195 55.6066C68.2684 55.65 67.8206 55.7202 67.2893 55.7937ZM70.3971 52.6492L70.4572 52.7361L71.7538 52.5489C71.9476 52.5212 72.1303 52.4412 72.2821 52.3176C72.434 52.194 72.5494 52.0314 72.6159 51.8472C72.6661 51.7369 72.7028 51.5598 72.646 51.483C72.5984 51.4416 72.5423 51.4112 72.4817 51.3939C72.4211 51.3765 72.3574 51.3727 72.2951 51.3827C71.9474 51.408 71.6021 51.4606 71.2625 51.5398C71.0963 51.5792 70.9487 51.6748 70.8448 51.8104C70.6796 52.0835 70.5301 52.3658 70.3971 52.6559V52.6492Z" fill="white"/>
<path d="M87.8343 50.8111C87.9724 50.5004 88.1263 50.197 88.2955 49.9022C88.3902 49.7959 88.5214 49.7291 88.6631 49.715C89.3782 49.5947 90.0966 49.5045 90.8084 49.3809C91.2328 49.3107 91.3999 49.1169 91.4768 48.6557C91.0274 48.6321 90.577 48.6749 90.1401 48.7827C89.689 48.8362 89.2412 48.903 88.7165 48.9765C88.8803 48.5636 89.0793 48.1656 89.3113 47.7869C89.3448 47.7267 89.4717 47.7033 89.5586 47.69C90.5778 47.5396 91.6004 47.3959 92.623 47.2489C92.6631 47.2489 92.6998 47.2489 92.7399 47.2288C93.3748 47.172 93.6021 47.456 93.3748 48.0442C93.1075 48.7526 92.7299 49.3809 91.9145 49.695C92.1083 49.8086 92.3489 49.7685 92.3556 49.9857C92.3708 50.1445 92.349 50.3046 92.2921 50.4535C92.1203 50.8314 91.9181 51.1946 91.6873 51.5396C91.4909 51.8052 91.2404 52.0262 90.9525 52.1881C90.6645 52.3499 90.3455 52.4489 90.0164 52.4786C88.9304 52.6457 87.8443 52.7961 86.7148 52.9565C86.7512 52.7462 86.8333 52.5466 86.9554 52.3717C87.3397 51.6332 87.1292 51.7033 87.958 51.6064C88.5962 51.5229 89.2311 51.4126 89.8661 51.3157C90.0139 51.3029 90.1555 51.2506 90.276 51.1641C90.3966 51.0777 90.4916 50.9603 90.5511 50.8245C90.648 50.6039 90.5745 50.4903 90.3372 50.4903C90.1 50.4903 89.8059 50.5605 89.5386 50.5972L88.0682 50.8044C88.0014 50.8178 87.9479 50.8111 87.8343 50.8111Z" fill="white"/>
<path d="M82.6507 48.7029C82.3165 49.3712 82.0459 49.9393 81.7317 50.5876C82.0659 50.5475 82.3266 50.5208 82.5872 50.484C83.035 50.4172 83.4861 50.3403 83.9239 50.2802C84.0831 50.2562 84.2442 50.2472 84.4051 50.2534C84.7025 50.2534 84.8262 50.3838 84.8128 50.6778C84.814 50.8651 84.7765 51.0505 84.7025 51.2225C84.4769 51.708 84.2156 52.176 83.9205 52.6227C83.7144 52.9054 83.4504 53.141 83.1462 53.3138C82.842 53.4867 82.5045 53.5928 82.1561 53.6252C81.1737 53.7522 80.1912 53.9059 79.2088 54.0463C79.1571 54.0587 79.1046 54.0676 79.0517 54.073C78.781 54.073 78.644 53.9393 78.6908 53.6753C78.7221 53.518 78.7761 53.366 78.8512 53.2242C79.5195 51.8875 80.1879 50.5508 80.8562 49.2142C80.8933 49.122 80.9569 49.0429 81.039 48.987C81.1212 48.9311 81.218 48.9008 81.3174 48.9C81.7518 48.8533 82.1528 48.7764 82.6507 48.7029ZM80.8161 52.5893C80.8811 52.6022 80.9471 52.6089 81.0133 52.6093C81.3875 52.5592 81.7551 52.4924 82.1294 52.4556C82.2834 52.4401 82.4303 52.3831 82.5545 52.2908C82.6786 52.1984 82.7754 52.074 82.8345 51.931C82.8813 51.8441 82.9281 51.6837 82.8846 51.6402C82.8412 51.6044 82.791 51.5777 82.737 51.5616C82.6831 51.5456 82.6265 51.5405 82.5705 51.5467C82.1728 51.5901 81.7752 51.6536 81.3775 51.7204C81.2855 51.7262 81.1987 51.7654 81.1336 51.8307C80.9598 52.0494 80.8499 52.312 80.8161 52.5893Z" fill="white"/>
<path d="M63.245 51.5527L62.316 53.4207C62.6702 53.3773 62.9475 53.3539 63.2216 53.3138L64.5582 53.1033C64.6514 53.0916 64.7451 53.0849 64.8389 53.0832C65.3235 53.0832 65.5073 53.2403 65.387 53.7081C65.0996 54.7708 64.6084 55.7131 63.5591 56.2244C63.2273 56.3637 62.8773 56.4548 62.5198 56.4951C61.6075 56.6455 60.6919 56.7691 59.7763 56.8994C59.3619 56.9596 59.2015 56.7725 59.3185 56.3614C59.3538 56.2456 59.4008 56.1336 59.4588 56.0273C60.1272 54.7106 60.7955 53.4007 61.4371 52.0774C61.4811 51.9666 61.5577 51.8719 61.6568 51.8056C61.7558 51.7394 61.8727 51.7048 61.9918 51.7065C62.2725 51.6897 62.5499 51.6296 62.8272 51.5895C62.9509 51.5761 63.0678 51.5694 63.245 51.5527ZM61.3302 55.4057C61.4165 55.4283 61.505 55.4417 61.5942 55.4458C61.9785 55.3957 62.3594 55.3322 62.7437 55.2854C62.9028 55.2621 63.0524 55.1951 63.1757 55.0919C63.299 54.9886 63.3912 54.8532 63.4421 54.7006C63.5524 54.4633 63.4622 54.3397 63.1948 54.3664C62.7738 54.4199 62.3494 54.4867 61.9317 54.5636C61.8302 54.5782 61.7375 54.6293 61.671 54.7073C61.5474 54.9145 61.4605 55.125 61.3302 55.4057Z" fill="white"/>
<path d="M106.176 50.1128C106.213 49.7485 106.24 49.4678 106.27 49.1604C106.183 49.1404 106.094 49.1315 106.006 49.1337C105.528 49.2005 105.05 49.2874 104.572 49.3475C104.5 49.3556 104.43 49.3784 104.366 49.4146C104.303 49.4508 104.248 49.4996 104.204 49.5581C103.994 49.8187 103.77 50.0693 103.56 50.3333C103.508 50.4028 103.442 50.46 103.365 50.501C103.289 50.542 103.205 50.5657 103.118 50.5706C102.681 50.6174 102.246 50.6909 101.738 50.7611C101.794 50.6668 101.854 50.5753 101.919 50.4871C103.255 48.9432 104.592 47.4094 105.929 45.8555C106.162 45.5863 106.45 45.3693 106.773 45.2184C107.096 45.0676 107.447 44.9863 107.803 44.9799C108.198 44.9532 108.355 45.1103 108.321 45.5013C108.225 46.6341 108.114 47.7703 108.007 48.9031C107.987 49.1437 107.971 49.3843 107.947 49.6249C107.947 49.7519 107.894 49.8688 107.747 49.8922L106.176 50.1128ZM106.694 46.6207C106.205 47.0475 105.792 47.555 105.474 48.1211C105.788 48.081 106.076 48.0543 106.36 47.9942C106.399 47.9745 106.434 47.9462 106.461 47.9116C106.488 47.8769 106.507 47.8366 106.517 47.7937C106.584 47.4394 106.631 47.0518 106.694 46.6174V46.6207Z" fill="white"/>
<path d="M99.016 46.3399C98.8222 46.7309 98.6517 47.0918 98.4579 47.4393C98.4276 47.4795 98.3894 47.5133 98.3458 47.5385C98.3022 47.5638 98.254 47.58 98.204 47.5863C97.7027 47.6732 97.2015 47.7501 96.6969 47.8236C96.2138 47.8779 95.7705 48.1175 95.4604 48.4919C95.1153 48.9215 94.8473 49.4077 94.6685 49.9289C94.5281 50.3332 94.6685 50.5337 95.0962 50.5003C95.671 50.4602 96.239 50.3666 96.8105 50.2965L97.1112 50.263C96.904 50.6774 96.7336 51.0517 96.5264 51.4026C96.4376 51.4934 96.3189 51.5492 96.1923 51.5596C95.5573 51.6599 94.9213 51.7512 94.2842 51.8336C94.0067 51.8779 93.7264 51.9024 93.4454 51.9071C92.8873 51.9071 92.6334 51.6131 92.6969 51.0584C92.716 50.8273 92.7748 50.6012 92.8706 50.39C93.1795 49.7225 93.5242 49.0721 93.9032 48.4418C94.2193 47.9321 94.6476 47.5012 95.1555 47.1821C95.6634 46.863 96.2374 46.6641 96.8339 46.6005C97.4721 46.517 98.1071 46.4067 98.742 46.3098C98.8338 46.315 98.9252 46.3251 99.016 46.3399Z" fill="white"/>
<path d="M104.877 45.4517C104.666 45.8727 104.493 46.2136 104.326 46.5611C104.249 46.7215 104.102 46.7416 103.958 46.7649C103.576 46.8383 103.19 46.8918 102.802 46.9253C102.654 46.9234 102.51 46.9683 102.39 47.0536C102.27 47.1389 102.18 47.2601 102.133 47.3999C101.602 48.4959 101.037 49.5753 100.499 50.6714C100.46 50.7693 100.395 50.8543 100.309 50.9164C100.224 50.9785 100.123 51.0152 100.018 51.0223C99.6071 51.0724 99.1994 51.1325 98.7148 51.2027C99.3397 49.866 100.021 48.6229 100.66 47.2762C100.028 47.2762 99.4667 47.44 98.8151 47.5001C98.999 47.1013 99.2032 46.712 99.4266 46.3339C99.5001 46.2236 99.7341 46.2002 99.8978 46.1735C100.386 46.0933 100.88 46.0331 101.368 45.9629L104.877 45.4517Z" fill="white"/>
<path d="M73.2207 54.9315C73.2942 54.7611 73.331 54.6608 73.3778 54.5706C74.0227 53.2874 74.6777 52.0109 75.3059 50.7243C75.4477 50.3904 75.6785 50.1018 75.9732 49.8903C76.2678 49.6787 76.615 49.5522 76.9768 49.5247C77.9793 49.411 78.9818 49.2273 79.9843 49.0802C80.128 49.0568 80.275 49.0568 80.4989 49.0435C80.2917 49.4511 80.128 49.812 79.9308 50.1562C79.8528 50.2444 79.744 50.2994 79.6267 50.31C78.8715 50.4303 78.1163 50.5472 77.3577 50.6441C77.191 50.6521 77.03 50.7072 76.8934 50.803C76.7567 50.8989 76.6501 51.0315 76.5858 51.1855C76.0812 52.2348 75.5365 53.2674 75.0286 54.3166C74.9833 54.4482 74.8982 54.5624 74.785 54.6433C74.6717 54.7242 74.5361 54.7677 74.397 54.7678C74.0428 54.7912 73.6752 54.8647 73.2207 54.9315Z" fill="white"/>
<path d="M60.9107 51.9507L60.7035 52.1312L58.2975 54.1362C58.1939 54.2231 58.0903 54.3066 57.9934 54.4002C57.6592 54.7177 57.6292 54.8146 57.8263 55.2356C58.0469 55.7101 58.2741 56.1813 58.4947 56.6525C58.5481 56.7695 58.5949 56.8898 58.6617 57.0468L56.6801 57.3375C56.4763 56.6692 56.2758 56.0376 56.0953 55.396C56.0666 55.2845 56.0672 55.1674 56.0971 55.0562C56.1269 54.9449 56.185 54.8433 56.2657 54.7611C56.4044 54.5974 56.5528 54.4423 56.7102 54.2966C57.432 53.6283 58.1605 52.98 58.8789 52.315C59.0141 52.1871 59.1883 52.1083 59.3735 52.0911C59.8781 52.0309 60.376 51.944 60.8806 51.8672L60.9107 51.9507Z" fill="white"/>
<path d="M69.0445 50.6943C68.971 50.8614 68.9208 50.9817 68.864 51.0987C68.1088 52.5958 67.3558 54.0939 66.605 55.5933C66.5664 55.7055 66.4939 55.8031 66.3976 55.8725C66.3012 55.9419 66.1858 55.9798 66.067 55.9809C65.6694 56.0009 65.2784 56.0878 64.8105 56.1547C64.8974 55.9642 64.9442 55.8439 65.0044 55.7303C65.7496 54.2432 66.4981 52.7595 67.2366 51.2691C67.2751 51.1569 67.3463 51.0588 67.4409 50.9873C67.5356 50.9159 67.6495 50.8743 67.7679 50.8681C68.179 50.838 68.5867 50.7578 69.0445 50.6943Z" fill="white"/>
<path d="M84.2188 53.3175C84.2889 53.1538 84.3324 53.0435 84.3825 52.9399L86.6782 48.3818C86.7584 48.2214 86.8286 48.0811 87.0425 48.0477C87.4903 47.9942 87.9381 47.9207 88.4293 47.8472C88.3858 47.9675 88.3658 48.0544 88.329 48.1312C87.5471 49.6884 86.7618 51.2423 85.9898 52.8096C85.9495 52.9071 85.8815 52.9907 85.7942 53.0501C85.7069 53.1094 85.6042 53.142 85.4986 53.1438C85.0842 53.1839 84.6799 53.254 84.2188 53.3175Z" fill="white"/>
</g>
</g>
<defs>
<clipPath id="clip0_388_189">
<rect width="138" height="70.17" fill="white"/>
</clipPath>
<clipPath id="clip1_388_189">
<rect width="138" height="70.17" fill="white"/>
</clipPath>
</defs>
</svg>
