<svg width="128" height="36" viewBox="0 0 128 36" fill="none" xmlns="http://www.w3.org/2000/svg">
<g clip-path="url(#clip0_388_210)">
<g clip-path="url(#clip1_388_210)">
<path d="M21.6876 21.7987V33.4544H16.6187V21.7987L9 3H14.5951L19.1481 16.5982L19.2796 16.5072L23.9237 3H29.3872L21.6876 21.7987Z" fill="#F4F1F1"/>
<path d="M81.7465 33.4544L73.6119 18.6622H73.4804V33.4544H68.3203V3H73.4804V16.2036H73.6119L81.352 3H87.1595L78.2155 17.0232L87.7261 33.4544H81.7465Z" fill="#F4F1F1"/>
<path d="M108.244 7.86663H108.072L104.764 22.9623H111.472L108.244 7.86663ZM113.627 33.4544L112.119 27.0094H104.106L102.568 33.4544H97.4082L104.976 3H111.563L118.999 33.4544H113.627Z" fill="#F4F1F1"/>
<path d="M48.176 22.9623H49.2586L46.0311 7.86663H45.8591L42.5404 22.9623H43.7849C44.0611 22.6532 44.3994 22.4059 44.7778 22.2366C45.1561 22.0672 45.566 21.9797 45.9805 21.9797C46.395 21.9797 46.8048 22.0672 47.1832 22.2366C47.5615 22.4059 47.8998 22.6532 48.176 22.9623ZM43.876 27.0094H41.8524L40.3651 33.4544H35.2051L42.7529 3H49.3396L56.7862 33.4544H51.4036L49.896 27.0094H48.085C47.8101 27.2884 47.4825 27.5099 47.1212 27.6611C46.7599 27.8124 46.3721 27.8902 45.9805 27.8902C45.5888 27.8902 45.2011 27.8124 44.8398 27.6611C44.4785 27.5099 44.1509 27.2884 43.876 27.0094Z" fill="#F4F1F1"/>
</g>
</g>
<defs>
<clipPath id="clip0_388_210">
<rect width="128" height="35.44" fill="white"/>
</clipPath>
<clipPath id="clip1_388_210">
<rect width="128" height="35.44" fill="white"/>
</clipPath>
</defs>
</svg>
