<svg width="128" height="52" viewBox="0 0 128 52" fill="none" xmlns="http://www.w3.org/2000/svg">
<g clip-path="url(#clip0_388_219)">
<path d="M96.5887 12.1282L108.848 12C111.805 12 114.641 13.1784 116.732 15.2753C118.824 17.3722 119.999 20.2162 119.999 23.1815V32.8185C119.999 35.7838 118.824 38.6278 116.732 40.7247C114.641 42.8216 111.805 44 108.848 44H96.5887C93.6315 44 90.7951 42.8216 88.7039 40.7247C86.6127 38.6278 85.4375 35.7838 85.4375 32.8185V23.1815C85.4387 17.005 90.4301 12.1282 96.5887 12.1282Z" fill="white"/>
<path d="M16.7508 21.4565H15.3593C12.8217 21.4565 11.4826 22.7445 11.4826 24.6514C11.4826 26.8135 12.4068 27.8136 14.3073 29.1027L15.8685 30.1564L11.3548 36.918H8L12.0464 30.8698C9.70993 29.1983 8.40336 27.5793 8.40336 24.8215C8.40336 21.3714 10.7933 19.0391 15.3279 19.0391H19.8417V36.918H16.7403V21.4565H16.7508ZM32.5958 23.98V36.918H29.5479V31.519H25.4701V36.918H22.4223V23.98H25.4701V29.1016H29.5479V23.98H32.5958ZM46.3694 39.8681H43.5447V36.9075H36.6946V39.8681H33.8699V34.4912H34.8254C35.8983 32.3291 36.1099 28.2402 36.1099 25.078V23.9707H45.0094V34.4912H46.3683V39.8681H46.3694ZM41.9627 26.3974H38.7346V26.7809C38.7346 29.0176 38.501 32.5424 37.6512 34.5017H41.9627V26.3974ZM53.2185 37.1628C49.3209 37.1628 47.1122 34.9796 47.1122 30.4758C47.1122 26.5676 48.8861 23.7142 52.6024 23.7142C55.6503 23.7142 57.6252 25.4183 57.6252 29.9116V31.5306H50.2659C50.3938 33.6928 51.2423 34.7465 53.473 34.7465C54.9598 34.7465 56.5523 34.1824 57.4974 33.5331V36.0356C56.607 36.6522 55.1737 37.1628 53.2185 37.1628ZM50.2671 29.2717H54.525V29.0165C54.525 27.3975 54.0578 26.141 52.5501 26.141C51.0947 26.1305 50.3519 27.2168 50.2671 29.2717ZM62.7341 30.5609V36.918H59.6758V23.98H62.7341V29.9431L67.0456 23.98H70.1248L65.8134 29.9431L70.7095 36.9075H67.2478L62.7341 30.5609ZM70.5398 30.4548C70.5398 26.5151 72.5683 23.7142 76.4659 23.7142C77.9736 23.7142 79.1104 23.9695 79.7474 24.332V26.9301C79.1313 26.5466 77.9736 26.1317 76.7949 26.1317C74.799 26.1317 73.6935 27.5688 73.6935 30.3802C73.6935 33.0529 74.5955 34.757 76.7728 34.757C78.0573 34.757 78.9814 34.4271 79.7463 33.884V36.376C79.0035 36.9192 78.0049 37.1744 76.5926 37.1744C72.5148 37.1628 70.5398 34.778 70.5398 30.4548Z" fill="white"/>
<path d="M99.5127 30.0924V29.5493H96.2497V27.1319H102.61V30.0074C102.61 34.5333 100.454 37.1629 96.3764 37.1629C92.1708 37.1629 89.7285 33.841 89.7285 27.9839C89.7285 22.276 92.394 18.7734 97.2901 18.7734C99.1372 18.7734 100.731 19.263 101.602 19.9017V22.3937C100.351 21.6163 98.9105 21.2002 97.4389 21.1909C94.2318 21.1909 92.8729 23.374 92.8729 27.9851C92.8729 32.4574 93.9981 34.7466 96.4415 34.7466C98.7687 34.756 99.5127 32.9458 99.5127 30.0924Z" fill="black"/>
<path d="M115.805 30.4327C115.805 34.7769 113.468 37.1733 110.112 37.1733C106.756 37.1733 104.42 34.7769 104.42 30.4642C104.42 26.1201 106.756 23.7236 110.112 23.7236C113.468 23.7248 115.805 26.1096 115.805 30.4327ZM112.651 30.4327C112.651 27.4512 111.801 26.1411 110.114 26.1411C108.424 26.1411 107.575 27.4512 107.575 30.4642C107.575 33.4458 108.424 34.7559 110.114 34.7559C111.801 34.7559 112.651 33.4365 112.651 30.4327Z" fill="black"/>
</g>
<defs>
<clipPath id="clip0_388_219">
<rect width="128" height="51.42" fill="white"/>
</clipPath>
</defs>
</svg>
