<svg width="100" height="62" viewBox="0 0 100 62" fill="none" xmlns="http://www.w3.org/2000/svg">
<g clip-path="url(#clip0_388_227)">
<g clip-path="url(#clip1_388_227)">
<path d="M88.0316 22.4544C83.3625 22.1961 78.6797 22.3436 74.036 22.8951C72.6878 23.0661 71.3461 23.2634 70.0077 23.4739C69.6256 24.6714 69.3235 25.893 69.1034 27.1306C74.5816 25.655 80.2061 24.7893 85.8744 24.5492C86.5749 24.5196 89.5345 24.4703 90.3467 24.4505C92.4908 24.4045 91.7706 22.6978 88.0316 22.4544Z" fill="white"/>
<path d="M97.054 2.50697C95.6795 2.23732 91.5525 1.84928 88.8822 8.14665C88.2246 8.14665 87.4123 8.10719 86.5803 8.11706C86.9092 5.86447 87.5011 1.09952 83.2163 1.19159C82.1903 1.21133 79.7568 1.93807 76.7084 5.3153C76.8104 5.07196 77.8857 2.32282 77.958 1.93149C78.3099 0.00775465 75.7515 -0.0317067 75.6791 0.00775459C75.6791 0.00775459 72.6834 4.47017 69.8454 6.62082C68.6715 7.49883 67.7869 8.08746 67.1489 8.47221C67.1029 8.47221 63.4692 8.74186 62.3478 11.708C62.2228 12.0369 61.9433 13.4871 62.6405 14.5723C61.8184 15.7594 59.796 18.6795 58.1978 19.5378C57.2112 13.8751 61.2889 7.37058 66.169 6.38405C66.4073 6.44215 66.6255 6.56374 66.8004 6.73591C67.458 7.5646 68.6846 5.52905 66.0243 4.49648C63.4922 3.50995 61.5717 3.57572 59.2632 5.21665C56.6993 7.16118 54.957 9.99579 54.3799 13.1615C54.3602 13.2832 54.3404 13.4213 54.3174 13.566C51.5781 17.0518 46.2311 23.9213 46.2344 23.9115C46.2344 19.3372 50.2858 9.77114 51.8708 5.9434C52.0024 5.61455 50.5752 5.4863 49.4604 5.42711C48.7665 5.38765 47.6386 5.09827 47.5827 5.19034C46.8601 6.53191 46.239 7.92572 45.7247 9.36009C45.2874 10.5143 43.8339 14.3224 43.5543 14.9011C41.749 18.6039 40.0061 21.7674 37.7009 23.0006C38.99 18.3967 42.3541 9.02138 43.7319 5.09169C43.7681 4.98646 43.3833 4.89438 42.9098 4.81217C41.9989 4.65433 39.3418 3.85195 39.2925 3.9506C38.3981 6.44653 36.6618 11.1852 35.7114 14.6183C33.1201 20.2777 31.2095 24.9374 28.3256 27.1012C28.5064 25.9043 28.6544 24.9243 28.7333 24.4705C29.0622 20.1955 33.0576 6.93651 34.5966 3.80262C32.6531 3.09889 31.7324 2.80951 29.9698 2.23732C29.6663 2.16531 29.3536 2.13981 29.0424 2.16169C25.5205 2.39188 21.5645 7.29824 19.7756 10.8596C18.8713 12.711 19.0949 14.8058 19.3054 15.0491C19.5619 15.3516 21.3935 16.4763 23.4521 15.7068C22.8141 15.0918 22.9753 14.0987 23.0575 13.862C26.2242 7.40347 28.342 5.55536 29.7725 4.98317C27.3259 11.3266 22.8667 28.3311 23.4883 30.9619C23.6099 33.4315 24.5011 33.6716 25.3824 33.9741C25.5238 34.0234 25.6751 34.076 25.8362 34.1385C26.415 34.3654 27.0431 34.7962 27.3949 34.9475C27.6185 34.9475 32.0316 28.4265 34.0869 25.0394C34.0639 25.776 34.0705 26.3548 34.0869 26.7823C34.179 29.0842 37.5792 29.6038 37.6253 29.7616C37.8029 29.7616 40.5849 26.0588 42.8046 22.9578C43.017 23.8237 43.4549 24.618 44.0739 25.2597C44.3644 25.5858 44.7476 25.8153 45.1723 25.9174C45.8987 26.5524 46.7671 27.0035 47.7044 27.2328H47.7274C49.3716 27.2328 52.4003 21.09 53.8932 18.1172C54.1135 20.1495 54.689 21.4451 57.1159 22.7473C58.6121 23.5563 62.2294 19.2846 63.1798 18.2323C66.2643 14.8584 67.4876 12.0994 67.9349 10.4255L71.7758 7.59419C69.4739 11.9448 66.5143 18.2126 64.4787 24.533C53.7814 26.7231 43.9424 30.5706 33.3733 35.1941C28.7695 37.2001 24.5866 39.1994 20.6602 42.3169C18.7924 43.8032 19.016 46.3485 19.3218 48.5452C19.3744 48.9332 19.6506 49.3114 19.8545 49.6929C20.2347 49.5458 20.6012 49.3653 20.9496 49.1535C21.4001 48.8247 22.5741 47.8382 23.0345 47.5488C32.2604 41.2515 42.2582 36.1675 52.7817 32.4219C56.445 31.1066 59.9045 29.8964 63.3047 28.831L63.0384 29.903C62.9134 30.4916 62.7983 31.0704 62.7095 31.6492C62.7095 31.6492 61.4731 35.3914 66.1032 36.0195C66.1032 36.0195 66.7872 25.4439 72.9037 14.227C77.1129 6.5123 80.865 4.6905 83.0387 4.36165C83.0617 5.2035 82.8151 6.52874 82.0522 8.57415C80.7386 8.86236 79.4767 9.34916 78.3099 10.0178C73.4529 12.8327 73.8146 17.8213 77.9811 18.913C81.1281 19.7351 83.3149 16.5585 83.7753 15.3615C83.9068 15.1642 84.0417 14.9636 84.1732 14.7531C85.0355 13.3357 85.6931 11.8034 86.1265 10.2019C86.827 10.1658 87.5866 10.0638 88.241 10.0244C87.0276 14.6512 89.1881 16.6933 91.2499 17.0386C94.7587 17.6272 97.3105 14.4079 98.9219 8.9589C100.379 4.02294 98.2675 2.80622 97.054 2.50697ZM80.694 11.7311C80.5033 12.1355 80.3257 12.5006 80.158 12.836C79.6632 13.939 79.018 14.9682 78.2408 15.8942C77.3036 15.4536 76.9255 14.5361 77.9942 12.9774C78.721 11.9053 79.8029 11.2674 81.0788 10.8728C80.9571 11.1457 80.8354 11.4384 80.694 11.7311ZM96.5608 9.83034C95.0481 13.3851 92.8514 14.2237 92.3647 14.2632C92.1993 14.2787 92.034 14.2311 91.9023 14.1299C91.7705 14.0286 91.6819 13.8812 91.6544 13.7173C91.4209 12.7307 91.7761 10.8662 92.5817 9.22526C94.5844 8.41959 95.1533 7.35085 95.1237 6.37089C95.5247 6.17864 95.9648 6.08184 96.4095 6.08809C96.4095 6.08809 98.1129 6.18016 96.5608 9.83034Z" fill="white"/>
</g>
</g>
<defs>
<clipPath id="clip0_388_227">
<rect width="100" height="61.86" fill="white"/>
</clipPath>
<clipPath id="clip1_388_227">
<rect width="93.7413" height="58" fill="white" transform="translate(6)"/>
</clipPath>
</defs>
</svg>
