<svg width="106" height="76" viewBox="0 0 106 76" fill="none" xmlns="http://www.w3.org/2000/svg">
<g clip-path="url(#clip0_388_234)">
<path d="M44.3301 17.6657C44.3301 17.6657 42.3277 17.0276 39.8453 18.805C37.3629 20.5825 38.0009 23.2714 39.6559 23.8539C40.2135 24.0165 40.786 24.1225 41.3649 24.17L41.1769 24.1558C42.2987 24.3208 43.4431 24.2356 44.5281 23.9065L44.6249 23.8752C45.4322 23.6293 46.1916 23.2479 46.8709 22.7472C47.462 22.3812 47.2056 21.9241 47.2056 21.9241C46.9208 21.4398 46.4251 21.6164 46.2001 21.7289L46.0577 21.7888C45.2081 22.4115 44.2133 22.8066 43.168 22.9367C42.2494 23.0364 39.8282 23.3184 39.2642 22.1861C38.9609 21.5837 39.0292 20.6195 40.1558 19.7222C40.1814 19.7023 40.2099 19.6852 40.2384 19.6667C40.8451 19.369 41.251 19.3007 41.5202 19.3348C41.5737 19.3427 41.6265 19.3546 41.6783 19.3705L41.7196 19.3861C41.748 19.3975 41.7708 19.4103 41.7936 19.4217C41.8702 19.4641 41.9357 19.5242 41.9845 19.5969C41.993 19.614 42.003 19.6268 42.0101 19.6425L42.0286 19.6724C42.0414 19.7073 42.0519 19.7429 42.0599 19.7792C42.0594 19.7863 42.0594 19.7935 42.0599 19.8006C42.065 19.8345 42.0678 19.8688 42.0685 19.9031C42.0685 19.9216 42.0685 19.9401 42.0685 19.9615C42.0685 19.9829 42.0685 20.0071 42.0685 20.0313C42.0484 20.2485 42.0161 20.4643 41.9716 20.6779C41.9531 20.769 41.9318 20.8602 41.909 20.9627L41.4589 22.7444C41.7434 22.764 42.0289 22.764 42.3134 22.7444H42.3419L42.4317 22.7359C42.6296 22.7216 42.8304 22.7017 43.0241 22.6732C43.1537 22.6547 43.2691 22.6333 43.3802 22.6119C43.698 22.5697 44.0088 22.4854 44.3045 22.3613C44.3045 22.3613 44.6349 21.0311 44.7759 20.4073H44.7645C45.0949 18.8791 45.0493 17.8665 44.3372 17.6671M42.8803 28.0026L43.4258 25.8663C44.3079 25.8571 45.1899 25.8971 46.0677 25.9859C46.4329 26.0286 46.7943 26.0996 47.1486 26.1981L47.1899 26.2109C47.1951 26.2116 47.2004 26.2116 47.2056 26.2109C47.8373 26.4301 48.3849 26.8408 48.7722 27.3859C49.3903 28.3244 49.4074 29.5749 49.3946 29.9495C49.3946 29.9865 49.3946 30.0249 49.3946 30.062C49.7463 30.1237 50.0929 30.2118 50.4314 30.3254L50.5041 30.3511C50.6123 30.3881 50.712 30.4266 50.8103 30.4664C50.8644 30.4892 50.9185 30.5106 50.9726 30.5362C51.0566 30.5718 51.1378 30.6103 51.2147 30.6473L51.3016 30.69C51.6484 30.8665 51.9703 31.0882 52.2587 31.3495C52.2587 31.3495 52.3085 31.207 52.3755 30.982C52.505 30.5458 52.5876 30.097 52.6219 29.6433C52.6916 28.8614 52.6347 27.9342 52.1946 27.148H52.186C52.169 27.1124 52.1561 27.074 52.1348 27.0384C51.7955 26.4121 51.303 25.8819 50.7034 25.4974C50.0839 25.0915 49.2365 24.7995 48.1655 24.6315C49.4862 24.1833 50.5235 23.5747 51.2774 22.8056L51.2931 22.7871C51.4194 22.6593 51.5387 22.5248 51.6505 22.3841C52.3958 21.4761 52.8021 20.3372 52.7999 19.1625C52.7999 17.9187 52.2302 16.8657 51.0908 16.0036C49.9515 15.1415 48.2899 14.709 46.1061 14.7062C45.8013 14.7062 45.4994 14.7142 45.2003 14.7304C45.0935 14.7304 44.9895 14.7432 44.8841 14.7517C44.6947 14.7646 44.5039 14.7788 44.3145 14.8002C44.1905 14.8116 44.0652 14.8258 43.9399 14.8415C43.7733 14.8628 43.6081 14.887 43.4414 14.9127C43.3132 14.9326 43.1836 14.9511 43.0569 14.9739L42.98 14.9867C41.4953 15.2578 40.0589 15.7469 38.7173 16.438C37.7955 16.9147 36.9266 17.4876 36.1253 18.1471L36.2449 18.0402C36.2449 18.0402 36.1651 18.1043 36.027 18.2268C35.26 18.8658 34.5724 19.5945 33.979 20.3973C33.0504 21.6065 32.757 22.4325 32.757 22.4325C32.7485 22.4539 32.7399 22.4752 32.73 22.4952C32.72 22.5151 32.7129 22.535 32.7029 22.555C32.4854 23.0159 32.3012 23.4919 32.1517 23.9792C32.1511 23.9868 32.1511 23.9944 32.1517 24.002C32.0862 24.2156 32.0278 24.4292 31.978 24.6471C31.7909 25.4184 31.6953 26.2091 31.6931 27.0028C31.6993 27.4342 31.7509 27.8639 31.847 28.2846V28.2974C31.9766 29.1377 32.3882 30.1189 32.8966 31.0375C33.22 31.6448 33.5905 32.2257 34.0046 32.7751C34.3257 33.2309 34.7187 33.6316 35.1682 33.9614C35.1881 33.9771 35.2095 33.9956 35.2294 34.0084C35.2494 34.0213 35.2921 34.0455 35.3234 34.064L35.342 34.074C36.3033 34.628 36.7961 34.0084 36.7961 34.0084C36.8911 33.9146 36.9658 33.8021 37.0154 33.678C37.0858 33.5177 37.1111 33.3411 37.0885 33.1674C37.066 32.9937 36.9963 32.8295 36.8872 32.6925C36.8872 32.6925 36.8872 32.6811 36.8773 32.6754L36.8545 32.6469C36.7698 32.5346 36.6707 32.4341 36.5597 32.3478C36.3802 32.194 36.1424 32.0117 35.8333 31.7967C35.3334 31.4563 33.1757 30.7029 32.8724 26.5912C32.7499 24.9021 33.791 22.4766 34.543 21.521C35.7934 19.933 37.2091 18.4661 39.2058 17.4207C40.4177 16.7778 41.7199 16.3221 43.0683 16.0691H43.0825C43.3189 16.0264 43.5525 15.9908 43.7946 15.9609L44.0011 15.9381C44.1849 15.9167 44.3686 15.9011 44.5509 15.8883C44.6221 15.8883 44.6933 15.8769 44.7645 15.874C45.0095 15.8598 45.2559 15.8512 45.5037 15.8512C45.8113 15.8512 46.0976 15.8669 46.3753 15.8911C47.1771 15.9737 48.2453 16.1973 49.0172 16.7998C49.1119 16.8752 49.2023 16.9561 49.2878 17.0419C49.3191 17.0732 49.3476 17.1074 49.3775 17.1401C49.4074 17.1729 49.4544 17.2227 49.49 17.264C49.8937 17.7814 50.1346 18.407 50.1822 19.0614C50.1822 19.1397 50.1922 19.2195 50.1922 19.3007C50.1922 19.4773 50.1836 19.6496 50.1694 19.8205C50.1694 19.8803 50.1537 19.9387 50.1466 19.9971C50.1323 20.1068 50.1181 20.215 50.0996 20.3232C50.0853 20.393 50.0683 20.4657 50.0526 20.5298C50.0369 20.5938 50.0198 20.6722 50.0013 20.7363C49.8465 21.2513 49.6233 21.7433 49.3376 22.1989L49.2294 22.3613C49.171 22.441 49.1098 22.5179 49.0485 22.5963C49.0029 22.6518 48.9602 22.7102 48.9061 22.7658C48.7953 22.8984 48.6779 23.0253 48.5543 23.146C48.4717 23.2301 48.3763 23.3041 48.2851 23.3824C47.8694 23.7188 47.4088 23.9954 46.9165 24.2042C46.8097 24.2498 46.7014 24.2939 46.5875 24.3338L46.5092 24.3623C45.5994 24.6425 44.651 24.7766 43.6992 24.7596L43.7747 24.4392C42.8717 24.5973 41.664 24.5261 41.0074 24.4677L39.2129 31.5246C39.1944 31.5916 39.1773 31.6542 39.1603 31.7212L39.0776 32.006C39.0577 32.0758 39.0378 32.1484 39.0193 32.2125C38.8157 32.8986 38.5644 33.5696 38.2673 34.2207C38.2431 34.2691 38.2174 34.3146 38.1932 34.3631C38.169 34.4115 38.1448 34.4514 38.1206 34.4941C38.0964 34.5368 38.0494 34.6152 38.0138 34.6693C37.9782 34.7234 37.9539 34.7448 37.9269 34.7804C37.7645 34.9767 37.5612 35.1353 37.3312 35.245C37.1012 35.3547 36.8501 35.4129 36.5953 35.4156C36.3545 35.4074 36.1155 35.371 35.8832 35.3073C34.8705 34.9356 34.9318 35.1649 34.9318 35.1649C34.8492 35.2945 34.9019 35.4497 34.9873 35.5922C34.9873 35.6021 35.0016 35.6135 35.0073 35.6249C35.028 35.6565 35.0503 35.6869 35.0742 35.7161L35.1141 35.7673C35.1582 35.8172 35.1967 35.8556 35.2266 35.8855C35.2579 35.9169 35.2821 35.9382 35.2821 35.9382C35.2957 35.9501 35.3099 35.961 35.3249 35.971C35.3676 36.0095 35.4132 36.0436 35.4573 36.0778L35.5285 36.1305L35.5527 36.1462C35.9716 36.4297 36.4367 36.6379 36.9271 36.7614H36.9456C37.318 36.8595 37.7001 36.9159 38.085 36.9295C38.9865 36.9922 39.6146 36.7871 40.0433 36.5207H40.0547C40.1511 36.4618 40.243 36.3956 40.3295 36.3228C40.3523 36.3057 40.3708 36.2872 40.3922 36.2687C40.4613 36.2058 40.5269 36.1393 40.5887 36.0693L40.6386 36.008C40.707 35.9242 40.768 35.8346 40.8209 35.7403C40.8215 35.7389 40.8218 35.7375 40.8218 35.736C40.8218 35.7345 40.8215 35.7331 40.8209 35.7317C40.8494 35.6805 40.865 35.6477 40.865 35.6477H40.8565C40.899 35.5661 40.9351 35.4813 40.9647 35.3942C41.0573 35.0994 41.8691 31.8664 42.4701 29.5236L42.8803 28.0026ZM63.8161 30.4394C64.8017 29.9039 65.1093 28.5637 65.1093 28.5637C65.1093 28.5637 63.5854 28.4085 62.6711 29.122C62.367 29.3938 62.1142 29.7179 61.9248 30.0791C62.0897 29.3281 62.2034 28.5667 62.2652 27.8003C62.9692 27.66 63.6292 27.3522 64.1893 26.9031C65.0438 26.2152 65.1178 24.8736 65.1178 24.8736C65.1178 24.8736 63.6224 24.9818 62.8605 25.8264C62.6168 26.133 62.431 26.4815 62.3122 26.8547C62.3315 26.0672 62.2992 25.2794 62.2153 24.4962C62.8837 24.2423 63.4794 23.8281 63.95 23.2899C64.6621 22.4823 64.5012 21.1721 64.5012 21.1721C64.5012 21.1721 63.077 21.5324 62.4816 22.4766C62.2879 22.7885 62.1754 23.2614 62.1085 23.6773C61.9846 22.8511 61.8077 22.0338 61.5787 21.2305C62.1949 20.8699 62.7113 20.3613 63.0812 19.7507C63.6295 18.852 63.2521 17.6144 63.2521 17.6144C63.2521 17.6144 61.939 18.2069 61.5246 19.2166C61.3821 19.5869 61.3579 20.1239 61.3736 20.5625C61.104 19.7285 60.7791 18.9135 60.4009 18.1228C60.9332 17.6709 61.3444 17.0933 61.5972 16.4423C61.9675 15.4795 61.3978 14.3501 61.3978 14.3501C61.3978 14.3501 60.23 15.1434 60.0064 16.1902C59.9223 16.5662 59.9935 17.0761 60.0818 17.4919C59.6772 16.7142 59.216 15.9674 58.7018 15.2573C59.131 14.7366 59.4246 14.1176 59.5563 13.4557C59.7557 12.4588 59.008 11.4704 59.008 11.4704C59.008 11.4704 58.0111 12.4346 57.9797 13.4828C57.9919 13.8834 58.0809 14.2779 58.2418 14.6449C57.7213 13.9919 57.1436 13.3866 56.5156 12.8362C56.853 12.2522 57.0368 11.5921 57.0497 10.9178C57.0739 9.92084 56.1824 9.09338 56.1824 9.09338C56.1824 9.09338 55.3905 10.1943 55.5301 11.2112C55.5885 11.6142 55.8648 12.1098 56.0998 12.4673C55.4243 11.8804 54.7106 11.339 53.9635 10.8466C54.2009 10.2143 54.2706 9.53129 54.1657 8.86408C54.0233 7.90132 53.0192 7.25473 53.0192 7.25473C53.0192 7.25473 52.4396 8.44821 52.7515 9.4067C52.8853 9.82542 53.2984 10.3054 53.5974 10.613C52.8201 10.125 52.0069 9.69648 51.1649 9.33122C51.2894 8.67486 51.2403 7.99736 51.0225 7.36581C50.7262 6.45575 49.6467 6 49.6467 6C49.6467 6 49.2921 7.25188 49.7549 8.12349C49.97 8.52939 50.4998 8.94953 50.8402 9.1888C50.3332 8.98371 49.8959 8.83417 49.5584 8.72878C49.4031 8.54078 48.8648 7.94119 48.2182 7.82868C47.6699 7.73468 46.7484 8.08931 46.7484 8.08931C47.0992 8.51137 47.5617 8.82625 48.0829 8.99795C48.7281 9.21728 49.4459 8.8712 49.5797 8.79999C50.1771 9.00904 50.7629 9.25008 51.3344 9.52206C51.004 9.46082 50.1152 9.32267 49.5797 9.49643C48.6426 9.80263 48.0288 10.952 48.0288 10.952C48.0288 10.952 49.1169 11.3707 49.9643 10.9306C50.5728 10.6223 51.0858 10.1541 51.4483 9.57618C52.3178 9.99754 53.1538 10.4846 53.9492 11.0331C53.559 10.8907 52.8326 10.6785 52.3327 10.7483C51.3358 10.8907 50.514 11.9347 50.514 11.9347C50.514 11.9347 51.5366 12.5514 52.4666 12.2565C53.1205 12.058 53.7101 11.69 54.1757 11.1898C54.9136 11.7116 55.6154 12.2826 56.2764 12.8989L56.4416 13.0484C56.0727 12.8419 55.3834 12.4958 54.875 12.4787C53.8481 12.446 52.8383 13.3503 52.8383 13.3503C52.8383 13.3503 53.7555 14.1479 54.7439 14.0183C55.4362 13.9322 56.0937 13.666 56.6509 13.2464C57.3569 13.9316 57.9928 14.6854 58.5494 15.4966C58.2133 15.2246 57.5895 14.7617 57.0853 14.6549C56.0585 14.4384 54.8821 15.169 54.8821 15.169C54.8821 15.169 55.6654 16.1332 56.678 16.1788C57.3849 16.2166 58.0891 16.0662 58.7189 15.743C59.2276 16.5085 59.6798 17.3101 60.0719 18.1414C59.7671 17.8067 59.3156 17.3709 58.8983 17.2042C57.9014 16.8069 56.5982 17.331 56.5982 17.331C56.5982 17.331 57.2092 18.439 58.2218 18.664C58.9033 18.8204 59.6132 18.8018 60.2855 18.6099C60.6381 19.4176 60.935 20.2484 61.1742 21.0966C60.9307 20.7249 60.5817 20.2663 60.2271 20.0484C59.3 19.4787 57.89 19.7635 57.89 19.7635C57.89 19.7635 58.3101 20.9841 59.2871 21.3886C59.9353 21.6613 60.6408 21.7694 61.3408 21.7033C61.5556 22.5653 61.7117 23.4408 61.808 24.3238C61.6257 23.8966 61.3565 23.3668 61.0289 23.0762C60.2015 22.3328 58.7317 22.3798 58.7317 22.3798C58.7317 22.3798 58.9382 23.6815 59.8469 24.2626C60.4519 24.6537 61.1452 24.8873 61.8635 24.9419C61.9305 25.8175 61.9305 26.6969 61.8635 27.5725C61.7581 27.1139 61.5787 26.5228 61.2938 26.1725C60.5917 25.2766 59.1077 25.0616 59.1077 25.0616C59.1077 25.0616 59.0849 26.4103 59.8953 27.1537C60.4332 27.6531 61.0872 28.0104 61.798 28.1934C61.7061 28.993 61.5547 29.7847 61.3451 30.5619C61.3138 30.1047 61.2298 29.5564 61.0361 29.1932C60.4892 28.1678 59.0422 27.6935 59.0422 27.6935C59.0422 27.6935 58.783 29.0422 59.4623 29.9324C59.9083 30.52 60.4911 30.9898 61.16 31.301C60.9394 32.0801 60.6614 32.8418 60.3282 33.5798C60.3767 33.1069 60.3966 32.5287 60.2641 32.1214C59.8953 30.9977 58.5195 30.2599 58.5195 30.2599C58.5195 30.2599 58.0153 31.5674 58.5423 32.5842C58.8871 33.2518 59.3879 33.8263 60.0021 34.2591C59.6555 34.9403 59.2649 35.5983 58.8328 36.2288C58.951 35.7901 59.0464 35.2788 58.9923 34.8815C58.8186 33.688 57.5681 32.7039 57.5681 32.7039C57.5681 32.7039 56.8318 33.9287 57.1836 35.0438C57.4079 35.7604 57.7983 36.4138 58.323 36.9509C57.8765 37.5398 57.3957 38.1019 56.8831 38.6343C57.0766 38.2459 57.1977 37.8256 57.2406 37.3938C57.279 36.1618 56.1966 34.9527 56.1966 34.9527C56.1966 34.9527 55.2367 36.0522 55.3934 37.2314C55.4832 37.9803 55.747 38.6978 56.1639 39.3264C55.6355 39.8239 55.0791 40.2909 54.4975 40.725C54.753 40.3773 54.9427 39.9859 55.0572 39.57C55.315 38.3395 54.4406 36.9323 54.4406 36.9323C54.4406 36.9323 53.2841 37.868 53.2271 39.0815C53.1948 39.8526 53.3411 40.6207 53.6544 41.326C53.0335 41.7413 52.387 42.1171 51.7189 42.4511C52.0507 42.1193 52.3968 41.7077 52.5492 41.3274C53.0263 40.1354 52.3968 38.5645 52.3968 38.5645C52.3968 38.5645 51.0666 39.2994 50.7974 40.5128C50.6222 41.2895 50.6329 42.0966 50.8288 42.8684C50.1747 43.1515 49.5001 43.3843 48.8107 43.5649C49.1879 43.3141 49.5161 42.9965 49.7791 42.6277C50.4699 41.514 50.1167 39.8235 50.1167 39.8235C50.1167 39.8235 48.6426 40.3234 48.1527 41.4941C47.8486 42.2229 47.7147 43.0115 47.761 43.7999C47.0817 43.9551 45.9964 44.2115 45.1419 44.4137C45.5322 44.1388 45.9409 43.7927 46.1588 43.4424C46.851 42.3301 46.4949 40.641 46.4949 40.641C46.4949 40.641 45.0308 41.1451 44.5438 42.313C44.2337 43.0506 44.1005 43.8505 44.1549 44.6487C44.1008 44.6601 44.0524 44.6715 44.0125 44.6829C43.8957 44.6672 43.8587 45.1415 44.2219 45.1201C44.3887 45.096 44.5541 45.0632 44.7175 45.0218C45.1459 45.7764 45.7621 46.4073 46.5063 46.8534C47.5887 47.5142 49.0699 47.0584 49.0699 47.0584C49.0699 47.0584 48.3578 45.4833 47.1501 44.9905C46.7213 44.8471 46.2701 44.7829 45.8184 44.8011C46.8339 44.6017 47.9476 44.3738 48.382 44.2969C48.8109 45.0098 49.4074 45.6072 50.1195 46.0373C51.2005 46.6967 52.6831 46.2424 52.6831 46.2424C52.6831 46.2424 51.971 44.6672 50.7618 44.173C50.3757 44.0408 49.9693 43.9776 49.5612 43.9864C50.2297 43.7713 50.883 43.5115 51.5167 43.2088C52.0487 43.8063 52.715 44.2691 53.4607 44.559C54.6157 45.0119 55.9687 44.3183 55.9687 44.3183C55.9687 44.3183 55.0174 42.9197 53.7626 42.6505C53.3573 42.588 52.9441 42.5976 52.5421 42.679C53.1663 42.3307 53.7706 41.9479 54.3523 41.5325C54.9732 42.0328 55.7063 42.3749 56.4886 42.5295C57.6806 42.7687 58.8684 41.8715 58.8684 41.8715C58.8684 41.8715 57.7134 40.6851 56.4572 40.6367C56.0642 40.6225 55.5742 40.7606 55.1512 40.9215C55.7494 40.4455 56.3201 39.9357 56.8603 39.3948C57.5494 39.7787 58.3219 39.9884 59.1105 40.0058C60.2998 40.0343 61.2953 38.9661 61.2953 38.9661C61.2953 38.9661 59.9736 38.0176 58.7559 38.1871C58.3228 38.2769 57.91 38.4459 57.5382 38.6855C58.0552 38.1132 58.5383 37.5111 58.9852 36.8825C59.7127 37.1314 60.4897 37.2003 61.2497 37.0833C62.4062 36.911 63.1823 35.7104 63.1823 35.7104C63.1823 35.7104 61.7482 35.0168 60.5988 35.3871C60.211 35.5434 59.8545 35.7682 59.5463 36.0508C59.9492 35.4098 60.3108 34.7439 60.6287 34.0569C61.365 34.1674 62.1171 34.1 62.822 33.8603C63.9044 33.4872 64.4499 32.2054 64.4499 32.2054C64.4499 32.2054 62.9488 31.7781 61.902 32.3336C61.5676 32.539 61.2721 32.8018 61.0289 33.1098C61.2986 32.424 61.5213 31.7208 61.6955 31.0048C62.4353 30.9892 63.1602 30.7937 63.8076 30.4351M42.2892 44.6772C42.2494 44.6658 42.1995 44.6544 42.1468 44.643C42.1967 43.8482 42.0637 43.0526 41.758 42.3173C41.2709 41.1494 39.804 40.6452 39.804 40.6452C39.804 40.6452 39.4508 42.3344 40.1415 43.4467C40.3609 43.797 40.7696 44.1431 41.157 44.418C40.3025 44.2157 39.2215 43.9594 38.5379 43.8027C38.5862 43.0148 38.4527 42.2264 38.1476 41.4983C37.662 40.3234 36.1894 39.8206 36.1894 39.8206C36.1894 39.8206 35.8362 41.5112 36.5255 42.6249C36.789 42.9937 37.1177 43.3113 37.4954 43.562C36.806 43.3812 36.1314 43.1484 35.4773 42.8656C35.6709 42.0935 35.6817 41.2869 35.5086 40.5099C35.238 39.2965 33.9078 38.5616 33.9078 38.5616C33.9078 38.5616 33.2797 40.1283 33.7554 41.3246C33.9092 41.7049 34.2539 42.1165 34.5857 42.4483C33.9175 42.1144 33.271 41.7386 32.6502 41.3232C32.963 40.6179 33.1069 39.8493 33.0703 39.0786C33.0148 37.8652 31.8583 36.9295 31.8583 36.9295C31.8583 36.9295 30.9825 38.3366 31.2417 39.5671C31.3567 39.9829 31.5464 40.3742 31.8014 40.7222C31.2226 40.2884 30.6686 39.8224 30.1422 39.3264C30.5633 38.6987 30.832 37.9813 30.9269 37.2314C31.0836 36.0493 30.1251 34.9527 30.1251 34.9527C30.1251 34.9527 29.0427 36.1618 29.0811 37.3938C29.1245 37.8255 29.2456 38.2457 29.4386 38.6343C28.9265 38.1015 28.4457 37.5394 27.9987 36.9509C28.5235 36.4138 28.9139 35.7604 29.1381 35.0438C29.4856 33.9287 28.7536 32.7039 28.7536 32.7039C28.7536 32.7039 27.4988 33.688 27.3294 34.8815C27.2724 35.2788 27.3692 35.7901 27.4875 36.2288C27.0538 35.5993 26.6632 34.9412 26.3182 34.2591C26.9314 33.826 27.4311 33.2515 27.7751 32.5842C28.3035 31.5674 27.8008 30.2599 27.8008 30.2599C27.8008 30.2599 26.425 30.9977 26.0547 32.1214C25.9208 32.5287 25.9408 33.1069 25.9906 33.5798C25.6573 32.842 25.3797 32.0803 25.1603 31.301C25.8266 30.9863 26.4067 30.5147 26.8508 29.9267C27.5316 29.0365 27.2696 27.6892 27.2696 27.6892C27.2696 27.6892 25.8154 28.1621 25.2685 29.1875C25.072 29.5507 24.9922 30.099 24.9595 30.5562C24.753 29.7805 24.6031 28.9908 24.5109 28.1934C25.2215 28.01 25.8754 27.6527 26.4136 27.1537C27.2226 26.4103 27.1998 25.063 27.1998 25.063C27.1998 25.063 25.7157 25.2766 25.0136 26.1725C24.7387 26.5228 24.5579 27.1139 24.4525 27.5725C24.3839 26.697 24.3815 25.8177 24.4454 24.9419C25.1639 24.887 25.8572 24.653 26.462 24.2612C27.3707 23.6801 27.5758 22.3784 27.5758 22.3784C27.5758 22.3784 26.1074 22.3314 25.2785 23.0748C24.9552 23.3597 24.6818 23.8966 24.5009 24.3224C24.5956 23.439 24.7522 22.5634 24.9695 21.7019C25.6686 21.7654 26.3726 21.6554 27.0189 21.3814C27.9945 20.977 28.4146 19.7564 28.4146 19.7564C28.4146 19.7564 27.0046 19.4602 26.0789 20.0413C25.7214 20.2592 25.3739 20.7177 25.129 21.0909C25.3716 20.2443 25.6709 19.4149 26.0248 18.6085C26.6976 18.8007 27.4082 18.8188 28.0899 18.6612C29.0982 18.439 29.7121 17.3296 29.7121 17.3296C29.7121 17.3296 28.4018 16.804 27.4105 17.2042C26.9975 17.3694 26.5446 17.8052 26.2384 18.1399C26.6301 17.3086 27.0828 16.5074 27.5928 15.743C28.2238 16.0623 28.9277 16.2097 29.6337 16.1703C30.6478 16.1247 31.4282 15.1605 31.4282 15.1605C31.4282 15.1605 30.2533 14.4299 29.2264 14.6464C28.7208 14.7532 28.097 15.216 27.7609 15.4881C28.3191 14.6794 28.9555 13.9276 29.6608 13.2435C30.2188 13.6636 30.8774 13.9298 31.5707 14.0154C32.5562 14.145 33.4734 13.3475 33.4734 13.3475C33.4734 13.3475 32.4651 12.4431 31.4396 12.4773C30.9255 12.493 30.239 12.839 29.873 13.047C29.929 12.9957 29.9846 12.9459 30.0396 12.8974C30.6997 12.2801 31.4016 11.7091 32.1403 11.1884C32.6055 11.6894 33.1952 12.058 33.8494 12.2565C34.7765 12.5485 35.7991 11.9332 35.7991 11.9332C35.7991 11.9332 34.9774 10.8893 33.9818 10.7469C33.4834 10.6771 32.757 10.8893 32.3668 11.0317C33.1615 10.4829 33.9971 9.99583 34.8663 9.57476C35.2283 10.153 35.7414 10.6214 36.3503 10.9292C37.1963 11.3693 38.2872 10.9505 38.2872 10.9505C38.2872 10.9505 37.6748 9.80121 36.7348 9.495C36.1993 9.32125 35.3106 9.4594 34.9802 9.51921C35.552 9.24821 36.1377 9.00766 36.7348 8.79857C36.8673 8.86978 37.5894 9.21586 38.2331 8.99653C38.7546 8.82538 39.2172 8.51041 39.5676 8.08789C39.5676 8.08789 38.6447 7.73326 38.0949 7.82868C37.4484 7.93977 36.9129 8.54078 36.7576 8.72736C36.4144 8.83275 35.9786 8.98229 35.4758 9.18737C35.8191 8.94811 36.3474 8.52797 36.5611 8.12207C37.0111 7.25188 36.6593 6 36.6593 6C36.6593 6 35.5812 6.45575 35.2764 7.36012C35.0576 7.99145 35.0084 8.66923 35.134 9.32552C34.2922 9.69022 33.4794 10.1187 32.7029 10.6073C33.0006 10.2997 33.415 9.81972 33.5475 9.40101C33.8565 8.44251 33.2783 7.24903 33.2783 7.24903C33.2783 7.24903 32.2813 7.89562 32.1389 8.85838C32.0352 9.52631 32.1058 10.2097 32.344 10.8423C31.5959 11.3333 30.8821 11.8748 30.2077 12.463C30.4413 12.1056 30.719 11.6085 30.7774 11.2083C30.9198 10.19 30.1251 9.0891 30.1251 9.0891C30.1251 9.0891 29.235 9.91799 29.2592 10.9135C29.2705 11.5891 29.4533 12.2506 29.7904 12.8362C29.1646 13.3882 28.5894 13.995 28.0714 14.6492C28.2306 14.2815 28.3199 13.8874 28.3349 13.4871C28.295 12.4388 27.3037 11.4761 27.3037 11.4761C27.3037 11.4761 26.556 12.4659 26.7554 13.46C26.8871 14.1219 27.1807 14.7409 27.6099 15.2616C27.0989 15.9709 26.6391 16.7157 26.2342 17.4905C26.321 17.0761 26.3894 16.5662 26.3111 16.1902C26.086 15.1434 24.9196 14.3501 24.9196 14.3501C24.9196 14.3501 24.3428 15.4795 24.7188 16.4423C24.9698 17.095 25.3824 17.6732 25.918 18.1228C25.5372 18.9132 25.2098 19.7283 24.9381 20.5625C24.9566 20.1239 24.9381 19.5869 24.7872 19.2166C24.3756 18.2069 23.0624 17.6158 23.0624 17.6158C23.0624 17.6158 22.6836 18.852 23.2334 19.7521C23.6021 20.3636 24.1188 20.8725 24.7359 21.2319C24.506 22.0352 24.328 22.8525 24.2032 23.6787C24.1391 23.2628 24.0266 22.79 23.8287 22.4781C23.239 21.5338 21.812 21.1735 21.812 21.1735C21.812 21.1735 21.6511 22.4838 22.3632 23.2913C22.8341 23.8285 23.4291 24.2426 24.0964 24.4976C24.0145 25.2809 23.9826 26.0687 24.001 26.8561C23.8834 26.4821 23.697 26.1333 23.4513 25.8278C22.6893 24.9832 21.1953 24.875 21.1953 24.875C21.1953 24.875 21.2637 26.2166 22.1239 26.9045C22.6845 27.3546 23.3456 27.6624 24.0508 27.8018C24.1104 28.5681 24.2227 29.3295 24.387 30.0805C24.1995 29.7189 23.9475 29.3945 23.6435 29.1234C22.7263 28.4113 21.2067 28.5651 21.2067 28.5651C21.2067 28.5651 21.5129 29.9053 22.497 30.4408C23.1451 30.7989 23.8703 30.9944 24.6106 31.0105C24.7842 31.7264 25.0064 32.4297 25.2757 33.1155C25.0333 32.8072 24.7382 32.5444 24.404 32.3393C23.3544 31.7867 21.8561 32.2111 21.8561 32.2111C21.8561 32.2111 22.3988 33.5014 23.4854 33.8689C24.1915 34.1059 24.9441 34.1703 25.6801 34.0569C25.9984 34.7435 26.3594 35.4094 26.7611 36.0508C26.4522 35.7688 26.0946 35.5454 25.7058 35.3913C24.555 35.0211 23.1223 35.7146 23.1223 35.7146C23.1223 35.7146 23.8999 36.9152 25.0549 37.089C25.8155 37.2049 26.5928 37.1356 27.3208 36.8868C27.7659 37.5164 28.2486 38.1185 28.7664 38.6898C28.3938 38.4507 27.9806 38.2818 27.5473 38.1913C26.3282 38.0233 25.0065 38.9732 25.0065 38.9732C25.0065 38.9732 26.0034 40.0414 27.1941 40.0129C27.9819 39.9964 28.7537 39.7866 29.4415 39.4019C29.9818 39.9432 30.5524 40.4535 31.1505 40.9301C30.7233 40.7706 30.2376 40.6324 29.8459 40.6452C28.5884 40.6937 27.4319 41.88 27.4319 41.88C27.4319 41.88 28.6211 42.7773 29.8132 42.538C30.5951 42.3825 31.328 42.0405 31.9495 41.5411C32.5307 41.9565 33.1345 42.3392 33.7582 42.6876C33.3558 42.6062 32.9421 42.5965 32.5363 42.6591C31.2844 42.9282 30.333 44.3268 30.333 44.3268C30.333 44.3268 31.686 45.0204 32.841 44.5675C33.5868 44.2776 34.253 43.8149 34.7851 43.2174C35.4183 43.5201 36.0711 43.7799 36.7391 43.995C36.3311 43.9862 35.9246 44.0494 35.5385 44.1816C34.3379 44.6672 33.6258 46.2424 33.6258 46.2424C33.6258 46.2424 35.1084 46.6981 36.1894 46.0373C36.8995 45.6051 37.495 45.0081 37.9255 44.2969L40.489 44.8011C40.029 44.8011 39.5234 44.841 39.156 44.9905C37.944 45.4833 37.2362 47.0584 37.2362 47.0584C37.2362 47.0584 38.7188 47.5142 39.7997 46.8534C40.5416 46.4059 41.1565 45.7759 41.5857 45.0233C41.749 45.0647 41.9145 45.0975 42.0813 45.1215C42.443 45.1429 42.4032 44.6686 42.2892 44.6843M49.8617 35.0268C50.2354 34.6741 50.5775 34.2895 50.8843 33.8774C51.0267 33.6908 51.1578 33.5157 51.2717 33.3562C51.2874 33.3305 51.3045 33.3092 51.3201 33.2864L51.3629 33.2251C51.4583 33.0827 51.5138 33.0044 51.5138 33.0044C50.9925 32.458 50.3713 32.0165 49.6837 31.7041L49.5413 31.6357H49.5342C49.4017 31.5802 49.2636 31.5289 49.1226 31.4848C48.8949 32.1801 48.581 32.8442 48.1883 33.4615C47.8548 33.9458 47.4652 34.389 47.0276 34.7818C46.8674 34.9074 46.6963 35.0185 46.5163 35.1136L46.4436 35.1507C46.3639 35.1891 46.2799 35.2219 46.1958 35.2532C46.1545 35.2689 46.1104 35.2831 46.0648 35.2974C46.0192 35.3116 45.9808 35.3201 45.9381 35.3315C45.6182 35.4241 45.2779 35.418 44.9615 35.3141C44.6452 35.2102 44.3676 35.0132 44.1649 34.749C43.9969 34.44 43.9641 33.9971 44.2076 33.3718C44.8371 31.7482 46.9136 30.9606 48.4261 31.0319C48.8089 31.0522 49.1868 31.127 49.5484 31.254L49.6054 31.2754C49.651 31.2925 49.698 31.3138 49.7478 31.3324C50.0445 31.4592 50.3303 31.6102 50.6023 31.7838L50.665 31.8237C50.7191 31.8593 50.7732 31.8949 50.8274 31.9334C51.1182 32.1476 51.3881 32.3889 51.6335 32.654C51.6406 32.664 51.6463 32.674 51.6548 32.6839C51.7803 32.8235 51.8955 32.972 51.9995 33.1283C52.0821 33.2707 52.2729 33.5912 52.4182 33.8746C52.478 34.0042 52.5393 34.138 52.5919 34.2805C52.6122 34.3774 52.6398 34.4726 52.6745 34.5653C52.6763 34.5712 52.6787 34.577 52.6817 34.5824C52.697 34.6251 52.7146 34.6669 52.7344 34.7077C52.7494 34.7397 52.7666 34.7706 52.7856 34.8003C52.803 34.8312 52.822 34.8612 52.8426 34.89L52.8611 34.9128C52.9312 35.0116 53.031 35.0854 53.146 35.1236C53.1562 35.1286 53.1673 35.1315 53.1787 35.1321C53.2017 35.1426 53.2262 35.1493 53.2514 35.1521C53.2859 35.1551 53.3207 35.1551 53.3553 35.1521C53.3624 35.1521 53.3653 35.1521 53.3724 35.1521C53.3809 35.1529 53.3895 35.1529 53.398 35.1521C53.4471 35.1438 53.495 35.1295 53.5405 35.1094C53.6009 35.0814 53.6555 35.0423 53.7014 34.994C53.7114 34.984 53.7242 34.9798 53.7342 34.9684C53.7362 34.9644 53.7386 34.9606 53.7413 34.957C53.7561 34.9373 53.7689 34.9164 53.7797 34.8943C53.8409 34.8076 53.8787 34.7065 53.8894 34.6009C53.8859 34.416 53.8572 34.2325 53.8039 34.0554H53.794C53.5245 33.1789 53.0231 32.3916 52.3427 31.7767C50.618 30.324 49.3519 30.3269 49.3519 30.3269C49.0097 30.2491 48.6613 30.2015 48.3108 30.1845C45.7914 30.1403 43.618 31.1415 42.7649 32.9873C42.2266 34.1594 42.238 36.9907 45.4382 36.9922C47.3309 36.9922 48.795 36.0493 49.8532 35.031" fill="white"/>
<path d="M79.9987 53.9489C79.9987 54.7123 79.2866 54.9458 78.6585 55.0056C78.3965 55.0284 77.9934 55.0498 77.9934 55.0498C78.1572 54.1668 78.6044 53.3066 79.3778 53.3066C79.7694 53.3066 79.9987 53.4917 79.9987 53.9489ZM81.3061 53.7851C81.3061 52.7511 80.2394 52.6742 79.617 52.6742C77.841 52.6742 76.4468 54.3747 76.4468 56.2048C76.4468 57.4795 77.1104 58.3853 78.4734 58.3853C78.9061 58.3846 79.3323 58.2809 79.7169 58.0828C80.1016 57.8847 80.4335 57.5978 80.6852 57.2459C80.767 57.1485 80.8096 57.0241 80.8048 56.897C80.8051 56.86 80.7978 56.8234 80.7834 56.7894C80.769 56.7554 80.7478 56.7246 80.7212 56.699C80.6945 56.6734 80.6629 56.6535 80.6284 56.6406C80.5938 56.6276 80.5569 56.6218 80.52 56.6235C80.3135 56.6235 80.2266 56.7118 80.0842 56.897C79.6569 57.4197 79.2297 57.5948 78.8537 57.5948C78.0789 57.5948 77.8282 56.8642 77.8282 56.1564C77.8299 55.9586 77.8485 55.7614 77.8838 55.5668C77.8838 55.5668 78.6244 55.5568 79.0716 55.5127C80.0842 55.4044 81.3047 54.8917 81.3047 53.7794M74.6679 53.9432C74.6679 54.7066 73.9558 54.9401 73.3277 54.9999C73.0657 55.0227 72.6626 55.0441 72.6626 55.0441C72.8264 54.1611 73.2736 53.3009 74.047 53.3009C74.4386 53.3009 74.6679 53.486 74.6679 53.9432ZM75.9768 53.7794C75.9768 52.7454 74.9072 52.6685 74.2877 52.6685C72.5102 52.6685 71.1159 54.369 71.1159 56.1991C71.1159 57.4738 71.7811 58.3796 73.1426 58.3796C73.5752 58.3789 74.0015 58.2752 74.3861 58.0771C74.7708 57.879 75.1027 57.5921 75.3544 57.2402C75.4362 57.1428 75.4788 57.0184 75.474 56.8913C75.4743 56.8543 75.467 56.8177 75.4526 56.7837C75.4382 56.7497 75.417 56.7189 75.3904 56.6933C75.3637 56.6677 75.3321 56.6478 75.2975 56.6349C75.263 56.6219 75.2261 56.6161 75.1892 56.6178C74.9812 56.6178 74.8944 56.7061 74.7534 56.8913C74.3261 57.414 73.8988 57.5891 73.5214 57.5891C72.7481 57.5891 72.496 56.8585 72.496 56.1507C72.4977 55.9529 72.5163 55.7557 72.5515 55.5611C72.5515 55.5611 73.2921 55.5511 73.7393 55.507C74.7534 55.3987 75.9739 54.886 75.9739 53.7737M72.0502 50.733C72.0502 50.1562 71.2327 50.0693 70.7969 50.0693C69.4781 50.0693 68.5296 51.0819 68.3117 52.0746L68.1593 52.7938H67.93C67.7721 52.8026 67.6232 52.8699 67.5123 52.9826C67.4014 53.0954 67.3365 53.2454 67.3304 53.4034C67.3304 53.5017 67.4187 53.523 67.4942 53.523H68.0069L67.2222 57.2075C67.168 57.4681 67.0698 57.5778 66.9601 57.5778C66.9173 57.5724 66.8738 57.5764 66.8327 57.5894C66.7915 57.6023 66.7536 57.624 66.7216 57.6529C66.6896 57.6818 66.6642 57.7173 66.6471 57.7569C66.63 57.7966 66.6216 57.8394 66.6226 57.8825C66.6226 58.1674 66.8405 58.2856 67.0812 58.2856H68.2134C68.6506 58.2856 68.8785 58.1232 68.8785 57.8384C68.881 57.7769 68.8598 57.7167 68.8192 57.6704C68.7787 57.624 68.7219 57.5949 68.6606 57.5891C68.619 57.5793 68.582 57.5553 68.5561 57.5213C68.5301 57.4873 68.5167 57.4453 68.5182 57.4026C68.5197 57.337 68.5268 57.2718 68.5396 57.2075L69.3243 53.523H70.1788C70.3351 53.5233 70.4855 53.4636 70.5992 53.3563C70.7128 53.249 70.7811 53.1023 70.7898 52.9462C70.7898 52.7611 70.6801 52.7938 70.495 52.7938H69.471L69.602 52.1829C69.7986 51.2785 70.0492 50.6461 70.5719 50.6461C70.7357 50.6461 70.8653 50.7117 71.0519 51.0065C71.1715 51.2016 71.2911 51.5947 71.5518 51.5947C71.8793 51.5947 72.0431 51.2244 72.0431 50.733M67.7377 50.733C67.7377 50.1562 66.9202 50.0693 66.4844 50.0693C65.1656 50.0693 64.2185 51.0819 64.0006 52.0746L63.8482 52.7938H63.6189C63.461 52.8026 63.3121 52.8699 63.2012 52.9826C63.0903 53.0954 63.0255 53.2454 63.0193 53.4034C63.0193 53.5017 63.1062 53.523 63.1831 53.523H63.6958L62.9111 57.2075C62.8555 57.4681 62.7587 57.5778 62.649 57.5778C62.6062 57.5724 62.5628 57.5764 62.5216 57.5894C62.4804 57.6023 62.4426 57.624 62.4105 57.6529C62.3785 57.6818 62.3531 57.7173 62.336 57.7569C62.3189 57.7966 62.3106 57.8394 62.3115 57.8825C62.3115 58.1674 62.5294 58.2856 62.7687 58.2856H63.908C64.3438 58.2856 64.5717 58.1232 64.5717 57.8384C64.5742 57.7769 64.553 57.7167 64.5124 57.6704C64.4719 57.624 64.4151 57.5949 64.3538 57.5891C64.3123 57.5791 64.2755 57.555 64.2496 57.5211C64.2237 57.4871 64.2102 57.4453 64.2114 57.4026C64.2136 57.3371 64.2207 57.2719 64.2328 57.2075L65.0175 53.523H65.8791C66.0353 53.5233 66.1856 53.4636 66.299 53.3562C66.4124 53.2489 66.4803 53.1022 66.4887 52.9462C66.4887 52.7611 66.3805 52.7938 66.1953 52.7938H65.1699L65.3009 52.1829C65.4974 51.2785 65.7481 50.6461 66.2708 50.6461C66.4346 50.6461 66.5656 50.7117 66.7508 51.0065C66.8704 51.2016 66.99 51.5947 67.2521 51.5947C67.5782 51.5947 67.742 51.2244 67.742 50.733M60.4629 54.4929C60.4629 55.8772 59.7878 57.7415 58.6969 57.7415C58.1414 57.7415 57.858 57.2402 57.858 56.531C57.858 54.9643 58.5701 53.2838 59.624 53.2838C60.2663 53.2838 60.4629 53.8178 60.4629 54.4929ZM61.8472 54.7222C61.8472 53.4404 61.2576 52.6628 59.8419 52.6628C58.2397 52.6628 56.4737 54.1127 56.4737 56.3031C56.4737 57.5849 57.1858 58.3739 58.479 58.3739C60.0812 58.3625 61.8472 56.8699 61.8472 54.7222ZM56.3327 51.3981C56.3327 50.451 55.1777 50.0907 54.3274 50.0907C52.0173 50.0907 49.5976 52.3694 49.5976 55.6052C49.5976 57.686 50.8295 58.4536 52.3036 58.4536C52.8979 58.4632 53.4853 58.3247 54.0126 58.0506C54.9284 57.5279 55.2944 57.0693 55.2944 56.699C55.2976 56.6572 55.2916 56.6152 55.2766 56.5759C55.2617 56.5367 55.2383 56.5013 55.2081 56.4722C55.1779 56.4431 55.1416 56.421 55.1019 56.4075C55.0622 56.394 55.02 56.3895 54.9783 56.3942C54.7718 56.3942 54.6735 56.5025 54.4655 56.7318C54.1608 57.0807 53.584 57.5279 52.832 57.5279C52.0245 57.5279 51.0873 57.0579 51.0873 55.2606C51.0873 52.9064 52.1441 50.8142 53.9101 50.8142C54.5752 50.8142 54.9071 50.9566 55.1634 51.7086C55.2731 52.0461 55.2403 52.7981 55.5451 52.7981C56.0137 52.7981 56.3298 51.8496 56.3298 51.4024M44.6798 54.4972C44.6798 55.8815 44.0033 57.7458 42.9138 57.7458C42.3584 57.7458 42.0749 57.2445 42.0749 56.5352C42.0749 54.9686 42.7871 53.288 43.841 53.288C44.4833 53.288 44.6798 53.8221 44.6798 54.4972ZM46.0641 54.7265C46.0641 53.4447 45.476 52.6671 44.0589 52.6671C42.4566 52.6671 40.692 54.1169 40.692 56.3074C40.692 57.5891 41.4041 58.3782 42.6959 58.3782C44.2981 58.3668 46.0641 56.8742 46.0641 54.7265ZM39.819 53.0174C39.819 52.8537 39.7535 52.7995 39.6011 52.7995H38.6754C38.3806 52.7995 38.043 52.9291 38.043 53.214C38.043 53.3564 38.0758 53.4746 38.2609 53.4746C38.3692 53.4746 38.4033 53.627 38.3478 53.8677L37.6286 57.2132C37.5745 57.4738 37.4762 57.5834 37.3679 57.5834C37.325 57.5779 37.2814 57.5817 37.2401 57.5946C37.1987 57.6074 37.1607 57.6291 37.1285 57.658C37.0963 57.687 37.0707 57.7225 37.0536 57.7622C37.0364 57.802 37.028 57.845 37.029 57.8882C37.029 58.1731 37.2469 58.2913 37.4876 58.2913H38.6198C39.0571 58.2913 39.2849 58.1289 39.2849 57.8441C39.2874 57.7825 39.2662 57.7224 39.2256 57.676C39.1851 57.6297 39.1283 57.6006 39.067 57.5948C39.0254 57.585 38.9884 57.561 38.9625 57.527C38.9365 57.493 38.9231 57.451 38.9246 57.4083C38.9261 57.3427 38.9332 57.2775 38.946 57.2132L39.7307 53.5729C39.7788 53.3912 39.8079 53.2051 39.8176 53.0174M40.1451 51.3283C40.1451 50.9139 39.8831 50.7174 39.5014 50.7174C39.1197 50.7174 38.7281 50.9466 38.7281 51.5719C38.7313 51.6529 38.7506 51.7324 38.7849 51.8059C38.8191 51.8795 38.8675 51.9455 38.9273 52.0001C38.9872 52.0548 39.0573 52.0971 39.1336 52.1246C39.2099 52.152 39.2908 52.1641 39.3718 52.1601C39.4782 52.1608 39.5836 52.1394 39.6813 52.0973C39.7791 52.0553 39.867 51.9934 39.9397 51.9157C40.0123 51.838 40.0681 51.746 40.1035 51.6457C40.1388 51.5453 40.153 51.4387 40.1451 51.3326M34.8756 54.0571C34.8605 54.3282 34.8243 54.5977 34.7673 54.8632L34.5053 55.9741C34.3315 56.7261 33.7206 57.4781 33.0996 57.4781C32.7293 57.4781 32.3875 57.1405 32.3875 56.4811C32.3875 54.8134 33.0996 53.2767 34.1094 53.2767C34.4797 53.2767 34.8713 53.3749 34.8713 54.0514M36.4636 52.9833C36.4636 52.8522 36.3753 52.7654 36.1574 52.7654C36.0278 52.7654 35.7543 52.7981 35.3627 53.157C35.122 52.7981 34.6506 52.6671 34.2076 52.6671C32.8005 52.6671 30.9704 54.0514 30.9704 56.568C30.9704 57.7074 31.5586 58.3782 32.453 58.3782C33.2919 58.3782 33.7932 57.9096 34.2831 57.3428H34.3159L34.1094 58.3782C33.957 59.1401 33.6294 60.4475 32.4416 60.4475C31.9403 60.4475 31.701 60.0886 31.4717 59.7283C31.2866 59.4435 31.1556 59.1729 30.9277 59.1729C30.6998 59.1729 30.4577 59.4022 30.4577 60.0018C30.4577 60.7637 31.1442 60.9987 32.2664 60.9987C33.2036 60.9987 34.9482 60.429 35.384 58.3169L36.408 53.3322C36.4375 53.2179 36.4561 53.1011 36.4636 52.9833ZM28.7729 54.0514C28.7522 54.3156 28.7122 54.5778 28.6532 54.8362L28.4026 55.9684C28.1961 56.9169 27.6506 57.4724 26.9969 57.4724C26.638 57.4724 26.2848 57.1875 26.2848 56.4754C26.2848 54.8305 27.0467 53.2496 28.038 53.2496C28.3983 53.2496 28.7686 53.3806 28.7686 54.0457M30.3053 53.3265C30.3495 53.13 30.4805 52.7568 30.1629 52.7568C29.9991 52.7568 29.7598 52.7127 29.2898 53.204C29.1047 52.8764 28.6262 52.6585 28.1035 52.6585C26.6978 52.6471 24.8663 54.1297 24.8663 56.5594C24.8663 57.6718 25.4758 58.3696 26.3474 58.3696C27.219 58.3696 27.9397 57.7373 28.2445 57.2687C28.1676 58.1617 28.5379 58.3696 28.8441 58.3696C29.3995 58.3696 29.7598 58.1503 29.7598 57.8455C29.7598 57.5735 29.4536 57.6504 29.4536 57.3442C29.4545 57.271 29.4621 57.1981 29.4764 57.1263L30.3053 53.3265ZM24.5116 50.8626C24.5871 50.4909 24.5985 50.1975 24.3365 50.1975H23.4221C23.0618 50.1975 22.7784 50.3285 22.7784 50.6248C22.7784 50.7672 22.7784 50.8868 23.0191 50.8868C23.1159 50.8868 23.1615 51.0392 23.1059 51.2785L21.8412 57.2189C21.7871 57.4795 21.6889 57.5891 21.5792 57.5891C21.5364 57.5838 21.4929 57.5878 21.4518 57.6007C21.4106 57.6137 21.3727 57.6354 21.3407 57.6643C21.3087 57.6932 21.2832 57.7287 21.2662 57.7683C21.2491 57.808 21.2407 57.8508 21.2417 57.8939C21.2417 58.1788 21.4596 58.297 21.7002 58.297H22.8396C23.2754 58.297 23.5047 58.1346 23.5047 57.8498C23.5072 57.7882 23.486 57.7281 23.4454 57.6817C23.4049 57.6354 23.3481 57.6063 23.2868 57.6005C23.2452 57.5907 23.2082 57.5667 23.1823 57.5327C23.1563 57.4987 23.1429 57.4567 23.1444 57.414C23.1569 57.3082 23.1749 57.2031 23.1985 57.0992L24.5116 50.8626ZM21.0779 50.8626C21.1548 50.4909 21.1662 50.1975 20.9041 50.1975H19.9884C19.6295 50.1975 19.346 50.3285 19.346 50.6248C19.346 50.7672 19.346 50.8868 19.5853 50.8868C19.6836 50.8868 19.7277 51.0392 19.6722 51.2785L18.4089 57.2189C18.3548 57.4795 18.2565 57.5891 18.1469 57.5891C18.104 57.5838 18.0606 57.5878 18.0194 57.6007C17.9783 57.6137 17.9404 57.6354 17.9084 57.6643C17.8763 57.6932 17.8509 57.7287 17.8338 57.7683C17.8167 57.808 17.8084 57.8508 17.8093 57.8939C17.8093 58.1788 18.0272 58.297 18.2665 58.297H19.4059C19.8417 58.297 20.071 58.1346 20.071 57.8498C20.0734 57.7882 20.0522 57.7281 20.0117 57.6817C19.9711 57.6354 19.9144 57.6063 19.8531 57.6005C19.8115 57.5904 19.7747 57.5664 19.7488 57.5325C19.7229 57.4985 19.7094 57.4567 19.7106 57.414C19.7236 57.3082 19.7421 57.2031 19.7662 57.0992L21.0779 50.8626ZM16.2512 53.9489C16.2512 54.7123 15.5391 54.9458 14.9111 55.0056C14.649 55.0284 14.2459 55.0498 14.2459 55.0498C14.4097 54.1668 14.8569 53.3066 15.6303 53.3066C16.0219 53.3066 16.2512 53.4917 16.2512 53.9489ZM17.5601 53.7851C17.5601 52.7511 16.4919 52.6742 15.8695 52.6742C14.0936 52.6742 12.6993 54.3747 12.6993 56.2048C12.6993 57.4795 13.3629 58.3853 14.7259 58.3853C15.1586 58.3846 15.5848 58.2809 15.9695 58.0828C16.3541 57.8847 16.686 57.5978 16.9377 57.2459C17.0195 57.1485 17.0621 57.0241 17.0573 56.897C17.0576 56.86 17.0503 56.8234 17.0359 56.7894C17.0215 56.7554 17.0004 56.7246 16.9737 56.699C16.947 56.6734 16.9155 56.6535 16.8809 56.6406C16.8463 56.6276 16.8094 56.6218 16.7725 56.6235C16.5646 56.6235 16.4777 56.7118 16.3353 56.897C15.908 57.4197 15.4807 57.5948 15.1047 57.5948C14.3314 57.5948 14.0793 56.8642 14.0793 56.1564C14.081 55.9586 14.0996 55.7614 14.1349 55.5668C14.1349 55.5668 14.8754 55.5568 15.3226 55.5127C16.3353 55.4044 17.5572 54.8917 17.5572 53.7794M10.1001 55.7149C10.1001 56.5537 9.70843 57.5891 8.00792 57.5891C7.10355 57.5891 7.13631 57.4795 7.13631 57.2616C7.14244 57.1656 7.15674 57.0703 7.17904 56.9767L7.71311 54.4374H8.6716C9.95339 54.4374 10.0958 55.0925 10.0958 55.7192M10.4989 52.0675C10.4989 53.147 9.8893 53.8122 8.69012 53.8122H7.85553L8.37822 51.3383C8.45513 51.0008 8.58473 51.0221 9.20568 51.0221C9.82664 51.0221 10.5031 51.0549 10.5031 52.0675M12.0399 51.9593C12.0399 50.1505 10.1001 50.3243 8.95645 50.3243H7.22319C6.97253 50.3243 6.54669 50.3684 6.54669 50.7601C6.54669 50.9239 6.6236 51.0549 6.77599 51.0549C6.89562 51.0549 6.96113 51.2073 6.90701 51.4579L5.69786 57.1548C5.62095 57.4923 5.50132 57.5578 5.39166 57.5692C5.13103 57.6005 5 57.7301 5 57.8939C5 58.2215 5.19654 58.297 5.52268 58.297H8.24719C10.3835 58.297 11.6653 57.3271 11.6653 55.8246C11.6653 54.9957 11.2295 54.3633 10.1499 54.134V54.0585C11.0985 53.8079 12.0356 53.1969 12.0356 51.955" fill="white"/>
</g>
<defs>
<clipPath id="clip0_388_234">
<rect width="76.3061" height="55" fill="white" transform="translate(5 6)"/>
</clipPath>
</defs>
</svg>
