<svg width="48" height="77" viewBox="0 0 48 77" fill="none" xmlns="http://www.w3.org/2000/svg">
<path d="M40 73C44.4183 73 48 69.4183 48 65L48 -11L1.00169e-06 -11L9.5399e-08 65C4.27116e-08 69.4183 3.58172 73 8 73L40 73Z" fill="#FB610A"/>
<g clip-path="url(#clip0_394_274)">
<path d="M13 43.7569C13 44.2363 13.3886 44.6249 13.8681 44.6249H34.1319C34.6114 44.6249 35 44.2363 35 43.7569C35 43.2774 34.6114 42.8888 34.1319 42.8888H13.8681C13.3886 42.8888 13 43.2774 13 43.7569ZM13 39.4166C13 39.896 13.3886 40.2846 13.8681 40.2846H34.1319C34.6114 40.2846 35 39.896 35 39.4166C35 38.9372 34.6114 38.5485 34.1319 38.5485H13.8681C13.3886 38.5485 13 38.9372 13 39.4166ZM13.8681 34.2083C13.3886 34.2083 13 34.5969 13 35.0763C13 35.5557 13.3886 35.9444 13.8681 35.9444H34.1319C34.6114 35.9444 35 35.5557 35 35.0763C35 34.5969 34.6114 34.2083 34.1319 34.2083H13.8681Z" fill="white"/>
</g>
<mask id="mask0_394_274" style="mask-type:alpha" maskUnits="userSpaceOnUse" x="0" y="55" width="48" height="22">
<path d="M1.25794 60.5196C0.0754766 62.3862 0 65.9326 0 66.3325V76.6785H47.9528V74.0653C48.0283 72.9899 48.0686 70.3323 47.6258 68.3057C47.0723 65.7726 45.0847 64.8926 43.0468 64.5727C41.4166 64.3167 39.2143 65.3193 38.317 65.8526C36.9919 66.5903 33.9242 67.8738 32.2537 67.1058C30.1655 66.1459 29.6372 63.9327 30.5932 62.3595C31.5492 60.7863 34.1154 61.2396 34.3419 62.6795C34.5683 64.1194 33.0588 64.4127 32.5556 63.9327C32.0524 63.4527 33.26 62.8395 32.2537 62.6795C31.4486 62.5515 31.3815 63.7816 31.4486 64.4127C31.7002 64.9015 32.5304 65.8313 33.8387 65.6393C35.474 65.3993 37.4616 63.3194 35.9269 61.2396C34.3922 59.1597 32.6814 59.1064 30.9706 59.373C29.2598 59.6397 26.7691 61.8262 25.3853 63.6394C24.0016 65.4526 21.4857 66.5992 19.7497 66.1192C18.0138 65.6393 17.5609 63.9327 18.1899 62.9994C18.8188 62.0662 19.7497 61.8795 20.2026 62.5728C20.6554 63.2661 19.5736 62.8395 19.7497 63.6927C19.9258 64.546 20.6554 64.146 20.8316 64.146C21.0077 64.146 22.7939 62.3862 20.8316 61.2396C19.2616 60.3223 17.3261 61.5151 16.5545 62.2262C15.7998 62.9106 13.6663 64.6793 11.1705 66.2792C8.67478 67.8791 6.89353 66.5014 6.31488 65.6126C5.44941 63.4154 6.20586 62.0128 6.69226 61.5862C7.02771 61.5862 7.76906 61.4422 8.05084 60.8663C8.33262 60.2903 9.5436 60.413 10.1139 60.5463C10.0887 60.6441 10.1592 60.8769 10.6422 61.0262C11.1253 61.1756 11.6318 60.5907 11.8247 60.2796L12.1014 59.2664L11.5982 58.6264C11.6318 58.5553 11.2209 58.2371 9.30879 57.5332C7.39671 56.8292 6.19747 56.7777 5.83686 56.8399C5.97943 56.2266 6.22934 55 6.08845 55C5.94756 55 5.1408 56.2266 4.75503 56.8399C3.52224 57.4532 2.44041 58.6531 1.25794 60.5196Z" fill="#D9D9D9"/>
</mask>
<g mask="url(#mask0_394_274)">
<path d="M-0.0755615 33.6414H48.0282V69.6664C48.0282 71.8095 46.3392 73.5718 44.1981 73.6628L24.5 74.5L3.76181 73.6561C1.61771 73.5689 -0.0755615 71.8053 -0.0755615 69.6595V33.6414Z" fill="#313131"/>
</g>
<defs>
<clipPath id="clip0_394_274">
<rect width="22" height="25" fill="white" transform="translate(13 29)"/>
</clipPath>
</defs>
</svg>
