<svg width="20" height="20" viewBox="0 0 20 20" fill="none" xmlns="http://www.w3.org/2000/svg">
<path fill-rule="evenodd" clip-rule="evenodd" d="M10.4462 0.0390657C10.8828 0.109589 11.6043 0.405847 11.9433 0.653785C12.0581 0.737702 12.3809 0.887711 12.6607 0.987237C13.3529 1.23332 13.9229 1.51562 14.4631 1.87993C14.9285 2.1937 15.5733 2.73481 15.7805 2.98553C15.8448 3.06331 16.0819 3.25134 16.3073 3.40346C17.4528 4.17628 18.4818 5.81119 18.9256 7.56344C18.9658 7.72211 19.08 8.03506 19.1794 8.25889C19.5231 9.0332 19.8271 10.0992 19.9268 10.8804C20.2022 13.0375 19.7139 14.5338 18.231 16.0765C17.6792 16.6507 16.94 17.2148 16.4622 17.4265C16.3541 17.4744 16.2093 17.5424 16.1403 17.5776C15.7265 17.7885 14.4206 18.1174 14.3648 18.0248C14.3519 18.0033 14.5199 17.9569 14.738 17.9217C15.9629 17.7238 17.1048 17.0829 18.147 16.0085C19.0524 15.0752 19.5655 14.1701 19.7835 13.1218C19.8913 12.6035 19.9053 11.3135 19.8097 10.7007C19.743 10.2728 19.414 9.10429 19.2585 8.74312L19.1588 8.51131L19.1662 9.15523C19.1703 9.50939 19.1563 9.91507 19.135 10.0567C19.0587 10.5662 18.8351 11.3035 18.5884 11.8597C18.3331 12.4352 18.25 12.6573 18.049 13.3021C17.9363 13.6635 17.6815 14.2488 17.5107 14.5385C17.098 15.2384 16.1496 16.2796 15.5397 16.7021C15.0489 17.0421 14.1008 17.9991 14.2224 18.0319C14.2824 18.048 14.2719 18.0571 14.1885 18.0612C14.1222 18.0645 13.8513 18.1807 13.5865 18.3195C12.8507 18.7052 12.3341 18.8281 11.1988 18.8879C10.7072 18.9138 10.318 18.96 10.1947 19.0072C9.70576 19.1944 8.62144 19.2818 7.79934 19.2002C7.00212 19.121 6.01884 18.8439 5.37363 18.5165C5.03154 18.3429 4.33094 17.9507 4.30069 17.9158C4.2869 17.8999 4.12887 17.8077 3.94952 17.7109C2.68745 17.0296 1.44043 15.7507 0.844339 14.5264C0.40818 13.6306 0.264902 12.6523 0.384201 11.3843L0.443449 10.7543L0.290186 10.251C-0.00414658 9.28453 -0.0643005 8.61665 0.0633774 7.7337C0.214733 6.68688 0.648031 5.83916 1.50705 4.90912C1.73186 4.66571 1.89952 4.41891 2.03472 4.13229C3.02834 2.02556 5.09846 0.633952 7.41109 0.517994C7.87464 0.494761 8.0866 0.461586 8.22381 0.390908C8.85557 0.0654925 9.74158 -0.0747808 10.4462 0.0390657ZM8.97181 0.197678C8.74033 0.256765 8.48262 0.347688 8.39914 0.39982L8.24739 0.494606L8.36854 0.520827C8.48167 0.545245 9.21592 0.579347 10.6469 0.626534C10.978 0.637455 11.3166 0.658164 11.3994 0.672536C11.4822 0.686909 11.6515 0.713593 11.7757 0.731829L12.0014 0.765056L11.7809 0.625555C11.4795 0.434901 10.8604 0.18923 10.4964 0.115925C10.0921 0.0344294 9.48382 0.0670379 8.97181 0.197678ZM7.88643 0.657443C7.86531 0.692575 7.90314 0.698963 7.99635 0.675936C8.18859 0.628543 8.20675 0.603868 8.04953 0.603868C7.97753 0.603868 7.90419 0.627977 7.88643 0.657443ZM6.13974 0.805598C4.79881 1.15131 3.614 1.95988 2.77534 3.10159C2.43315 3.56748 2.01606 4.30223 2.06517 4.35271C2.08147 4.36941 2.16786 4.31465 2.25711 4.23099C2.48337 4.0188 2.67852 3.88543 3.02448 3.70642C3.30948 3.55893 4.33727 3.17958 4.45185 3.17958C4.5724 3.17958 4.85996 2.92335 5.26958 2.45086C5.76238 1.88245 6.37513 1.38791 6.97298 1.07615C7.37628 0.865818 7.48007 0.805701 7.68646 0.6628C7.87168 0.53453 6.81169 0.632407 6.13974 0.805598ZM9.43034 0.690875C9.47865 0.703857 9.55762 0.703857 9.60593 0.690875C9.65424 0.677945 9.61471 0.667333 9.51814 0.667333C9.42156 0.667333 9.38203 0.677945 9.43034 0.690875ZM8.25386 0.71076C7.56862 0.853557 7.01045 1.17284 6.50893 1.70885L6.33419 1.89564L6.53888 1.82146C6.65145 1.78066 6.83627 1.69875 6.9496 1.63941C7.22668 1.49424 7.61959 1.34861 8.00548 1.24805C8.18066 1.20241 8.36127 1.1425 8.40682 1.11489C8.45242 1.08733 8.6703 0.997952 8.89104 0.916353C9.26348 0.778604 9.28154 0.765417 9.14188 0.732911C9.0591 0.713645 8.9688 0.690154 8.94121 0.680676C8.83329 0.64374 8.50715 0.658009 8.25386 0.71076ZM10.6469 0.758411C10.664 0.786744 10.7161 0.810131 10.7627 0.81044C10.8094 0.810698 10.9688 0.868857 11.117 0.939689C11.2651 1.01052 11.5473 1.0932 11.7441 1.12344C11.9408 1.15368 12.2131 1.21143 12.3492 1.25176C12.717 1.36077 12.7791 1.3465 12.6034 1.1934C12.3747 0.99414 12.1497 0.907441 11.6001 0.806989C11.0275 0.702363 10.6001 0.680573 10.6469 0.758411ZM9.77805 0.786537C9.76927 0.793852 9.89244 0.849952 10.0518 0.911202C10.3223 1.01511 10.8846 1.07244 10.9522 1.003C10.9799 0.974513 10.6716 0.866797 10.2707 0.764902C10.1227 0.727296 9.83394 0.739969 9.77805 0.786537ZM8.94642 0.991307C8.84102 1.03654 8.76286 1.07795 8.77274 1.08341C8.78263 1.08882 9.08418 1.08135 9.44288 1.06683C10.1072 1.03988 10.1068 1.04009 9.76897 0.895542C9.64887 0.844182 9.15552 0.90162 8.94642 0.991307ZM12.5784 1.08269C12.5784 1.13956 13.1005 1.4792 13.3058 1.5558C13.7275 1.71318 14.4387 2.09557 14.8525 2.38739C15.0685 2.53977 15.2673 2.66444 15.2942 2.66444C15.3499 2.66444 14.8366 2.24182 14.4597 1.97734C13.944 1.6155 12.5784 0.966065 12.5784 1.08269ZM10.7836 1.18979C10.8312 1.22688 11.0683 1.30915 11.3104 1.37251C11.5525 1.43593 11.8391 1.52211 11.9474 1.56409C12.129 1.63457 12.1389 1.63395 12.076 1.55601C11.8954 1.33264 11.3632 1.14714 10.8476 1.12792C10.7133 1.12287 10.7064 1.12957 10.7836 1.18979ZM11.8258 1.2462C11.8258 1.25949 11.9557 1.35531 12.1143 1.45911C12.2729 1.56291 12.4141 1.66218 12.4279 1.67964C12.5582 1.8449 12.8397 1.969 13.3274 2.07635C13.3944 2.09108 13.4678 2.11488 13.4904 2.12926C13.513 2.14363 13.5316 2.12204 13.5316 2.0813C13.5316 1.95998 13.0215 1.54988 12.7528 1.45514C12.6155 1.40672 12.3564 1.33666 12.177 1.29941C11.9977 1.26217 11.8453 1.22956 11.8384 1.22688C11.8315 1.2242 11.8258 1.23291 11.8258 1.2462ZM9.21552 1.3008C8.6556 1.35216 8.68681 1.42645 9.2686 1.42732C9.55907 1.42774 9.97672 1.44937 10.1967 1.47539C10.4167 1.5014 10.7548 1.53617 10.9479 1.55266C11.262 1.5795 11.2891 1.57476 11.2047 1.50763C11.0501 1.38472 10.0591 1.21957 9.69372 1.25578C9.61094 1.26402 9.39578 1.28427 9.21552 1.3008ZM6.29195 1.60464C5.98553 1.83047 5.29477 2.5099 5.37157 2.5099C5.3933 2.5099 5.48505 2.45194 5.57551 2.38111C5.66596 2.31028 5.76373 2.25232 5.79288 2.25232C5.82198 2.25232 6.05686 2.04086 6.31488 1.78246C6.81118 1.28535 6.80371 1.2274 6.29195 1.60464ZM11.876 1.68567C11.9174 1.71312 11.9738 1.73558 12.0014 1.73558C12.029 1.73558 12.0177 1.71312 11.9764 1.68567C11.935 1.65821 11.8785 1.63575 11.8509 1.63575C11.8233 1.63575 11.8346 1.65821 11.876 1.68567ZM13.5499 1.969C13.7117 2.12483 13.8762 2.25232 13.9154 2.25232C13.9547 2.25232 14.193 2.33408 14.445 2.43401C14.6969 2.5339 14.9256 2.60798 14.9531 2.59855C15.0744 2.55703 13.5295 1.68567 13.3346 1.68567C13.289 1.68567 13.3799 1.80523 13.5499 1.969ZM7.6527 1.7939C7.60619 1.8194 7.52286 1.84021 7.46753 1.84021C7.41214 1.84021 7.35265 1.8638 7.33534 1.8926C7.28688 1.97307 7.83932 1.89198 8.10877 1.77906L8.33919 1.68252L8.03819 1.71508C7.87263 1.73296 7.69915 1.76845 7.6527 1.7939ZM8.96774 1.84248C8.83134 1.91697 9.30914 1.96838 9.99056 1.95251C10.4046 1.94283 10.4388 1.90671 10.1286 1.80652C9.93433 1.74383 9.10119 1.76964 8.96774 1.84248ZM11.5524 2.03947C11.6182 2.10108 11.962 2.1648 11.8995 2.10376C11.8506 2.056 11.7126 2.0118 11.5775 2.00073C11.5334 1.99712 11.5235 2.01237 11.5524 2.03947ZM12.6536 2.17933C12.764 2.25073 12.9672 2.36854 13.1051 2.44118L13.356 2.57321L13.2106 2.4149C13.0507 2.24073 12.7102 2.05193 12.5533 2.05044C12.4801 2.04972 12.5073 2.08465 12.6536 2.17933ZM10.6323 2.12287C10.6403 2.12962 10.7485 2.14827 10.8727 2.16434C11.0758 2.19066 11.0866 2.18706 10.9803 2.12812C10.8876 2.07671 10.5714 2.07197 10.6323 2.12287ZM10.0073 2.08037C10.0417 2.09469 10.0982 2.09469 10.1327 2.08037C10.1672 2.0661 10.139 2.05441 10.07 2.05441C10.001 2.05441 9.97275 2.0661 10.0073 2.08037ZM7.9981 2.14456C7.58723 2.214 7.60062 2.29755 8.02023 2.28236C8.34301 2.27066 8.61512 2.1972 8.61512 2.12174C8.61512 2.08578 8.27077 2.09855 7.9981 2.14456ZM13.3922 2.26706C13.4673 2.3298 13.6444 2.44741 13.7858 2.52849C13.9982 2.65032 14.034 2.65913 13.9924 2.57944C13.8849 2.37312 13.5856 2.19514 13.2807 2.1562C13.2669 2.15445 13.3171 2.20431 13.3922 2.26706ZM11.4747 2.20081C11.5161 2.22827 11.5838 2.25073 11.6252 2.25073C11.6921 2.25073 11.6921 2.24522 11.6252 2.20081C11.5838 2.17335 11.5161 2.15089 11.4747 2.15089C11.4078 2.15089 11.4078 2.1564 11.4747 2.20081ZM8.89104 2.20081C8.82131 2.23156 8.8949 2.24619 9.13229 2.24872C9.34807 2.25098 9.46245 2.23337 9.44288 2.20081C9.40556 2.13879 9.03156 2.13879 8.89104 2.20081ZM6.73383 2.35535C6.69435 2.42093 6.81058 2.42093 6.90941 2.35535C6.97057 2.31476 6.9641 2.30528 6.87475 2.30461C6.8143 2.3042 6.75088 2.32702 6.73383 2.35535ZM14.0991 2.55136C14.1732 2.6308 14.2339 2.71291 14.2339 2.73383C14.2339 2.79121 14.3695 2.92124 14.8096 3.28585C15.0297 3.46816 15.3458 3.75273 15.512 3.91824C15.6782 4.08371 16.0174 4.38228 16.2657 4.5817C16.514 4.78116 16.9507 5.17895 17.236 5.46573L17.7549 5.98711L17.5776 5.62084C17.2768 4.99953 16.712 4.18699 16.2271 3.67814C15.7072 3.13255 15.5641 3.03158 14.8861 2.7312C14.1894 2.42263 14.1676 2.41418 14.0615 2.41037C13.9749 2.40723 13.979 2.42268 14.0991 2.55136ZM6.20707 2.5099C6.11536 2.57073 6.19457 2.57073 6.33249 2.5099C6.39866 2.48069 6.40719 2.46467 6.35757 2.46281C6.31618 2.46121 6.24846 2.48244 6.20707 2.5099ZM10.2456 2.61292C10.3008 2.63729 10.4023 2.65846 10.4713 2.66001C10.5702 2.66227 10.5808 2.65228 10.5215 2.61292C10.4801 2.58547 10.3785 2.56424 10.2957 2.56584C10.1665 2.56826 10.1594 2.57491 10.2456 2.61292ZM9.10671 2.62343L8.84087 2.68546L9.09171 2.72193C9.42507 2.77045 9.93959 2.77607 10.0504 2.73244C10.1222 2.70416 10.106 2.68499 9.96673 2.63332C9.74168 2.54982 9.43726 2.54632 9.10671 2.62343ZM8.24668 2.61694C7.95531 2.70003 8.05158 2.71982 8.36558 2.64141C8.51664 2.60365 8.59505 2.57037 8.53986 2.56739C8.48468 2.5644 8.35274 2.5867 8.24668 2.61694ZM13.8353 2.79662C14.0235 2.9966 14.3246 3.20663 14.3644 3.16572C14.3871 3.14249 13.7374 2.61457 13.6848 2.61344C13.6724 2.61313 13.7401 2.6956 13.8353 2.79662ZM6.78851 2.76798C6.75555 2.80183 6.80075 2.79956 6.91057 2.76185C7.14234 2.68221 7.22497 2.60108 7.00975 2.66444C6.91689 2.69179 6.81736 2.73836 6.78851 2.76798ZM6.383 2.66387C6.36545 2.69303 6.38556 2.70168 6.43021 2.68412C6.5171 2.64986 6.53301 2.61292 6.46086 2.61292C6.43488 2.61292 6.39986 2.63585 6.383 2.66387ZM5.89191 2.78524C5.72159 2.85834 5.55157 3.02504 5.6474 3.02504C5.74668 3.02504 6.0517 2.85478 6.07788 2.78478C6.10989 2.69911 6.09253 2.69916 5.89191 2.78524ZM10.7974 2.81898C10.8145 2.84731 10.8499 2.8705 10.8762 2.8705C10.9024 2.8705 11.0196 2.91428 11.1366 2.96781C11.4849 3.12724 11.7867 3.23692 11.8103 3.2127C11.852 3.1699 11.0484 2.77865 10.9073 2.77308C10.8251 2.76978 10.7793 2.7889 10.7974 2.81898ZM11.5499 2.92201C11.567 2.95034 11.6078 2.97316 11.6407 2.97275C11.6766 2.97224 11.6704 2.95199 11.6252 2.92201C11.5288 2.85803 11.5114 2.85803 11.5499 2.92201ZM10.4212 3.00551C10.5453 3.04879 10.8211 3.15197 11.0341 3.23491C11.4344 3.39079 11.575 3.41819 11.575 3.34046C11.575 3.22754 10.704 2.93643 10.3459 2.92974C10.2141 2.92726 10.2234 2.93669 10.4212 3.00551ZM7.94628 3.05966C7.86752 3.10143 7.81208 3.14491 7.82307 3.15619C7.83411 3.16747 8.02243 3.17948 8.24162 3.18288C8.54292 3.18757 8.69413 3.16392 8.86129 3.08593C9.05529 2.99542 9.06758 2.98058 8.96162 2.96466C8.71354 2.92742 8.08444 2.9863 7.94628 3.05966ZM11.7255 2.99604C11.7255 3.05945 12.425 3.48867 12.5283 3.48867C12.6955 3.48867 12.6193 3.42232 12.1724 3.17876C11.8151 2.98403 11.7255 2.94741 11.7255 2.99604ZM12.3275 3.04312C12.3275 3.07521 12.8414 3.39022 12.861 3.37013C12.8899 3.34051 12.7219 3.19653 12.5532 3.10617C12.4075 3.02818 12.3275 3.00582 12.3275 3.04312ZM9.08358 3.11174C8.93629 3.15939 8.81579 3.21446 8.81579 3.23413C8.81579 3.31676 9.59519 3.46533 9.84422 3.43009C9.98219 3.41062 10.2305 3.39099 10.3961 3.38651C10.9473 3.37163 10.9398 3.31125 10.3688 3.16742C9.74018 3.00912 9.44068 2.99614 9.08358 3.11174ZM6.9345 3.23109C6.87124 3.25902 6.86201 3.27535 6.90941 3.27535C6.9508 3.27535 7.02982 3.25546 7.085 3.23109C7.14826 3.20317 7.15749 3.18684 7.11009 3.18684C7.0687 3.18684 6.98968 3.20673 6.9345 3.23109ZM5.26426 3.3794C5.24841 3.42824 5.28298 3.42432 5.39565 3.36452C5.60942 3.25098 5.65005 3.16042 5.44948 3.24444C5.35948 3.2822 5.2761 3.34288 5.26426 3.3794ZM13.4061 3.28261C13.4232 3.31094 13.464 3.33376 13.4969 3.33335C13.5328 3.33284 13.5266 3.31259 13.4814 3.28261C13.385 3.21863 13.3677 3.21863 13.4061 3.28261ZM7.49773 3.30368C7.41255 3.37003 7.41255 3.37394 7.49773 3.39568C7.70161 3.44766 8.13802 3.44431 8.0875 3.3912C8.04742 3.34901 7.77325 3.26066 7.61176 3.23789C7.59797 3.23594 7.54664 3.26556 7.49773 3.30368ZM8.54237 3.37863C8.67893 3.50603 9.2673 3.59989 9.2673 3.49423C9.2673 3.44472 8.88381 3.35014 8.64271 3.3402C8.55662 3.33665 8.51463 3.35272 8.54237 3.37863ZM3.52309 3.59216C3.44032 3.62822 3.29358 3.69246 3.197 3.73501C2.92479 3.85483 2.39442 4.22074 2.12883 4.47192C1.84885 4.73675 1.72072 5.06315 1.51694 6.031C1.34045 6.86919 1.34797 6.91787 1.5967 6.54944C1.70988 6.38181 1.8641 6.17513 1.9394 6.09014C2.01465 6.00514 2.18567 5.77332 2.31942 5.57499C2.45317 5.37666 2.62946 5.13326 2.71113 5.03409C3.11759 4.54084 3.60728 3.99474 3.92258 3.68308L4.2731 3.33654L3.97335 3.43159C3.8085 3.48382 3.60587 3.5561 3.52309 3.59216ZM13.2347 3.51504C13.3023 3.58448 13.6319 3.71342 13.6319 3.67041C13.6319 3.63172 13.3003 3.4388 13.2324 3.43803C13.1689 3.43725 13.1692 3.44776 13.2347 3.51504ZM9.99914 3.5203C9.87152 3.54801 9.9254 3.57959 10.4256 3.77004C11.1044 4.02854 11.5257 4.24036 11.9968 4.56006C12.3689 4.81253 12.9797 5.37198 12.9797 5.46027C12.9797 5.48984 12.8386 5.37558 12.6662 5.20636C12.0131 4.56547 11.2408 4.13337 9.86931 3.64156C9.66156 3.56707 9.21628 3.5594 9.21813 3.63033C9.21873 3.65155 9.43882 3.77725 9.70727 3.90959C10.462 4.28162 11.0789 4.73062 11.7419 5.39062C12.7413 6.38531 13.3412 7.20686 13.8327 8.25373C14.476 9.62386 14.8658 11.3039 14.8905 12.8127L14.896 13.1476L15.0197 12.7612C15.0878 12.5487 15.1849 12.1662 15.2355 11.9112C15.3209 11.4807 15.3412 11.2926 15.4159 10.2316C15.4491 9.76017 15.3649 8.52429 15.2584 7.91889C15.1583 7.34981 15.0612 7.04634 14.8651 6.68966C14.7773 6.52991 14.6917 6.36445 14.6749 6.32195C14.5314 5.95836 13.6397 4.88728 13.1145 4.44776C12.7022 4.10272 11.5465 3.51607 11.1988 3.47532C10.9915 3.45101 10.1775 3.48151 9.99914 3.5203ZM11.7757 3.54018C11.8171 3.56764 11.8848 3.5901 11.9262 3.5901C11.9931 3.5901 11.9931 3.58459 11.9262 3.54018C11.8848 3.51272 11.8171 3.49026 11.7757 3.49026C11.7088 3.49026 11.7088 3.49577 11.7757 3.54018ZM6.71807 3.78487C6.29953 4.09221 5.93395 4.40047 5.68778 4.65382C5.53 4.81619 5.33314 5.08561 5.37232 5.08561C5.38607 5.08561 5.53999 4.98825 5.71437 4.8693C5.8888 4.7503 6.21936 4.55202 6.44897 4.4287C6.67859 4.30532 6.97207 4.12775 7.10116 4.03405C7.23024 3.94039 7.44651 3.79827 7.58171 3.71827C7.79026 3.59484 7.81314 3.56692 7.73221 3.53436C7.67979 3.51319 7.52091 3.49428 7.37918 3.49227C7.1433 3.48898 7.08751 3.51365 6.71807 3.78487ZM6.46839 3.60416C6.43247 3.63476 6.35742 3.72558 6.30168 3.80599C6.20135 3.9507 6.2033 3.95023 6.50416 3.75906C6.67127 3.65284 6.80823 3.54605 6.80853 3.52174C6.80923 3.46713 6.55764 3.52807 6.46839 3.60416ZM12.131 3.56022C12.1921 3.61884 12.624 3.94081 12.754 4.02462L12.9045 4.12167L12.779 3.97852C12.6083 3.78353 12.2791 3.54018 12.1862 3.54018C12.1444 3.54018 12.1195 3.5492 12.131 3.56022ZM7.66379 3.77905C7.3091 3.99603 7.30092 4.06465 7.64788 3.91309C7.77977 3.85545 8.02314 3.78018 8.18869 3.74582C8.58426 3.66366 8.63328 3.62441 8.38936 3.5852C8.10867 3.54008 8.01245 3.56578 7.66379 3.77905ZM5.77096 3.93189C5.19839 4.36982 4.77011 4.81026 4.5264 5.21182C4.40228 5.41633 4.30069 5.59627 4.30069 5.61167C4.30069 5.62707 4.48692 5.44353 4.71458 5.20378C4.94224 4.96403 5.27656 4.655 5.45756 4.51705C5.74317 4.29929 6.20506 3.8131 6.32928 3.59942C6.39239 3.49083 6.19026 3.61117 5.77096 3.93189ZM16.4218 3.65609C16.4419 3.69153 16.5406 3.8248 16.6412 3.95229C17.0025 4.41031 17.5671 5.32798 17.8298 5.88408C18.1016 6.4596 18.7051 7.40998 18.7369 7.31242C18.7631 7.23149 18.4137 6.29872 18.1825 5.83256C17.7919 5.04507 17.1765 4.21904 16.6497 3.77529C16.4189 3.58083 16.3622 3.5512 16.4218 3.65609ZM12.6476 3.65913C13.1588 3.9915 13.733 4.39805 13.8446 4.50659C13.9202 4.5801 13.9949 4.62703 14.0106 4.6109C14.051 4.56938 13.169 3.77869 12.9697 3.67783C12.8786 3.63177 12.7477 3.59489 12.6787 3.59592C12.5622 3.59762 12.56 3.6021 12.6476 3.65913ZM15.1869 3.8233C15.2516 3.89403 15.3156 3.94055 15.3291 3.92664C15.3624 3.89243 15.1845 3.69472 15.1204 3.69472C15.0923 3.69472 15.1222 3.75257 15.1869 3.8233ZM14.7788 3.8537C14.9552 4.00056 15.0345 3.96981 14.8678 3.81923C14.7887 3.74783 14.7097 3.7042 14.6922 3.72228C14.6747 3.74031 14.7136 3.79945 14.7788 3.8537ZM8.51478 3.76978C8.1003 3.85246 7.61467 3.99289 7.53651 4.0527C7.50892 4.07382 7.36378 4.13125 7.21403 4.1803C6.44852 4.43096 4.75888 6.23865 4.22509 7.37799C3.92975 8.00853 3.69437 9.03758 3.62343 10.0086C3.54371 11.0996 3.9131 12.8238 4.34554 13.3794C4.62924 13.7439 5.35146 14.452 5.66245 14.6707C5.81812 14.7801 5.97614 14.8995 6.01362 14.9359C6.05105 14.9723 6.18324 15.0583 6.3074 15.127C6.43157 15.1957 6.54444 15.2665 6.55824 15.2843C6.58307 15.3162 6.67608 15.3628 7.21042 15.6105C7.37061 15.6848 7.68626 15.7659 7.96294 15.8039C8.22506 15.8399 8.47339 15.8881 8.51478 15.9111C8.55617 15.934 8.47715 15.9385 8.33919 15.921C7.92044 15.8677 8.1177 15.9539 8.8492 16.1437C9.49571 16.3114 9.61536 16.326 10.5967 16.3563C12.1209 16.4034 12.2793 16.3941 12.577 16.2392C12.8457 16.0994 12.9053 16.0273 12.7109 16.0775C12.581 16.1109 12.0567 16.1879 11.6252 16.2368C11.4734 16.2541 11.2871 16.2807 11.2113 16.296C11.1354 16.3113 11.0733 16.3038 11.0733 16.2793C11.0733 16.2547 10.8871 16.2282 10.6595 16.2203C10.4318 16.2123 10.1553 16.1869 10.0449 16.1637C9.84673 16.122 9.84769 16.1215 10.1201 16.1223C10.2719 16.1227 10.5654 16.1375 10.7723 16.155C11.4304 16.2108 12.0926 16.0464 12.9458 15.6153C13.6839 15.2424 13.9593 14.9957 14.3281 14.3775C14.545 14.0139 14.5997 13.538 14.5337 12.5874C14.4594 11.5162 14.3479 10.8765 14.049 9.8054C13.7263 8.64916 13.1601 7.40123 12.5859 6.58107C12.4576 6.39773 12.3157 6.18909 12.2707 6.11744C11.8469 5.44343 10.1738 4.17066 9.24577 3.8164C8.87529 3.67494 8.96253 3.68051 8.51478 3.76978ZM14.1949 4.48032C14.8866 5.18024 15.4048 5.79202 15.788 6.36126C15.9074 6.53867 16.0146 6.67426 16.026 6.66246C16.0688 6.61857 15.8151 6.07963 15.6109 5.78023C15.1591 5.11806 14.1278 3.98959 13.8687 3.87389C13.4722 3.69689 13.5338 3.81135 14.1949 4.48032ZM5.52423 3.89589C5.43835 3.94962 5.31538 4.06964 5.25097 4.16258C5.11647 4.35653 5.17271 4.32902 5.5443 4.01906C5.81586 3.79255 5.80412 3.72063 5.52423 3.89589ZM3.59834 4.2399C3.43239 4.41927 3.41242 4.45461 3.52309 4.37342C3.73013 4.22151 3.80774 4.15088 3.92443 4.00834L4.02477 3.88579L3.92443 3.94086C3.86925 3.9711 3.72251 4.1057 3.59834 4.2399ZM12.9797 4.02653C12.9797 4.03904 13.0023 4.06356 13.0299 4.08108C13.0575 4.09859 13.08 4.08834 13.08 4.05836C13.08 4.02838 13.0575 4.00381 13.0299 4.00381C13.0023 4.00381 12.9797 4.01401 12.9797 4.02653ZM14.5002 4.32783C14.6159 4.44941 14.8629 4.71883 15.0491 4.92653C15.2354 5.13424 15.3878 5.28121 15.3878 5.25313C15.3878 5.14562 14.8758 4.48742 14.6481 4.30208C14.3263 4.04023 14.2407 4.05517 14.5002 4.32783ZM13.2866 4.32639C13.3799 4.42071 13.5353 4.55388 13.6319 4.62234C13.7285 4.6908 13.9373 4.87291 14.0959 5.02709C14.2546 5.18122 14.3844 5.29579 14.3844 5.28167C14.3844 5.16015 14.1736 4.89233 13.8939 4.6584C13.2742 4.14032 12.8996 3.9355 13.2866 4.32639ZM4.6174 4.70991C4.51682 4.85992 4.44733 4.99577 4.46299 5.01189C4.47869 5.02796 4.53322 4.98021 4.58424 4.90577C4.63521 4.83133 4.75722 4.6617 4.85525 4.52879C5.1112 4.182 5.1416 4.11086 4.9596 4.28492C4.87195 4.36868 4.71799 4.55996 4.6174 4.70991ZM15.6483 4.3555C15.6843 4.40727 15.8754 4.63326 16.0728 4.85776C16.2703 5.08226 16.5031 5.34704 16.5903 5.44621C16.8402 5.73051 16.6793 5.44976 16.3445 5.01704C16.1809 4.80563 15.9656 4.54914 15.8662 4.44704C15.6762 4.25185 15.5347 4.19245 15.6483 4.3555ZM5.87019 4.86538C5.33906 5.19647 5.12535 5.43863 4.80839 6.06876C4.65994 6.36383 4.56001 6.5821 4.58625 6.55376C4.61254 6.52543 4.82851 6.25642 5.0662 5.95594C5.3039 5.65551 5.68417 5.23242 5.91123 5.01581C6.13829 4.79919 6.30986 4.62198 6.29245 4.62198C6.27504 4.62198 6.08501 4.7315 5.87019 4.86538ZM4.70886 5.37306C4.19248 5.91906 3.94887 6.27868 3.94977 6.49365C3.95002 6.56056 3.97475 6.53187 4.65849 5.66937C4.92428 5.33416 5.22343 4.97995 5.32321 4.88233C5.42305 4.78466 5.50472 4.68565 5.50472 4.66221C5.50472 4.57247 5.25533 4.79522 4.70886 5.37306ZM16.4088 4.94394C16.7392 5.36682 17.7306 6.95202 17.8974 7.32437C18.063 7.69377 18.201 8.14293 18.3413 8.76888L18.3874 8.97493L18.3927 8.68383C18.3995 8.29809 18.2346 7.32473 18.0738 6.80217C17.9185 6.29712 17.654 5.96217 16.7674 5.14758C16.3375 4.75272 16.1969 4.67282 16.4088 4.94394ZM15.8588 5.19873C15.956 5.349 16.1075 5.5531 16.1954 5.65226L16.3553 5.83256L16.168 5.47196C15.9738 5.09828 15.7278 4.78492 15.6988 4.87425C15.6897 4.90242 15.7617 5.04847 15.8588 5.19873ZM3.01705 5.09524C2.82245 5.2794 2.65469 5.49772 2.70767 5.49772C2.7164 5.49772 2.85757 5.35863 3.02142 5.18864C3.36165 4.83556 3.35864 4.77189 3.01705 5.09524ZM1.33061 5.25303C0.537813 6.18698 0.161356 7.13181 0.104216 8.33101C0.0812874 8.81297 0.0954342 9.01949 0.180218 9.43856C0.293297 9.99734 0.476809 10.5833 0.486794 10.4173C0.569971 9.03361 0.73432 8.21072 1.07927 7.45073C1.21463 7.15246 1.28617 6.9121 1.30879 6.67951C1.33829 6.37594 1.58301 5.24865 1.66874 5.02121C1.73592 4.84298 1.59896 4.93689 1.33061 5.25303ZM3.55796 5.61626C3.35097 5.93147 3.18551 6.21892 3.211 6.21892C3.22319 6.21892 3.32699 6.07406 3.44157 5.89696C3.5562 5.7199 3.68915 5.51802 3.73701 5.44842C3.78492 5.37878 3.79616 5.33942 3.76204 5.3609C3.72793 5.38238 3.63607 5.49731 3.55796 5.61626ZM16.5112 5.89696C16.7889 6.46258 17.0935 6.9819 17.0935 6.89005C17.0935 6.75137 16.3815 5.44621 16.3059 5.44621C16.297 5.44621 16.3894 5.64907 16.5112 5.89696ZM3.46154 6.02373C3.32227 6.25859 3.15938 6.55505 3.09953 6.68255C2.99257 6.91035 2.99247 6.91215 3.09531 6.78558C3.15285 6.71475 3.29408 6.49452 3.40916 6.29619C3.5242 6.09786 3.659 5.88032 3.70866 5.81273C3.80057 5.68776 3.83363 5.52121 3.75682 5.56994C3.73365 5.58463 3.60075 5.78883 3.46154 6.02373ZM2.84418 5.67802C2.7761 5.77332 2.77715 5.77574 2.85837 5.71037C2.90663 5.67148 2.94617 5.61543 2.94617 5.58586C2.94617 5.55629 2.93979 5.54172 2.93197 5.55351C2.92414 5.56536 2.88466 5.62136 2.84418 5.67802ZM3.79224 6.14165C3.59428 6.54325 3.59303 6.54918 3.74207 6.37346C3.9132 6.17168 4.02121 5.9598 4.07017 5.72954C4.11422 5.52265 4.05171 5.61533 3.79224 6.14165ZM4.66867 5.92076C4.38899 6.31098 4.13805 6.76611 3.96231 7.20181C3.79315 7.62129 3.58992 8.23648 3.61279 8.25997C3.62644 8.27398 4.1982 7.11949 4.45782 6.55376C4.52284 6.4121 4.64946 6.16869 4.73926 6.01286C4.89312 5.74571 4.9301 5.65226 4.88189 5.65226C4.87045 5.65226 4.77453 5.77307 4.66867 5.92076ZM1.87152 6.6893C1.64381 7.13108 1.3408 7.86187 1.3408 7.96927C1.3408 8.05546 1.61456 7.55757 1.68866 7.33663C1.80906 6.97752 2.07942 6.38923 2.22551 6.16833C2.29078 6.06968 2.34415 5.96805 2.34415 5.94244C2.34415 5.84591 2.13977 6.1689 1.87152 6.6893ZM16.1842 6.4103C16.2677 6.60569 16.3603 6.83122 16.3901 6.91148C16.4198 6.99179 16.4543 7.04696 16.4667 7.03419C16.494 7.00621 16.2864 6.40777 16.1676 6.17184C16.016 5.87079 16.0281 6.04516 16.1842 6.4103ZM2.29002 6.31824C2.15833 6.62022 2.21843 6.57669 2.3738 6.25756C2.44619 6.10878 2.47755 6.01441 2.44343 6.04779C2.40937 6.08117 2.34034 6.20285 2.29002 6.31824ZM15.5032 6.74225C15.6536 7.03522 15.8399 7.39087 15.9171 7.53254C15.9943 7.6742 16.1316 7.97556 16.2221 8.20222C16.4168 8.6897 16.4348 8.66059 16.2717 8.1216C16.0703 7.45599 15.3509 6.08509 15.2548 6.18379C15.241 6.19796 15.3527 6.44924 15.5032 6.74225ZM14.8071 6.36182C14.8938 6.44682 14.8952 6.44543 14.8377 6.3304C14.8047 6.26425 14.7639 6.22423 14.7471 6.24148C14.7302 6.25874 14.7572 6.31288 14.8071 6.36182ZM17.2639 6.53615C17.3081 6.60095 17.3443 6.63691 17.3443 6.61604C17.3443 6.55861 17.2255 6.37527 17.2031 6.39824C17.1923 6.40927 17.2197 6.47134 17.2639 6.53615ZM16.4914 6.52801C16.521 6.58467 16.5564 6.63104 16.5702 6.63104C16.584 6.63104 16.5712 6.58467 16.5416 6.52801C16.5121 6.47134 16.4766 6.42498 16.4629 6.42498C16.4491 6.42498 16.4619 6.47134 16.4914 6.52801ZM3.19976 6.92657C2.99543 7.34873 2.69533 8.10439 2.69533 8.19681C2.69533 8.26306 3.22139 7.1928 3.37435 6.81535C3.61234 6.22819 3.50468 6.29681 3.19976 6.92657ZM3.44789 7.0297C3.39271 7.14984 3.34801 7.28892 3.34861 7.33879C3.35092 7.52537 3.6899 6.95841 3.77177 6.63104C3.80308 6.5058 3.80047 6.50653 3.67616 6.65679C3.60582 6.74179 3.50313 6.90962 3.44789 7.0297ZM1.34406 7.24684C1.34647 7.34276 1.39367 7.27579 1.51965 6.99782C1.73667 6.51904 1.73557 6.47938 1.51508 6.83472C1.41921 6.98921 1.34225 7.17467 1.34406 7.24684ZM15.0687 6.7727C15.0874 6.85059 15.1768 7.09286 15.2674 7.31102C15.5528 7.99869 15.6847 8.48096 15.8423 9.41281C15.9174 9.85691 15.902 11.1366 15.8148 11.693C15.7475 12.1227 15.57 12.8462 15.4612 13.1347C15.3871 13.3311 15.4939 13.207 15.6827 12.8771C15.9546 12.4023 16.0844 11.7608 16.122 10.7068C16.162 9.58363 16.0459 8.86696 15.6228 7.62639C15.5142 7.30798 15.1307 6.63104 15.0589 6.63104C15.0456 6.63104 15.05 6.69481 15.0687 6.7727ZM18.342 7.26193C18.632 8.1693 18.7726 9.51872 18.6547 10.2628C18.6233 10.4611 18.5846 10.7045 18.5687 10.8037C18.5529 10.9029 18.4985 11.1231 18.4479 11.2931C18.3294 11.6909 18.275 12.3023 18.3706 12.1611C18.4601 12.0289 18.7927 11.1105 18.9089 10.6749C19.1046 9.94129 19.0783 8.27887 18.8642 7.84332C18.7048 7.51919 18.2717 6.83972 18.2557 6.88876C18.2466 6.91684 18.2853 7.08477 18.342 7.26193ZM12.9935 7.07694C13.3451 7.6504 13.9006 8.97674 14.1122 9.74765C14.2355 10.1965 14.4782 11.3346 14.5078 11.6022C14.5234 11.7438 14.5583 12.0568 14.5853 12.2976C14.6123 12.5384 14.6364 12.9673 14.6389 13.2506C14.6431 13.73 14.6482 13.755 14.7123 13.6112C14.8072 13.3984 14.8065 12.2075 14.7111 11.4631C14.5257 10.0164 13.9567 8.43728 13.2174 7.31741C13.0458 7.05747 12.8979 6.85244 12.8888 6.86182C12.8796 6.87119 12.9268 6.96799 12.9935 7.07694ZM2.18913 7.12042C2.1488 7.2014 2.15989 7.19744 2.24101 7.10182C2.29775 7.03496 2.3438 6.95382 2.3434 6.92153C2.3426 6.86007 2.27617 6.94568 2.18913 7.12042ZM16.1504 7.22232C16.2104 7.3492 16.2682 7.44419 16.2786 7.43337C16.3014 7.41009 16.0986 6.99164 16.0647 6.99164C16.0518 6.99164 16.0904 7.09544 16.1504 7.22232ZM17.0888 7.34338C17.2668 7.68491 17.6024 9.36603 17.6893 10.3517L17.7269 10.7779L17.7683 10.5251C17.8256 10.1746 17.7706 9.05416 17.6732 8.58858C17.5916 8.19774 17.0962 7.06623 17.0574 7.18198C17.0461 7.21583 17.0602 7.28846 17.0888 7.34338ZM2.66959 7.7866C2.62855 7.92631 2.59539 8.0654 2.59584 8.09569C2.59665 8.1471 2.94386 7.30525 2.94501 7.24921C2.94682 7.15679 2.73064 7.57864 2.66959 7.7866ZM3.17583 8.13726C3.15807 8.25136 3.15256 8.35403 3.16359 8.36537C3.19495 8.39761 3.54838 7.52599 3.54667 7.42059C3.54416 7.26734 3.211 7.91122 3.17583 8.13726ZM2.4195 7.79577L2.3891 7.94465L2.46104 7.81586C2.50057 7.74503 2.54663 7.60594 2.56334 7.50678L2.59369 7.32648L2.5218 7.48669C2.48226 7.57483 2.43621 7.71392 2.4195 7.79577ZM0.994541 7.90437C0.833954 8.35244 0.712397 8.90184 0.645924 9.47967C0.605991 9.82683 0.657213 10.0133 0.716562 9.73688C0.733568 9.65781 0.801947 9.44799 0.868519 9.27057C0.935143 9.09321 0.989624 8.89493 0.989624 8.83002C0.989624 8.76507 1.04566 8.49292 1.11409 8.22525C1.24162 7.72674 1.28004 7.34204 1.19336 7.43208C1.16742 7.45897 1.07797 7.67152 0.994541 7.90437ZM17.5889 7.57205C17.6385 7.62253 17.6442 7.61661 17.617 7.5432C17.5981 7.49241 17.5701 7.46382 17.5547 7.47968C17.5392 7.4955 17.5546 7.53707 17.5889 7.57205ZM16.9756 8.00904C17.0401 8.25698 17.1261 8.69161 17.1666 8.97493C17.2732 9.72024 17.4628 10.64 17.4859 10.5237C17.5152 10.3766 17.4028 9.23694 17.3181 8.82039C17.2352 8.41327 16.936 7.55829 16.8764 7.55829C16.8665 7.55829 16.9111 7.76116 16.9756 8.00904ZM1.86345 7.87567C1.79326 8.0179 1.70346 8.32338 1.66383 8.55458C1.54884 9.2255 1.58687 9.28108 1.73998 8.66585C1.81759 8.35419 1.92906 7.97597 1.98776 7.82534C2.1186 7.48952 2.03788 7.52223 1.86345 7.87567ZM2.79601 8.26455C2.46576 9.03407 2.29399 9.70252 2.29399 10.2179C2.29399 10.4551 2.31174 10.6491 2.33347 10.6491C2.35519 10.6491 2.37822 10.5784 2.38464 10.4919C2.41098 10.1372 2.60472 9.2561 2.74655 8.84615C2.92289 8.33631 3.09185 7.7098 3.0449 7.73962C3.02703 7.75096 2.91506 7.98715 2.79601 8.26455ZM15.3902 8.34321C15.4234 8.54901 15.4569 9.1694 15.4647 9.72189C15.4844 11.1353 15.3687 11.9738 14.99 13.1624C14.8843 13.4943 14.7818 13.8585 14.7622 13.9718L14.7267 14.1779L14.8613 14.0491C15.0659 13.8534 15.2241 13.5446 15.415 12.968C15.8776 11.5712 15.9327 9.82549 15.5581 8.43512C15.3759 7.75894 15.2879 7.71077 15.3902 8.34321ZM16.0514 8.13644C16.0824 8.22777 16.1165 8.27542 16.1272 8.24235C16.146 8.18445 16.0582 7.97041 16.0157 7.97041C16.0043 7.97041 16.0204 8.0451 16.0514 8.13644ZM3.58937 8.66585C3.43114 9.07384 3.42953 9.08724 3.42617 10.0052C3.42401 10.5859 3.44709 11.048 3.48793 11.2416C3.72186 12.3509 3.76791 12.5427 3.82816 12.6582C3.92704 12.8478 3.91355 12.6826 3.79871 12.2976C3.44303 11.1054 3.45612 9.37968 3.82977 8.19099C3.90392 7.95511 3.73761 8.28372 3.58937 8.66585ZM1.36077 8.41271C1.32851 8.65797 1.41088 8.55339 1.46576 8.27949C1.49265 8.14514 1.48729 8.11346 1.4446 8.15514C1.41309 8.18594 1.37536 8.30185 1.36077 8.41271ZM3.17438 8.65421C3.0615 8.96211 3.047 9.07693 3.05082 9.63293C3.05503 10.2471 3.09266 10.291 3.17222 9.77449C3.18762 9.67476 3.22008 9.51197 3.24436 9.41281C3.26864 9.31364 3.30276 9.07024 3.32012 8.87191C3.33752 8.67358 3.36446 8.44176 3.37996 8.35676C3.42567 8.10697 3.31776 8.26311 3.17438 8.65421ZM16.5113 8.5893C16.5501 8.71638 16.5841 8.77568 16.5868 8.72102C16.5925 8.60764 16.476 8.24977 16.4548 8.31524C16.4471 8.33889 16.4725 8.46221 16.5113 8.5893ZM16.1731 8.41049C16.1895 8.45423 16.2136 8.47896 16.2268 8.46546C16.2399 8.45196 16.2358 8.41616 16.2176 8.38597C16.1681 8.30375 16.1392 8.31972 16.1731 8.41049ZM1.94773 8.84615C1.94732 8.88865 1.99027 8.84229 2.04315 8.74312C2.09602 8.64396 2.13897 8.50487 2.13857 8.43403C2.13801 8.33235 2.11795 8.35403 2.04315 8.53706C1.99102 8.66456 1.94808 8.80365 1.94773 8.84615ZM16.1424 8.91482C16.2171 9.46859 16.3038 10.9376 16.2822 11.2853C16.258 11.6762 16.2902 11.6446 16.4701 11.1014C16.6119 10.6733 16.6195 10.484 16.5155 9.96993C16.4335 9.56452 16.1445 8.56596 16.1179 8.59605C16.1091 8.60609 16.1201 8.74956 16.1424 8.91482ZM1.09613 9.07415C1.06513 9.20051 1.04115 9.40374 1.0428 9.52578C1.04576 9.74193 1.04832 9.73838 1.14183 9.38705C1.24523 8.99853 1.26695 8.77171 1.19646 8.81648C1.17228 8.83183 1.12713 8.94779 1.09613 9.07415ZM18.4453 10.1598C18.4148 10.4714 18.378 10.7786 18.3634 10.8423C18.3487 10.9061 18.3587 10.9582 18.3855 10.9582C18.4726 10.9582 18.5586 10.3813 18.5798 9.6543C18.5912 9.26295 18.5832 8.91523 18.5619 8.88159C18.5406 8.84795 18.5182 8.99425 18.512 9.20675C18.5058 9.41924 18.4758 9.8481 18.4453 10.1598ZM16.6077 9.01038C16.6237 9.05143 16.6356 9.03922 16.638 8.97921C16.6401 8.92491 16.6283 8.89452 16.6116 8.91162C16.595 8.92873 16.5932 8.97318 16.6077 9.01038ZM2.60016 9.72287C2.53955 9.99311 2.48106 10.4623 2.46867 10.7772L2.44639 11.3446L2.51698 10.8552C2.55581 10.586 2.63693 10.1688 2.69733 9.92795C2.75768 9.68712 2.81623 9.36258 2.82742 9.20675C2.84713 8.93125 2.84578 8.92775 2.7785 9.07966C2.74048 9.16559 2.66021 9.455 2.60016 9.72287ZM1.81483 10.0236L1.79597 10.6234L1.86425 10.0491C1.90182 9.73328 1.94692 9.39715 1.96443 9.30215L1.99624 9.12948L1.91497 9.2766C1.85687 9.38179 1.82833 9.5946 1.81483 10.0236ZM17.8035 11.087C17.7742 11.2287 17.6834 11.6112 17.6018 11.937C17.5201 12.2628 17.4387 12.6685 17.4208 12.8385C17.4029 13.0085 17.3759 13.2142 17.3609 13.2957C17.2834 13.7158 17.6372 13.0289 17.8882 12.2718C18.1585 11.4567 18.2034 10.1873 17.9878 9.45773C17.9239 9.24157 17.9199 9.26475 17.8891 10.031C17.8714 10.4701 17.8329 10.9454 17.8035 11.087ZM2.05855 9.45046C2.07129 9.50059 2.08253 9.47205 2.08353 9.38705C2.08453 9.30205 2.07415 9.26104 2.0604 9.29592C2.04666 9.3308 2.0458 9.40034 2.05855 9.45046ZM1.94873 10.1555C1.93995 10.53 1.97577 10.4232 2.00773 9.97946C2.02468 9.74368 2.01977 9.65333 1.99508 9.74765C1.97286 9.83265 1.95199 10.0161 1.94873 10.1555ZM1.2074 10.6776C1.18447 11.0938 1.19426 11.3018 1.24377 11.4503L1.31155 11.6537L1.34752 11.4219C1.39443 11.1198 1.4005 10.1957 1.357 9.97302L1.32309 9.79916L1.28095 9.9537C1.25777 10.0387 1.22471 10.3645 1.2074 10.6776ZM1.07531 10.3272C1.0572 10.4864 1.06417 10.5976 1.09232 10.5976C1.1186 10.5976 1.14038 10.5107 1.14068 10.4045C1.14098 10.2982 1.15227 10.1186 1.16576 10.0052C1.18432 9.8496 1.18001 9.83069 1.14825 9.92795C1.12508 9.99878 1.09227 10.1785 1.07531 10.3272ZM2.67305 10.4437C2.6286 10.6842 2.57929 11.078 2.56354 11.3188C2.53639 11.7326 2.54467 11.7829 2.71384 12.2334C2.9272 12.8016 3.32393 13.6318 3.4338 13.74C3.50408 13.8092 3.50824 13.8066 3.47378 13.7142C3.17834 12.9232 3.05673 12.3364 2.99688 11.4126C2.94265 10.5759 2.84066 9.84717 2.79065 9.93897C2.77043 9.97606 2.7175 10.2032 2.67305 10.4437ZM2.10892 10.1211C2.12151 10.1707 2.13184 10.1301 2.13184 10.031C2.13184 9.93181 2.12151 9.89122 2.10892 9.94083C2.09627 9.99043 2.09627 10.0715 2.10892 10.1211ZM0.660976 10.1931C0.580957 10.5018 0.568718 10.7952 0.631578 10.8971C0.656862 10.938 0.686361 10.796 0.706377 10.5365C0.724588 10.301 0.753937 10.0503 0.771595 9.97946C0.789305 9.90863 0.787701 9.86567 0.768084 9.88401C0.748468 9.90229 0.700256 10.0414 0.660976 10.1931ZM3.15165 10.4837C3.10725 10.8513 3.10776 11.0126 3.15386 11.1792C3.26844 11.5931 3.29749 11.4901 3.2849 10.7142C3.27793 10.2851 3.25816 9.9501 3.2409 9.96967C3.22364 9.9892 3.18351 10.2205 3.15165 10.4837ZM0.758753 10.7287C0.731762 11.0661 0.741493 11.1747 0.811127 11.3131C0.858185 11.4065 0.906797 11.4726 0.919138 11.4599C0.93148 11.4472 0.925611 11.1031 0.906046 10.6953C0.86817 9.90456 0.82402 9.91461 0.758753 10.7287ZM17.2599 10.4013C17.2759 10.4423 17.2878 10.4301 17.2902 10.3701C17.2923 10.3158 17.2805 10.2854 17.2638 10.3025C17.2472 10.3196 17.2454 10.3641 17.2599 10.4013ZM16.9708 11.1128C16.9264 11.4669 16.8821 11.8106 16.8725 11.8765C16.8629 11.9424 16.8736 11.9772 16.8962 11.9538C16.9675 11.8801 17.1491 10.3759 17.0787 10.4431C17.0638 10.4573 17.0152 10.7587 16.9708 11.1128ZM1.95626 11.0741C1.96679 11.1946 1.97547 11.096 1.97547 10.8552C1.97547 10.6144 1.96679 10.5158 1.95626 10.6363C1.94567 10.7567 1.94567 10.9537 1.95626 11.0741ZM17.3095 10.6868C17.3223 10.7369 17.3335 10.7084 17.3345 10.6234C17.3355 10.5384 17.3251 10.4974 17.3114 10.5323C17.2976 10.5671 17.2968 10.6367 17.3095 10.6868ZM17.1212 11.5764C17.0233 12.3872 16.8819 13.0508 16.7123 13.4952C16.5581 13.8993 16.5616 13.9213 16.7352 13.637C16.991 13.218 17.3443 12.0741 17.3443 11.6651C17.3443 11.4565 17.2454 10.8346 17.2174 10.8668C17.2107 10.8746 17.1674 11.1939 17.1212 11.5764ZM1.76948 11.5658C1.8797 11.9847 1.91788 11.9492 1.81925 11.5195C1.77766 11.3383 1.73948 11.1089 1.73446 11.0097C1.72528 10.83 1.72523 10.8301 1.70471 11.0355C1.69343 11.1488 1.72257 11.3875 1.76948 11.5658ZM16.3717 11.6279C16.2762 11.8971 16.1852 12.2332 16.1694 12.3749L16.1407 12.6324L16.2377 12.4253C16.3495 12.1866 16.5711 11.4256 16.6142 11.1321C16.6519 10.8758 16.603 10.9758 16.3717 11.6279ZM0.420372 12.1163C0.420923 13 0.480171 13.3911 0.707281 14.0107C1.05936 14.9712 1.76858 15.9393 2.72041 16.7586C3.1069 17.0913 3.34635 17.2614 3.37976 17.227C3.39436 17.2121 3.36241 17.1757 3.30883 17.1463C3.25525 17.1168 3.04454 16.8889 2.84061 16.6398C2.63663 16.3907 2.45552 16.1753 2.43807 16.1612C2.34952 16.0892 1.53419 14.4932 1.43807 14.2036C1.37692 14.0195 1.27257 13.7574 1.20615 13.6212C0.837315 12.8648 0.541275 11.8243 0.53661 11.2674C0.535206 11.1064 0.528883 11.098 0.477461 11.1891C0.440538 11.2544 0.420021 11.5876 0.420372 12.1163ZM0.652597 11.5628C0.664137 11.6411 0.673868 11.5893 0.674269 11.4476C0.67462 11.306 0.66519 11.2419 0.653299 11.3052C0.641409 11.3686 0.641109 11.4845 0.652597 11.5628ZM1.50113 11.8293C1.51754 12.1047 1.55226 12.2174 1.685 12.4264C1.77505 12.5681 1.83781 12.6376 1.82451 12.5809C1.81122 12.5243 1.76411 12.3156 1.71981 12.1173C1.51749 11.2116 1.45975 11.1355 1.50113 11.8293ZM0.889891 12.3889C0.94969 12.6547 1.00683 12.8637 1.01692 12.8534C1.05324 12.8161 0.927668 11.8051 0.87158 11.6832C0.814791 11.5598 0.813837 11.5604 0.797583 11.7319C0.788551 11.8275 0.830091 12.1231 0.889891 12.3889ZM3.1958 12.4059C3.29508 12.939 3.46174 13.5048 3.54808 13.6022C3.59002 13.6495 3.47573 12.9802 3.37364 12.5809C3.14433 11.684 3.12115 11.6093 3.1058 11.7188C3.09682 11.783 3.1373 12.0922 3.1958 12.4059ZM2.0436 11.9741C2.10972 12.2265 2.2101 12.4112 2.16049 12.1891C2.07405 11.8027 2.03346 11.6722 2.00783 11.6985C1.99207 11.7147 2.00813 11.8388 2.0436 11.9741ZM1.30603 12.0777C1.31878 12.1278 1.33001 12.0993 1.33101 12.0143C1.33202 11.9293 1.32163 11.8883 1.30789 11.9231C1.29414 11.958 1.29329 12.0276 1.30603 12.0777ZM2.59424 12.3328C2.68098 12.6198 2.8815 13.055 2.94586 13.0959C2.97657 13.1153 2.96478 13.0426 2.91953 12.9333C2.87448 12.8245 2.77906 12.5908 2.70752 12.4139C2.5664 12.0649 2.49862 12.0163 2.59424 12.3328ZM3.5261 12.7585C3.57442 12.9442 3.70069 13.3028 3.80674 13.5555C3.91275 13.8082 3.98885 14.0259 3.97576 14.0393C3.95469 14.061 3.82425 13.7836 3.69246 13.4366C3.601 13.196 3.60341 13.3646 3.69698 13.7586C3.79325 14.1638 3.82064 14.2203 4.04419 14.4741C4.16765 14.6143 4.28976 14.6711 4.22068 14.5562C4.19845 14.5194 4.20688 14.5108 4.24275 14.5336C4.27461 14.5538 4.30069 14.601 4.30069 14.6386C4.30069 14.731 4.68217 15.0794 4.78341 15.0794C4.84802 15.0794 4.83744 15.043 4.73113 14.8999C4.53046 14.6298 4.04363 13.7614 3.86423 13.3536C3.77699 13.1553 3.65323 12.8076 3.58927 12.5809C3.44809 12.0808 3.3913 12.2404 3.5261 12.7585ZM2.32785 12.4908C2.36883 12.6537 2.42312 12.809 2.4485 12.8359C2.53464 12.9273 2.49917 12.7684 2.31982 12.259C2.30733 12.2236 2.28726 12.1946 2.27522 12.1946C2.26318 12.1946 2.28686 12.3279 2.32785 12.4908ZM18.0527 12.657C18.0203 12.7556 18.0153 12.8135 18.0417 12.7858C18.0681 12.7581 18.1058 12.6659 18.1254 12.5809C18.1715 12.3816 18.1287 12.4263 18.0527 12.657ZM15.6486 13.5177C15.5214 13.7556 15.5991 13.7013 15.7623 13.4382C15.8565 13.2863 15.9576 13.0475 15.9868 12.9076C16.0877 12.4242 16.033 12.4281 15.8712 12.9158C15.7818 13.1849 15.6817 13.4558 15.6486 13.5177ZM1.99032 12.8443C2.1353 13.1809 2.16606 13.1023 2.02965 12.7438C1.96809 12.582 1.9106 12.484 1.90192 12.526C1.89319 12.568 1.93298 12.7113 1.99032 12.8443ZM1.79507 12.9908C1.91055 13.1479 2.0136 13.2764 2.02408 13.2764C2.07756 13.2764 2.02343 13.1584 1.83264 12.8594C1.68846 12.6333 1.61637 12.5571 1.60363 12.6174C1.59344 12.6657 1.67958 12.8338 1.79507 12.9908ZM2.73927 13.0841C2.78884 13.1346 2.79456 13.1286 2.76737 13.0552C2.7485 13.0044 2.72046 12.9758 2.70501 12.9917C2.68956 13.0075 2.70496 13.0491 2.73927 13.0841ZM1.70015 13.1779C1.73246 13.2746 1.81268 13.4419 1.8784 13.5498C1.95425 13.6743 1.98621 13.7838 1.96589 13.8495C1.94492 13.9173 1.98039 14.025 2.06893 14.1625C2.14318 14.2777 2.2097 14.4256 2.21668 14.4911C2.2381 14.6913 2.65554 15.3888 2.92108 15.6681C3.21406 15.9763 3.84668 16.4759 4.27561 16.7377C4.81105 17.0647 5.26366 17.2997 5.32035 17.2803C5.3508 17.2699 5.30314 17.2284 5.21445 17.1881C5.12575 17.1478 5.05321 17.097 5.05321 17.0752C5.05321 17.0535 4.93466 16.9568 4.78983 16.8604C4.64499 16.7641 4.33456 16.5071 4.10002 16.2894C3.86549 16.0717 3.54943 15.8 3.39767 15.6857C2.89836 15.3095 2.07756 14.4362 2.30909 14.5274C2.42989 14.575 2.419 14.5483 2.19385 14.2433C2.08363 14.094 1.99433 13.937 1.99544 13.8945C1.99764 13.809 1.98184 13.79 2.40912 14.39C2.69723 14.7946 2.92354 15.0644 3.07359 15.1824C3.12767 15.2249 3.0921 15.1554 2.99453 15.0279C2.76606 14.7293 2.69773 14.6166 2.41183 14.0661C2.2095 13.6764 1.69634 12.9456 1.65495 12.9882C1.64747 12.9958 1.66779 13.0812 1.70015 13.1779ZM1.24041 13.2865C1.29851 13.5446 1.52722 14.0294 1.57022 13.9853C1.5811 13.974 1.50575 13.7425 1.40271 13.4708C1.29966 13.1991 1.2072 12.985 1.19717 12.995C1.18718 13.005 1.20665 13.1362 1.24041 13.2865ZM15.391 13.4736C15.3272 13.5679 15.1578 13.8873 15.0146 14.1833L14.7542 14.7215L14.9707 14.5033C15.1701 14.3023 15.6144 13.4796 15.7168 13.1218C15.752 12.9986 15.7484 12.9996 15.6303 13.1476C15.5624 13.2326 15.4547 13.3793 15.391 13.4736ZM4.02678 13.3703C4.2591 14.0058 4.59026 14.5648 5.04589 15.0906C5.16263 15.2253 5.4838 15.3756 5.53733 15.3206C5.55157 15.306 5.52188 15.2509 5.47126 15.1981C5.0647 14.7741 4.35161 13.7963 4.26688 13.5467C4.20914 13.3765 3.9746 13.0195 3.95664 13.0744C3.94676 13.1047 3.97832 13.2378 4.02678 13.3703ZM16.3459 13.418C16.2888 13.5668 16.2539 13.6885 16.2682 13.6885C16.3006 13.6885 16.4914 13.2371 16.4914 13.1605C16.4914 13.0689 16.4554 13.1326 16.3459 13.418ZM17.6082 13.7162C17.456 13.9984 17.238 14.3569 17.1238 14.5127C17.0096 14.6685 16.8214 14.961 16.7056 15.1626C16.5897 15.3642 16.3982 15.6512 16.28 15.8004C15.9308 16.2409 15.9045 16.3061 16.1864 16.0324C16.6307 15.6011 17.2331 14.8358 17.4839 14.3841C17.7274 13.9456 18.0297 13.1534 17.942 13.1834C17.9107 13.1941 17.7605 13.4339 17.6082 13.7162ZM2.83148 13.2772C2.85637 13.3748 2.94617 13.4748 2.94617 13.4048C2.94617 13.361 2.84683 13.1733 2.82366 13.1733C2.81342 13.1733 2.81693 13.2201 2.83148 13.2772ZM2.72703 13.418C2.76857 13.5929 2.98896 13.9285 3.17528 14.1006L3.3147 14.2294L3.18818 14.0491C3.11854 13.9499 2.98881 13.7355 2.89986 13.5726C2.72096 13.245 2.67651 13.2052 2.72703 13.418ZM1.63568 13.4142C1.69483 13.5186 1.70908 13.4852 1.66067 13.3557C1.64351 13.3096 1.61883 13.2828 1.60593 13.2961C1.59299 13.3093 1.60639 13.3625 1.63568 13.4142ZM15.9222 13.824C15.7773 14.0753 15.6176 14.3504 15.5674 14.4354L15.4762 14.59L15.5843 14.4612C15.8362 14.1611 16.2406 13.4744 16.2406 13.3468C16.2406 13.2835 16.1916 13.3569 15.9222 13.824ZM2.21412 13.4733C2.29694 13.6377 2.44449 13.7821 2.44449 13.6987C2.44449 13.6447 2.20388 13.3279 2.1628 13.3279C2.15076 13.3279 2.17388 13.3933 2.21412 13.4733ZM16.0942 14.2551C15.7557 14.9487 15.7079 15.0738 15.8346 14.9345C15.9199 14.8407 15.9898 14.7498 15.9898 14.7325C15.9898 14.7153 16.0197 14.6645 16.0562 14.6198C16.1516 14.503 16.5416 13.514 16.5416 13.3889C16.5416 13.3415 16.5151 13.3929 16.0942 14.2551ZM4.5712 13.8838C4.6922 14.1241 5.10925 14.6714 5.46519 15.0572L5.80191 15.422L6.29295 15.53C6.82293 15.6464 7.24584 15.7157 7.20851 15.68C7.19577 15.6678 7.01602 15.5857 6.80908 15.4975C6.60214 15.4093 6.31994 15.2494 6.18198 15.1421C6.04402 15.0349 5.7844 14.8385 5.60505 14.7058C5.4257 14.573 5.10965 14.3017 4.90271 14.103C4.69576 13.9042 4.52023 13.7412 4.5126 13.7408C4.50503 13.7404 4.53136 13.8047 4.5712 13.8838ZM16.6208 14.2622C16.52 14.436 16.4461 14.6041 16.4567 14.6356C16.4674 14.6672 16.5588 14.525 16.66 14.3195C16.7611 14.1141 16.8349 13.9461 16.824 13.9461C16.8131 13.9461 16.7217 14.0883 16.6208 14.2622ZM15.9014 14.1908C15.8159 14.3254 15.6371 14.5608 15.5041 14.7139C15.2476 15.0094 15.0129 15.3885 15.0865 15.3885C15.1533 15.3885 15.7496 14.6894 15.8683 14.472C15.9681 14.2891 16.1002 13.9461 16.0708 13.9461C16.0632 13.9461 15.9869 14.0561 15.9014 14.1908ZM14.5658 14.2165C14.5477 14.2944 14.5536 14.3582 14.5788 14.3582C14.6398 14.3582 14.6858 14.2268 14.6839 14.0577C14.6821 13.8986 14.6201 13.982 14.5658 14.2165ZM2.55084 14.165C2.69809 14.4623 3.00898 14.9306 3.33853 15.3514C3.83353 15.9834 3.71453 15.7316 2.95424 14.5385C2.76677 14.2443 2.52466 13.9573 2.45603 13.9479C2.44855 13.9469 2.49124 14.0446 2.55084 14.165ZM4.07173 14.1885C4.09892 14.2619 4.0932 14.2679 4.04363 14.2174C4.00932 14.1824 3.99392 14.1408 4.00937 14.125C4.02482 14.1092 4.05287 14.1377 4.07173 14.1885ZM14.6854 14.4795C14.6854 14.6043 14.7412 14.5481 14.8306 14.3334C14.8945 14.1799 14.8945 14.1799 14.79 14.277C14.7325 14.3304 14.6854 14.4215 14.6854 14.4795ZM4.17206 14.3946C4.19925 14.468 4.19354 14.4739 4.14397 14.4234C4.10966 14.3885 4.09425 14.3469 4.1097 14.3311C4.12516 14.3152 4.1532 14.3438 4.17206 14.3946ZM14.335 14.5801C14.3346 14.6031 14.3568 14.6075 14.3844 14.59C14.412 14.5725 14.4342 14.519 14.4338 14.471C14.4331 14.396 14.4263 14.3946 14.3844 14.4612C14.3577 14.5037 14.3354 14.5572 14.335 14.5801ZM3.6895 14.5239C3.72547 14.5608 3.74885 14.5639 3.74885 14.5316C3.74885 14.5023 3.7338 14.4629 3.71539 14.444C3.69703 14.4251 3.67029 14.4217 3.65604 14.4363C3.64179 14.451 3.65684 14.4904 3.6895 14.5239ZM1.81167 14.8037C1.9087 14.9978 1.98916 15.1388 1.99052 15.1169C1.99438 15.0549 1.67823 14.4066 1.6555 14.4299C1.64441 14.4414 1.71465 14.6096 1.81167 14.8037ZM14.4967 15.4013C14.4067 15.5164 14.3439 15.6217 14.3572 15.6353C14.4477 15.7282 15.176 14.9863 15.3674 14.6063C15.4382 14.4658 15.3848 14.5015 15.0566 14.8144C14.8386 15.0222 14.5867 15.2863 14.4967 15.4013ZM14.4674 14.7703C14.4372 14.9482 14.4378 14.9488 14.5092 14.8218C14.549 14.751 14.5823 14.6478 14.5833 14.5926C14.5861 14.4368 14.5021 14.5655 14.4674 14.7703ZM2.48844 14.7325C2.538 14.783 2.54372 14.7771 2.51653 14.7037C2.49767 14.6529 2.46962 14.6243 2.45417 14.6402C2.43872 14.656 2.45412 14.6975 2.48844 14.7325ZM13.9277 15.1447C13.8383 15.2646 13.6854 15.4497 13.5879 15.5559C13.3503 15.8152 13.4345 15.7978 13.8576 15.5005C14.2032 15.2577 14.2892 15.1462 14.3554 14.8553L14.3888 14.7085L14.2396 14.8177C14.1575 14.8777 14.0171 15.0249 13.9277 15.1447ZM4.15019 14.7382C4.15019 14.7489 4.18972 14.7895 4.23798 14.8284C4.31755 14.8924 4.31931 14.8906 4.25695 14.8089C4.19138 14.7231 4.15019 14.6958 4.15019 14.7382ZM3.49084 15.015C3.83268 15.45 4.18882 15.786 4.57541 16.0381L4.72471 16.1354L4.62653 16.0011C4.5725 15.9272 4.44633 15.8035 4.3461 15.7261C4.24586 15.6487 3.99768 15.4135 3.79455 15.2036C3.40013 14.7958 3.24105 14.697 3.49084 15.015ZM4.27561 15.2339C4.35437 15.3183 4.43008 15.3758 4.44387 15.3616C4.45767 15.3475 4.40454 15.2668 4.32578 15.1824C4.24701 15.098 4.17131 15.0405 4.15751 15.0547C4.14372 15.0689 4.19685 15.1495 4.27561 15.2339ZM2.09331 15.1108C2.09331 15.1864 2.42959 15.7988 2.60859 16.0492C2.71645 16.2001 2.79325 16.3353 2.77926 16.3497C2.76526 16.3641 2.67295 16.2525 2.57407 16.1018C2.47519 15.951 2.39432 15.8546 2.39432 15.8874C2.39432 15.9717 2.71198 16.3896 2.76275 16.3722C2.78583 16.3642 3.00025 16.5538 3.23914 16.7936C4.07594 17.633 5.0054 18.1274 6.58914 18.5754C6.70272 18.6076 6.86075 18.6327 6.94032 18.6312C7.07667 18.6287 7.07341 18.6241 6.88433 18.5506C6.77396 18.5077 6.61593 18.4404 6.53316 18.4011C6.45038 18.3618 6.2472 18.2853 6.08165 18.2311C5.42485 18.0164 4.85595 17.7144 4.32578 17.2991C4.05838 17.0896 3.91174 16.9612 3.32242 16.4206C3.16705 16.2781 2.9872 16.0731 2.46957 15.4488C2.19445 15.117 2.09331 15.0262 2.09331 15.1108ZM4.62678 15.1824C4.64384 15.2107 4.68468 15.2336 4.71754 15.2331C4.75346 15.2326 4.74724 15.2124 4.70203 15.1824C4.60566 15.1184 4.5883 15.1184 4.62678 15.1824ZM15.3125 15.2339C15.2954 15.2622 15.3054 15.2854 15.3346 15.2854C15.3638 15.2854 15.3878 15.2622 15.3878 15.2339C15.3878 15.2056 15.3778 15.1824 15.3656 15.1824C15.3534 15.1824 15.3296 15.2056 15.3125 15.2339ZM14.4373 15.7703C14.3081 15.9084 14.2859 15.9551 14.3493 15.9551C14.4613 15.9551 14.8135 15.6255 14.9069 15.4333L14.9806 15.2815L14.7954 15.4334C14.6935 15.517 14.5323 15.6686 14.4373 15.7703ZM14.9925 15.5451C14.7844 15.7383 14.7814 15.8102 14.9862 15.6976C15.0907 15.6402 15.3174 15.3358 15.2532 15.3391C15.2306 15.3402 15.1133 15.433 14.9925 15.5451ZM13.508 15.3859C13.4657 15.4561 12.9248 15.7326 12.4279 15.9381C11.9729 16.1261 12.0451 16.1334 12.7526 15.9706C13.0613 15.8996 13.1353 15.8575 13.3797 15.6146C13.5323 15.463 13.6301 15.3385 13.5972 15.338C13.5644 15.3374 13.5242 15.359 13.508 15.3859ZM5.42611 15.506C5.5879 15.6317 6.05656 15.8172 6.05656 15.7556C6.05656 15.6889 5.77542 15.4999 5.59863 15.4477C5.32126 15.3658 5.26853 15.3836 5.42611 15.506ZM15.6762 16.2023C15.3444 16.5716 15.3044 16.6575 15.5759 16.418C15.8162 16.2059 16.391 15.5334 16.3898 15.4657C16.3888 15.4161 16.3045 15.5031 15.6762 16.2023ZM4.95287 15.4644C4.95287 15.4778 5.0206 15.5248 5.10338 15.5688C5.29206 15.669 5.30345 15.6254 5.11592 15.521C4.95824 15.4331 4.95287 15.4313 4.95287 15.4644ZM6.15284 15.719C6.31382 15.8895 6.58513 15.997 7.28567 16.1676C7.62084 16.2492 8.66147 16.3752 9.16696 16.3953L9.64355 16.4143L9.24221 16.311C8.45197 16.1078 8.23304 16.044 7.82237 15.8976C7.59325 15.8159 7.31106 15.7477 7.19527 15.7459C7.07943 15.7442 6.78149 15.6999 6.53316 15.6474C6.28483 15.5949 6.06028 15.55 6.03419 15.5475C6.00805 15.545 6.06148 15.6222 6.15284 15.719ZM5.1267 15.7988C5.38657 16.072 6.19999 16.5123 6.08165 16.3157C6.03153 16.2324 6.13859 16.2568 6.20983 16.3449C6.29346 16.4483 6.80908 16.718 6.80908 16.6583C6.80908 16.6012 6.0526 16.166 5.99365 16.1892C5.95322 16.2051 5.85163 16.159 5.7679 16.0866C5.68417 16.0143 5.6031 15.9551 5.5878 15.9551C5.57244 15.9551 5.42896 15.874 5.26893 15.775C5.10889 15.6759 4.96772 15.5947 4.95523 15.5947C4.94274 15.5946 5.0199 15.6864 5.1267 15.7988ZM13.8074 15.9464C13.8407 15.9806 14.0332 15.7979 14.0332 15.7321C14.0332 15.7032 13.9769 15.734 13.908 15.8004C13.8391 15.8668 13.7938 15.9326 13.8074 15.9464ZM13.3699 15.9228C13.1582 16.0467 12.9442 16.1662 12.8945 16.1884C12.8142 16.2241 12.8133 16.2309 12.8866 16.2492C12.9567 16.2666 13.4036 16.0192 13.756 15.7681C13.971 15.6148 13.7338 15.7099 13.3699 15.9228ZM5.83081 15.8791C6.08395 16.0969 6.77436 16.4201 6.84083 16.3518C6.88007 16.3115 6.35095 15.9846 6.06108 15.87C5.68964 15.7231 5.65136 15.7246 5.83081 15.8791ZM14.6089 15.9967C14.6243 16.0126 14.6647 15.9967 14.6988 15.9615C14.748 15.9106 14.7422 15.9047 14.6707 15.9327C14.6212 15.952 14.5934 15.9808 14.6089 15.9967ZM9.06663 15.9565C9.19079 15.9792 9.4017 16.0132 9.53529 16.0319C9.66889 16.0506 9.76872 16.0756 9.75718 16.0875C9.74559 16.0993 9.54603 16.083 9.3136 16.0512C9.08117 16.0194 8.82893 15.9967 8.75308 16.0008C8.67722 16.0049 8.61512 15.9847 8.61512 15.9559C8.61512 15.8965 8.74023 15.8967 9.06663 15.9565ZM13.657 16.0581C13.6399 16.0865 13.6485 16.1097 13.6761 16.1097C13.7037 16.1097 13.7402 16.0865 13.7573 16.0581C13.7744 16.0298 13.7657 16.0066 13.7381 16.0066C13.7106 16.0066 13.674 16.0298 13.657 16.0581ZM14.9338 16.2046C14.6702 16.3592 13.8271 17.0485 13.8601 17.0823C13.9183 17.1422 15.1118 16.2975 15.2015 16.1329C15.2591 16.0272 15.2172 16.0384 14.9338 16.2046ZM14.0232 16.3028C13.9944 16.3383 13.9905 16.3655 14.0146 16.3635C14.1008 16.3561 14.3528 16.1812 14.3748 16.1135C14.3998 16.0366 14.1154 16.1898 14.0232 16.3028ZM6.70874 16.1301C6.70874 16.1836 7.2343 16.4877 7.43311 16.5492C7.8035 16.6636 8.55125 16.7809 9.12527 16.8147C9.42226 16.8321 9.65364 16.8656 9.63949 16.8891C9.61285 16.9334 9.40621 16.9194 8.38936 16.8045C8.05825 16.7671 7.78028 16.7437 7.7716 16.7526C7.76292 16.7615 7.88006 16.8271 8.03187 16.8985C8.32881 17.0382 8.95972 17.1395 9.53263 17.1398C10.188 17.1401 11.4148 16.8961 12.0641 16.6363C12.5407 16.4456 12.4384 16.4095 11.9136 16.5832C11.6584 16.6677 11.269 16.7685 11.0483 16.8073C10.5094 16.9019 9.76897 16.9511 9.76897 16.8924C9.76897 16.8666 10.0117 16.8331 10.3083 16.8181C10.8073 16.7928 11.7005 16.6208 11.876 16.5162C11.9233 16.488 11.8115 16.4724 11.575 16.4743C11.3681 16.476 10.8488 16.4759 10.4212 16.4741C9.99347 16.4723 9.55325 16.4783 9.44288 16.4875C9.08293 16.5175 7.60449 16.328 7.13517 16.1917C6.88082 16.1178 6.70874 16.093 6.70874 16.1301ZM4.55203 16.2391C4.69827 16.42 5.63154 17.0269 5.68276 16.9743C5.69149 16.9654 5.48004 16.8089 5.21284 16.6267C4.9457 16.4445 4.71583 16.2803 4.70203 16.2618C4.68076 16.2332 4.572 16.1792 4.50778 16.1652C4.4975 16.163 4.51742 16.1962 4.55203 16.2391ZM14.3342 16.3451C14.3342 16.3592 14.3794 16.3461 14.4346 16.3157C14.4898 16.2854 14.5349 16.249 14.5349 16.2348C14.5349 16.2207 14.4898 16.2339 14.4346 16.2642C14.3794 16.2945 14.3342 16.3309 14.3342 16.3451ZM13.2807 16.5216C13.0336 16.6888 13.084 16.7262 13.3735 16.5904C13.6077 16.4806 13.7322 16.3713 13.7322 16.2757C13.7322 16.2119 13.7147 16.2133 13.6193 16.2845C13.5572 16.3309 13.4049 16.4376 13.2807 16.5216ZM12.8531 16.4703C12.8077 16.4703 12.7879 16.4457 12.8072 16.4136C12.8312 16.3738 12.8097 16.3743 12.7349 16.4154C12.613 16.4825 12.5915 16.5332 12.7038 16.4889C12.8517 16.4306 12.7753 16.5182 12.5658 16.6472C12.4485 16.7193 12.3675 16.7786 12.3856 16.7789C12.4784 16.7802 13.0651 16.473 13.1302 16.3889C13.2033 16.2945 13.2016 16.2943 13.0693 16.381C12.9944 16.4301 12.8971 16.4703 12.8531 16.4703ZM14.3233 17.2062C14.138 17.351 13.9966 17.48 14.009 17.4929C14.0689 17.5544 15.2373 16.6269 15.2373 16.5178C15.2373 16.4908 15.1074 16.5754 14.9488 16.7058C14.7902 16.8362 14.5087 17.0614 14.3233 17.2062ZM13.8261 16.556C13.7632 16.6344 13.768 16.636 13.8827 16.5747C14.0509 16.485 14.0636 16.4703 13.9725 16.4703C13.9299 16.4703 13.864 16.5088 13.8261 16.556ZM6.88684 16.5131C6.96435 16.5827 7.81098 16.9525 7.83541 16.9274C7.86446 16.8976 7.28055 16.5844 7.085 16.5249C6.88268 16.4634 6.82784 16.4601 6.88684 16.5131ZM4.67695 16.6526C4.93938 16.889 5.34473 17.1761 5.78064 17.4341C6.13548 17.6442 6.5765 17.7854 7.03523 17.8356L7.28567 17.8631L7.05992 17.7938C6.51184 17.6257 5.67499 17.2129 5.17502 16.8641C5.06761 16.7891 4.9612 16.7278 4.93858 16.7278C4.9159 16.7278 4.81431 16.6699 4.71282 16.599C4.45481 16.419 4.44086 16.4399 4.67695 16.6526ZM12.1394 16.7432C11.9549 16.8454 11.9234 16.9066 12.0819 16.8549C12.1729 16.8252 12.5035 16.6158 12.5748 16.5426C12.6077 16.5088 12.339 16.6326 12.1394 16.7432ZM2.896 16.5889C2.896 16.5975 2.98063 16.6845 3.08413 16.7821L3.27225 16.9596L3.09938 16.7665C2.93844 16.5867 2.896 16.5496 2.896 16.5889ZM6.35757 16.6972C6.35757 16.7453 6.80938 16.9851 6.89326 16.9814C6.94353 16.9793 6.84921 16.9115 6.68366 16.8309C6.3357 16.6613 6.35757 16.6703 6.35757 16.6972ZM13.0936 16.8105C13.1103 16.8276 13.1536 16.8294 13.1898 16.8145C13.2298 16.7981 13.2179 16.7859 13.1595 16.7834C13.1066 16.7812 13.077 16.7934 13.0936 16.8105ZM4.27561 16.8824C4.29267 16.9107 4.28138 16.9339 4.25053 16.9339C4.21967 16.9339 4.20708 16.9549 4.22253 16.9806C4.23798 17.0062 4.29322 17.0158 4.34524 17.0018C4.39732 16.9879 4.45742 17.0055 4.47884 17.0412C4.50628 17.0868 4.49314 17.0962 4.43434 17.073C4.26482 17.0063 4.35994 17.0951 4.69185 17.3135C5.05105 17.5499 5.50467 17.7753 5.54275 17.7362C5.55514 17.7235 5.38401 17.6195 5.16252 17.5052C4.94103 17.3908 4.74548 17.2735 4.72797 17.2444C4.68202 17.168 4.75591 17.1794 4.84857 17.2628C4.89217 17.3021 5.17612 17.4627 5.47963 17.6197C6.05145 17.9156 6.63745 18.1367 6.98467 18.1874C7.17821 18.2157 7.18087 18.2142 7.05992 18.1438C6.99094 18.1037 6.9049 18.07 6.86873 18.069C6.83256 18.068 6.61628 17.977 6.38812 17.8667C6.15996 17.7564 5.81285 17.6068 5.61679 17.5341C5.42069 17.4615 5.13247 17.328 4.97625 17.2375C4.75978 17.1121 4.68277 17.0886 4.65257 17.1388C4.63075 17.175 4.58539 17.1872 4.55178 17.1659C4.50513 17.1362 4.50468 17.1182 4.54988 17.0895C4.58891 17.0647 4.55213 17.0144 4.44237 16.9422C4.25283 16.8176 4.23216 16.8102 4.27561 16.8824ZM13.1556 16.9333C13.1381 16.9625 13.1582 16.9711 13.2029 16.9536C13.2897 16.9193 13.3056 16.8824 13.2335 16.8824C13.2075 16.8824 13.1725 16.9053 13.1556 16.9333ZM10.9981 17.0152C10.7773 17.0599 10.4952 17.1082 10.371 17.1223C10.2468 17.1365 10.1227 17.1724 10.0951 17.2022C10.0601 17.2398 10.1821 17.2467 10.4964 17.2251C10.9541 17.1936 11.4454 17.0757 11.5006 16.9841C11.5416 16.9158 11.4656 16.9205 10.9981 17.0152ZM12.8428 17.0165C12.8595 17.0336 12.9027 17.0355 12.9389 17.0206C12.979 17.0042 12.9671 16.9919 12.9086 16.9895C12.8557 16.9873 12.8261 16.9994 12.8428 17.0165ZM3.49309 17.1946C4.25604 17.9029 5.46208 18.4561 7.06313 18.8321C7.41179 18.914 8.63373 19.0144 8.65053 18.9626C8.65861 18.9376 8.87408 18.9186 9.12933 18.9204C9.38454 18.9221 9.66111 18.9074 9.74389 18.8878C9.86966 18.8579 9.8525 18.8511 9.63939 18.846C9.49912 18.8426 9.36969 18.8248 9.35173 18.8064C9.29469 18.7479 8.61863 18.7744 8.46115 18.8414C8.34346 18.8914 8.21277 18.893 7.87303 18.8485C7.63273 18.8169 7.31201 18.7775 7.16025 18.7608C7.00849 18.7442 6.68115 18.6717 6.43282 18.5999C6.18449 18.5279 5.92487 18.4592 5.85589 18.4471C5.70198 18.4201 5.60561 18.3763 4.75085 17.9441C4.34675 17.7398 3.92052 17.4775 3.69733 17.2959C3.26428 16.9435 3.17468 16.8991 3.49309 17.1946ZM6.1569 17.1087C6.1569 17.1198 6.19192 17.1427 6.23476 17.1596C6.27941 17.1772 6.29953 17.1685 6.28197 17.1394C6.25252 17.0904 6.1569 17.0669 6.1569 17.1087ZM13.28 17.3371C13.3134 17.3486 13.378 17.3189 13.4236 17.271C13.5012 17.1897 13.4973 17.1884 13.3628 17.2502C13.2838 17.2866 13.2465 17.3257 13.28 17.3371ZM12.0544 17.2732C11.9179 17.293 11.6922 17.3644 11.5527 17.432L11.2991 17.5547L11.4998 17.524C11.7763 17.4817 12.3919 17.2921 12.4529 17.2305C12.486 17.1972 12.4688 17.1897 12.4028 17.2085C12.3476 17.2242 12.1908 17.2533 12.0544 17.2732ZM9.36763 17.243C9.36763 17.3075 9.42086 17.3075 9.51814 17.243C9.57899 17.2026 9.57176 17.1929 9.48051 17.1922C9.4184 17.1918 9.36763 17.2146 9.36763 17.243ZM7.78735 17.3049C8.02951 17.4363 8.23058 17.487 8.67783 17.5297C9.05499 17.5657 9.14669 17.4881 8.82833 17.4024C8.72483 17.3745 8.51604 17.3177 8.36428 17.2763C8.21252 17.2348 7.97548 17.1998 7.83752 17.1984L7.58668 17.196L7.78735 17.3049ZM13.733 17.821C13.5541 17.9281 13.4187 18.0172 13.432 18.0191C13.8372 18.0759 13.9217 18.0513 14.2245 17.7881C14.3904 17.6439 14.5755 17.4614 14.6359 17.3826C14.7444 17.241 14.7413 17.2417 14.4021 17.4327C14.213 17.5392 13.9119 17.7139 13.733 17.821ZM12.6477 17.3397C12.513 17.3928 12.2673 17.4647 12.1018 17.4994C11.4772 17.63 11.4374 17.642 11.575 17.6566C11.7845 17.679 12.0459 17.6477 12.1519 17.5874C12.2071 17.5561 12.2775 17.5356 12.3083 17.5419C12.3391 17.5482 12.5084 17.4853 12.6846 17.402C13.0449 17.2316 13.0215 17.1921 12.6477 17.3397ZM6.60841 17.2945C6.6498 17.3219 6.72881 17.3424 6.78399 17.3401C6.86667 17.3365 6.86226 17.3285 6.75891 17.2945C6.58152 17.2362 6.52051 17.2362 6.60841 17.2945ZM9.81914 17.449C9.81914 17.4774 9.87422 17.5005 9.9416 17.5005C10.009 17.5005 10.078 17.4774 10.0951 17.449C10.1132 17.419 10.0622 17.3975 9.9726 17.3975C9.88822 17.3975 9.81914 17.4207 9.81914 17.449ZM13.2807 17.621C13.1841 17.6637 13.044 17.7143 12.9692 17.7334C12.8483 17.7644 12.6664 17.9127 12.7493 17.9127C12.7877 17.9127 13.3548 17.6768 13.519 17.5925C13.5811 17.5607 13.6319 17.5152 13.6319 17.4914C13.6319 17.4676 13.5924 17.4696 13.5441 17.4958C13.4958 17.522 13.3773 17.5783 13.2807 17.621ZM9.31746 17.5005C9.49867 17.5601 9.62926 17.5601 9.59339 17.5005C9.57633 17.4722 9.47905 17.4513 9.37721 17.4542C9.21091 17.4588 9.20479 17.4635 9.31746 17.5005ZM6.50807 17.5005C6.54946 17.528 6.61719 17.5492 6.65858 17.5476C6.70819 17.5458 6.69966 17.5298 6.63349 17.5005C6.49558 17.4397 6.41637 17.4397 6.50807 17.5005ZM10.6218 17.5521L10.4964 17.5933L10.6218 17.5976C10.6908 17.6 10.7811 17.5795 10.8225 17.5521C10.8894 17.5077 10.8894 17.5026 10.8225 17.5065C10.7811 17.5088 10.6908 17.5294 10.6218 17.5521ZM7.55838 17.7356C7.76352 17.8057 8.02314 17.8745 8.13531 17.8887L8.33919 17.9143L8.13852 17.8317C7.83802 17.7079 7.5049 17.6169 7.33584 17.6123C7.2355 17.6095 7.3097 17.6507 7.55838 17.7356ZM10.856 17.7589C10.735 17.7595 10.715 17.7716 10.7723 17.8096C10.8605 17.8681 11.1946 17.8756 11.3743 17.8231C11.4935 17.7883 11.491 17.7848 11.3242 17.7535C11.2276 17.7354 11.1185 17.729 11.0818 17.7394C11.045 17.7497 10.9434 17.7585 10.856 17.7589ZM8.11344 17.7287C8.11344 17.7855 8.6845 17.9122 8.92385 17.9086C9.21888 17.9041 9.18447 17.8764 8.76682 17.7824C8.48533 17.719 8.11344 17.6885 8.11344 17.7287ZM5.2288 17.8096C5.24585 17.838 5.28238 17.8611 5.30997 17.8611C5.33756 17.8611 5.34619 17.838 5.32913 17.8096C5.31207 17.7813 5.27555 17.7581 5.24796 17.7581C5.22037 17.7581 5.21174 17.7813 5.2288 17.8096ZM10.1954 17.8611C10.2506 17.8855 10.3296 17.9067 10.371 17.9082C10.4379 17.9108 10.4379 17.9055 10.371 17.8611C10.3296 17.8337 10.2506 17.8125 10.1954 17.8141L10.0951 17.8169L10.1954 17.8611ZM6.73633 17.9092C6.82859 18.0022 7.56119 18.2232 7.87309 18.2521C8.04667 18.2682 8.23384 18.3012 8.28903 18.3253C8.4311 18.3875 8.71515 18.4174 8.68475 18.367C8.6708 18.3438 8.61903 18.3248 8.56971 18.3248C8.5204 18.3248 8.4145 18.2912 8.33438 18.2502C8.14971 18.1556 7.6545 18.0193 7.36092 17.9822C7.23676 17.9665 7.05616 17.9352 6.95958 17.9126C6.7091 17.854 6.68115 17.8535 6.73633 17.9092ZM9.31746 18.0157C9.42056 18.0496 9.39818 18.0592 9.19204 18.0698L8.94121 18.0827L9.16696 18.1153C9.29113 18.1332 9.41419 18.1297 9.44037 18.1075C9.46656 18.0853 9.63588 18.0642 9.81663 18.0604C10.0924 18.0547 10.117 18.0475 9.96964 18.0157C9.71956 17.9616 9.15306 17.9616 9.31746 18.0157ZM12.7465 18.2775C12.4222 18.4087 11.9259 18.5555 11.3332 18.6956C11.214 18.7237 11.1307 18.7615 11.1482 18.7795C11.2108 18.8438 11.9107 18.7764 12.4529 18.6539C13.0422 18.5208 13.8023 18.195 13.69 18.1238C13.5776 18.0524 13.1173 18.1274 12.7465 18.2775ZM10.3584 18.1298C10.2549 18.1353 10.1703 18.1582 10.1703 18.1807C10.1703 18.2515 10.84 18.2208 10.9981 18.1429C11.1435 18.0712 11.1384 18.0695 10.8476 18.0942C10.682 18.1083 10.4619 18.1243 10.3584 18.1298ZM6.22944 18.1789C6.33836 18.2379 6.62055 18.328 6.85654 18.3791C7.15524 18.4438 7.23229 18.4739 7.11009 18.478L6.9345 18.4838L7.13517 18.5624C7.49121 18.7016 7.67853 18.7344 8.12598 18.7356C8.41419 18.7365 8.56495 18.7173 8.56495 18.6799C8.56495 18.6485 8.53124 18.6361 8.49005 18.6524C8.44891 18.6686 8.38801 18.6519 8.35474 18.6154C8.32153 18.5789 8.24237 18.5592 8.17881 18.5717C7.99284 18.6082 7.36785 18.5247 7.48634 18.4792C7.54153 18.458 7.60173 18.4495 7.62009 18.4604C7.63845 18.4712 7.7739 18.4892 7.9211 18.5003L8.18869 18.5205L7.93785 18.4534C7.79989 18.4164 7.594 18.384 7.48032 18.3812C7.36664 18.3785 7.13231 18.3299 6.95958 18.2733C6.78685 18.2166 6.59767 18.1699 6.53918 18.1695C6.48068 18.169 6.39896 18.1462 6.35757 18.1187C6.31618 18.0913 6.22588 18.0695 6.1569 18.0703C6.04563 18.0716 6.0538 18.0838 6.22944 18.1789ZM8.33919 18.1702C8.35625 18.1986 8.40406 18.2217 8.44545 18.2217C8.48684 18.2217 8.50675 18.1986 8.4897 18.1702C8.47264 18.1419 8.42483 18.1187 8.38344 18.1187C8.34205 18.1187 8.32214 18.1419 8.33919 18.1702ZM8.89104 18.3374C8.94743 18.3717 9.22199 18.4032 9.51814 18.4093L10.0449 18.4202L9.61847 18.3537C9.38394 18.3171 9.10174 18.2847 8.99137 18.2818C8.81478 18.277 8.80274 18.2837 8.89104 18.3374ZM10.8768 18.4089C10.8337 18.4479 11.1024 18.4187 11.1988 18.3739C11.2687 18.3414 11.2383 18.3367 11.0984 18.3586C10.988 18.3758 10.8883 18.3985 10.8768 18.4089ZM10.852 18.6259C10.9475 18.6465 11.3661 18.5347 11.3991 18.4799C11.4113 18.4596 11.2746 18.4802 11.0952 18.5256C10.9159 18.571 10.8065 18.6161 10.852 18.6259ZM8.96629 18.5823C9.14865 18.6423 9.50715 18.6423 9.54322 18.5823C9.56288 18.5496 9.44038 18.5327 9.20755 18.536C8.94738 18.5396 8.87729 18.5531 8.96629 18.5823ZM5.73298 18.5751C5.88654 18.7177 6.95712 19.0131 7.61176 19.0935C8.15799 19.1606 9.4044 19.1323 9.48156 19.051C9.53103 18.9988 9.49867 18.9921 9.31746 19.0168C8.41585 19.14 6.98758 18.9706 5.95623 18.6181C5.67313 18.5214 5.67574 18.5219 5.73298 18.5751ZM9.63041 18.7723C9.67837 18.7852 9.76867 18.7856 9.83108 18.7733C9.89349 18.761 9.85426 18.7504 9.74389 18.7499C9.63352 18.7493 9.58245 18.7594 9.63041 18.7723ZM8.52416 18.9266C8.48799 18.9415 8.4447 18.9396 8.42804 18.9225C8.41138 18.9054 8.44098 18.8933 8.49386 18.8955C8.55231 18.898 8.5642 18.9102 8.52416 18.9266ZM9.60593 19.0286C9.64039 19.0429 9.69683 19.0429 9.73135 19.0286C9.76581 19.0143 9.73762 19.0026 9.66864 19.0026C9.59966 19.0026 9.57141 19.0143 9.60593 19.0286Z" fill="#FFFFFF"/>
<circle cx="10.0009" cy="9.99992" r="7.69231" fill="#FFFFFF"/>
</svg>
