<svg width="511" height="881" viewBox="0 0 511 881" fill="none" xmlns="http://www.w3.org/2000/svg">
<path fill-rule="evenodd" clip-rule="evenodd" d="M163.483 6.85654C160.738 10.6284 156.672 16.8025 154.448 20.5793C151.939 24.8368 148.828 27.8408 146.254 28.4861C143.973 29.0604 126.452 28.3651 107.323 26.9438C66.2478 23.8898 8.14536 24.1818 5.12289 27.4568C3.61568 29.0911 3.88811 29.275 6.44795 28.3522C8.22114 27.7149 30.3779 27.2197 55.6861 27.2535C94.1433 27.3035 102.714 27.7391 107.881 29.8993C111.28 31.3207 117.412 32.3693 121.51 32.2306C135.028 31.774 139.656 32.2193 138.631 33.8794C138.072 34.7844 130.405 35.4927 121.162 35.4927C108.493 35.4927 103.818 34.8812 100.91 32.842C97.809 30.6689 94.4834 30.3543 82.4161 31.098C74.3239 31.5949 64.2554 31.4513 60.0417 30.777C54.3917 29.8719 51.5143 30.1559 49.0882 31.8563C46.4236 33.7245 41.8166 33.9439 24.9133 33.0082C9.79927 32.1709 4.02997 32.3548 4.02997 33.6728C4.02997 35.875 46.8798 36.2767 48.2307 34.0875C49.401 32.1935 99.4661 33.5632 101.444 35.5427C102.303 36.4026 109.933 37.1173 118.4 37.1302C137.357 37.1608 135.386 40.1115 116.063 40.6278L103.167 40.9731L114.906 41.5312C130.045 42.2508 128.648 45.1644 113.147 45.1967C106.772 45.2112 100.467 45.9807 99.1372 46.9084C97.3415 48.1619 98.0749 48.3281 101.994 47.5537C108.398 46.2905 120.459 48.1135 119.198 50.156C118.699 50.9642 114.846 51.6257 110.634 51.6257C106.398 51.6257 101.579 52.684 99.8481 53.994C98.1281 55.2976 95.6311 56.3285 94.3013 56.2865C92.6619 56.2349 92.5313 55.9493 93.8983 55.3976C98.1716 53.6714 95.6102 52.3743 89.0623 52.9454C82.6224 53.5084 82.4048 53.3955 85.4353 51.0659C88.029 49.0718 88.3079 48.0184 86.8603 45.671C85.4402 43.3688 83.2285 42.8154 76.3824 43.0542C53.5631 43.848 33.6567 45.6887 31.8206 47.1762C30.7035 48.0813 23.4496 48.8024 15.7008 48.7798C6.81388 48.754 2.80325 49.2299 4.83596 50.0689C9.82668 52.1274 26.4043 51.8532 30.3311 49.6478C33.9065 47.6376 61.1943 44.7821 75.6087 44.9095C83.7605 44.9805 88.1725 47.9958 83.7508 50.4722C79.9739 52.5872 81.0475 54.8507 85.8383 54.8765C89.2928 54.8959 89.7377 55.2476 87.8533 56.4656C86.0769 57.6143 87.1989 58.0353 92.0896 58.0547C96.0632 58.0692 99.5515 57.1045 100.749 55.6589C103.233 52.663 114.219 52.3081 113.252 55.2556C112.889 56.3656 110.11 57.5126 107.079 57.8079C104.049 58.1015 100.707 59.0582 99.6547 59.9326C97.0594 62.088 75.57 60.052 68.8157 57.0109C64.0475 54.8636 63.0674 54.8797 59.6032 57.1496C56.4663 59.2082 50.5938 59.6922 28.8046 59.6922C13.9953 59.6922 2.24551 60.0568 2.69042 60.5021C3.13533 60.9473 15.0431 61.4652 29.1528 61.6524C48.3516 61.9089 56.1036 61.4217 59.9579 59.7164C63.9572 57.9482 65.9384 57.8514 68.8238 59.2824C74.5641 62.1315 98.7262 63.6545 101.51 61.3426C102.78 60.2891 104.939 59.668 106.309 59.9616C108.371 60.4069 108.176 61.2523 105.179 64.8661L101.555 69.2333L81.4054 67.862C67.9646 66.9488 60.5753 67.0456 59.2099 68.154C57.8881 69.23 47.3537 69.5091 29.3881 68.9461C10.0846 68.3411 5.79187 68.475 15.3139 69.3849C32.0092 70.9805 55.2831 71.2499 65.8626 69.9673C70.1698 69.4462 79.8143 69.5301 87.294 70.1528C99.2082 71.1466 100.641 71.5903 98.8616 73.7376C97.2012 75.7413 93.8789 76.0366 80.6638 75.3541C70.0618 74.8072 63.3834 75.1525 61.2636 76.3576C59.4856 77.3676 53.6792 78.2291 48.3596 78.2742C15.7314 78.5453 2.41798 79.2228 2.41798 80.6119C2.41798 82.9141 60.5108 80.7023 64.0717 78.2629C65.9851 76.9529 69.3445 76.74 74.5496 77.5966C78.7633 78.292 85.4756 78.9647 89.4653 79.0938C96.4097 79.3196 96.5129 79.3922 91.8833 80.7974C89.2235 81.6057 82.695 82.2704 77.3754 82.2768C51.2225 82.3059 27.3425 84.1773 24.902 86.3875C23.4286 87.7233 18.201 88.8607 12.4075 89.1108C6.92833 89.3463 2.43893 90.1675 2.43087 90.9354C2.41314 92.9133 22.5033 90.524 27.8197 87.9169C32.8829 85.4341 92.6893 83.2529 92.6893 85.5518C92.6893 87.7476 90.21 88.7026 84.4004 88.7462C81.4231 88.7672 68.1065 88.8285 54.8076 88.8817C34.5497 88.9607 30.1442 89.4157 27.644 91.6776C25.6612 93.4732 20.5271 94.6944 12.3301 95.3204L0 96.2642L11.4693 96.5304C20.9236 96.7514 23.693 96.2045 27.2265 93.4231C31.2806 90.2304 33.0828 90.0788 60.4882 90.5999C76.4243 90.9032 89.4524 91.5146 89.4395 91.9583C89.3396 95.393 84.8292 96.0899 63.1544 96.0222C50.0119 95.9802 38.5571 96.3803 37.6979 96.9111C35.3332 98.3744 47.8905 99.06 68.1065 98.5696C78.0814 98.3276 86.23 98.739 86.2171 99.4811C86.1285 104.329 82.8965 105.395 68.2499 105.413C56.7001 105.428 54.6963 105.72 59.6435 106.668C63.1899 107.349 69.978 107.948 74.7269 107.998C81.918 108.075 83.1979 108.519 82.3838 110.644C81.8454 112.047 81.4054 113.862 81.4054 114.677C81.4054 115.492 79.047 116.266 76.1664 116.4C71.2901 116.624 71.2337 116.689 75.3604 117.313C78.7633 117.829 79.7934 118.876 79.7934 121.816C79.7934 123.923 79.1357 126.054 78.3329 126.551C77.5301 127.048 77.2319 128.83 77.672 130.513C78.4055 133.32 77.2722 133.619 63.8976 134.141C55.8344 134.456 48.495 135.54 47.4714 136.566C46.0754 137.965 47.4053 138.041 52.8683 136.874C56.8548 136.024 63.638 135.601 67.9404 135.939L75.7634 136.55L66.3881 136.84C55.7232 137.171 51.611 138.88 49.0947 144.024L47.3376 147.617L50.2666 144.186C54.0177 139.791 76.5694 137.281 76.5694 141.258C76.5694 142.929 74.5834 143.584 69.5121 143.584C64.8309 143.584 61.7117 144.502 60.2432 146.314C58.3813 148.611 58.3813 148.832 60.2367 147.714C63.9072 145.501 76.5726 145.739 76.571 148.021C76.5694 149.13 74.7221 150.037 72.4621 150.037C70.1746 150.037 66.7347 151.788 64.6955 153.99C61.6247 157.305 59.2309 158.034 49.862 158.513L38.6877 159.085L51.1242 159.401C61.8423 159.673 63.7847 159.298 65.1839 156.681C67.0812 153.133 76.7338 150.96 75.4233 154.374C74.9784 155.539 73.6259 156.49 72.4185 156.49C71.2112 156.49 69.2397 158.373 68.0355 160.672C65.8803 164.786 65.4918 164.868 44.2071 165.681C32.3058 166.135 22.2067 166.853 21.7651 167.277C21.3234 167.7 31.4789 167.774 44.3329 167.441C66.5299 166.869 67.7825 166.662 69.2816 163.308C71.9736 157.286 74.9574 157.545 74.9574 163.8C74.9574 169.711 73.8742 170.21 62.2243 169.676C60.0981 169.577 56.297 170.716 53.7775 172.206C50.194 174.324 48.7723 174.488 47.2473 172.962C45.9852 171.699 40.7124 171.121 32.3204 171.326L19.3438 171.643L30.6278 172.154C36.8339 172.436 43.5382 173.503 45.5241 174.524C48.2548 175.927 50.1441 175.921 53.2585 174.501C55.5233 173.469 60.8154 172.623 65.0179 172.623C72.3524 172.623 72.6748 172.819 73.0279 177.463C73.339 181.542 72.8151 182.303 69.6991 182.303C67.6664 182.303 64.76 183.755 63.2415 185.53C60.9186 188.245 58.4861 188.756 47.8776 188.756C39.2906 188.756 34.2773 188.001 32.1446 186.388C29.9507 184.726 25.4017 184.099 16.9259 184.284L4.83596 184.549L15.9603 185.118C22.1809 185.438 28.5563 186.72 30.4246 188.029C32.6782 189.61 38.0284 190.37 46.8895 190.37C57.5737 190.37 60.7767 189.77 64.1136 187.143C66.3671 185.368 69.3461 183.917 70.7324 183.917C73.0053 183.917 73.3067 207.316 73.7968 421.475C74.2804 632.303 74.6318 660.305 76.924 670.327C83.0851 697.273 92.0638 711.742 110.204 723.965C125.222 734.085 134.648 736.473 159.587 736.473C178.41 736.473 181.937 736.002 194.244 731.838C201.781 729.29 217.014 722.645 228.096 717.074C255.703 703.197 266.246 700.173 287.043 700.173C307.204 700.173 318.106 703.62 327.833 713.065C338.724 723.644 340.002 727.435 340.07 749.379C340.134 770.459 337.916 777.956 330.783 780.761C328.831 781.529 324.765 783.084 321.749 784.215C318.733 785.348 312.969 789.128 308.941 792.617L301.616 798.962L288.968 798.23C278.308 797.612 275.938 796.949 273.88 794.008C270.746 789.533 263.288 789.426 256.283 793.759C251.146 796.936 248.863 800.74 245.97 810.941C244.019 817.82 249.247 825.48 259.749 831.128C277.41 840.631 312.458 851.217 336.217 854.228L343.59 855.163L341.49 865.19C337.208 885.635 340.194 886.19 352.345 867.207C359.52 855.994 361.981 853.371 366.086 852.551C368.836 852.003 385.882 852.639 403.967 853.965C432.709 856.073 458.685 856.469 495.283 855.357C501.389 855.172 505.358 854.347 505.358 853.265C505.358 852.226 504.18 851.934 502.537 852.566C500.986 853.165 479.365 853.628 454.49 853.594C416.639 853.544 408.249 853.11 403.045 850.933C399.526 849.462 393.268 848.478 388.628 848.665C374.684 849.23 370.42 848.767 373.175 846.984C374.505 846.124 382.328 845.409 390.56 845.395C401.778 845.377 406.543 846.037 409.582 848.029C412.901 850.206 416.322 850.522 428.466 849.773C436.623 849.272 446.745 849.412 450.958 850.086C456.586 850.988 459.487 850.708 461.883 849.028C464.497 847.195 469.085 846.966 485.029 847.875C499.64 848.709 505.226 848.504 506.09 847.103C506.983 845.658 501.686 845.393 484.148 846.008C444.359 847.402 411.363 847.129 409.627 845.392C408.729 844.493 401.567 843.757 393.713 843.757C375.43 843.757 376.231 840.655 394.629 840.215L407.833 839.898L396.952 839.334C382.381 838.579 383.015 835.697 397.758 835.667C404.186 835.652 410.533 834.916 411.863 834.029C413.563 832.897 412.272 832.722 407.506 833.442C399.794 834.607 391.913 833.137 393.354 830.804C393.886 829.943 397.453 829.238 401.283 829.238C405.504 829.238 409.034 828.286 410.251 826.818C411.355 825.487 413.346 824.398 414.676 824.398C416.575 824.398 416.689 824.887 415.206 826.674C413.618 828.589 414.421 828.844 420.247 828.278C424.057 827.907 426.271 828.031 425.162 828.555C424.054 829.078 423.147 830.809 423.147 832.401C423.147 837.496 427.231 839.31 436.399 838.283C441.078 837.761 452.162 836.89 461.028 836.349C469.894 835.807 477.837 834.713 478.68 833.915C479.521 833.118 486.775 832.413 494.8 832.351C504.451 832.276 508.297 831.769 506.164 830.851C501.438 828.818 484.729 828.949 480.809 831.048C478.95 832.045 471.925 833.163 465.199 833.536C458.472 833.908 449.759 834.95 445.835 835.852C433.523 838.684 420.542 834.7 426.906 830.043C430.014 827.768 428.8 826.021 424.086 825.987C421.328 825.966 421.161 825.682 423.147 824.398C424.926 823.247 423.861 822.841 419.117 822.86C415.57 822.875 411.26 823.952 409.54 825.256C407.818 826.558 404.285 827.624 401.685 827.624C397.832 827.624 397.303 827.21 398.822 825.38C399.845 824.146 403.016 822.592 405.869 821.929C414.524 819.918 436.36 821.011 442.184 823.748C447.02 826.019 447.884 826.016 451.397 823.714C454.522 821.663 460.334 821.171 481.389 821.171C495.755 821.171 507.038 820.7 506.462 820.126C505.888 819.551 494.203 818.896 480.495 818.671C461.375 818.356 454.893 818.775 452.657 820.471C449.233 823.07 443.788 823.438 441.57 821.218C439.552 819.198 410.636 818.433 405.586 820.268L401.727 821.67L405.56 816.481C409.126 811.653 409.899 811.354 416.673 812.174C420.677 812.659 429.756 812.982 436.849 812.893C443.941 812.803 463.164 812.737 479.566 812.747C507.294 812.764 508.369 812.659 494.88 811.254C486.901 810.423 472.756 810.093 463.446 810.52C429.504 812.075 411.189 811.053 412.346 807.666C412.757 806.468 418.76 805.845 429.894 805.845C441.278 805.845 447.636 805.169 449.312 803.778C450.903 802.46 455.514 801.868 462.058 802.142C483.188 803.026 508.582 801.853 508.582 799.99C508.582 798.677 503.538 798.498 490.447 799.351C480.474 800 467.388 800.458 461.368 800.369C454.385 800.266 449.134 801.039 446.861 802.507C444.167 804.244 441.525 804.457 436.043 803.38C432.053 802.594 425.887 801.899 422.341 801.832C417.148 801.737 416.444 801.392 418.722 800.064C420.277 799.158 426.081 798.454 431.618 798.499C452.693 798.672 484.26 796.159 486.262 794.148C487.446 792.961 492.448 792.132 498.427 792.132C504.944 792.132 508.582 791.474 508.582 790.296C508.582 787.889 487.907 789.889 484.628 792.614C481.989 794.808 446.242 797.367 426.09 796.805C420.719 796.655 418.781 796.007 419.342 794.545C420.264 792.141 429.13 790.041 431.682 791.62C432.649 792.217 443.637 792.533 456.101 792.322C474.253 792.012 479.561 791.394 482.79 789.21C485.223 787.566 491.614 786.111 498.91 785.543L511 784.599L499.716 784.343C490.761 784.139 487.434 784.76 483.596 787.355C479.131 790.372 476.581 790.593 450.388 790.23C424.839 789.876 422.084 789.57 422.715 787.155C423.334 784.788 426.201 784.51 447.059 784.799C469.419 785.107 471.081 784.912 477.721 781.202C483.786 777.81 486.364 777.359 496.661 777.878C508.843 778.494 512.81 777.107 503.291 775.561C495.001 774.214 482.36 776.175 478.14 779.459C474.779 782.076 471.197 782.452 449.678 782.452C426.416 782.452 425.104 782.286 425.85 779.432C426.45 777.138 429.029 776.029 436.579 774.816L446.521 773.221L437.476 772.996C428.74 772.78 428.457 772.633 429.2 768.739C429.624 766.521 430.488 764.706 431.12 764.706C431.751 764.706 432.262 763.436 432.256 761.882C432.201 749.203 432.827 746.959 436.446 746.846C439.884 746.738 439.905 746.666 436.849 745.451L433.625 744.168L436.849 743.331C439.457 742.653 439.536 742.458 437.264 742.307C432.324 741.977 434.605 732.427 440.237 729.861L444.909 727.732L440.476 728.647C435.23 729.731 434.302 726.238 439.046 723.271C440.698 722.239 442.486 719.725 443.019 717.686C443.885 714.37 443.574 714.485 440.073 718.772L436.159 723.566L436.101 718.404C436.065 715.263 437.071 712.664 438.667 711.77C440.463 710.765 440.717 709.944 439.473 709.174C438.473 708.556 437.655 705.915 437.655 703.305C437.655 699.768 438.412 698.56 440.629 698.56C442.265 698.56 444.984 696.926 446.674 694.93C449.741 691.303 449.741 691.303 446.393 694.124C437.983 701.209 438.461 714.94 438.461 465.841C438.461 249.554 438.272 233.671 435.528 218.127C430.415 189.168 425.131 177.775 410.462 164.081C401.021 155.269 386.385 147.774 373.311 145.059C368.107 143.976 357.283 143.532 347.414 143.994C326.705 144.963 311.928 149.416 287.374 162.087C255.465 178.554 251.454 179.704 225.678 179.799C205.004 179.877 202.501 179.564 195.856 176.079C186.421 171.133 178.669 163.731 174.493 155.684C171.717 150.336 171.127 146.189 171.051 131.484C170.974 116.28 171.462 112.789 174.456 107.115C177.378 101.578 179.2 100.143 185.557 98.3615C190.221 97.0547 196.272 93.4683 201.192 89.0947L209.22 81.9574L221.481 82.5221C231.591 82.9867 234.375 83.7207 237.365 86.715C242.011 91.3662 248.675 91.3549 255.664 86.686C259.807 83.9192 261.885 80.7442 264.19 73.6618C267.198 64.4208 267.197 64.2401 264.074 59.9778C258.35 52.1645 246.831 45.9775 224.003 38.4563C203.858 31.8176 197.086 30.201 174.317 26.5872C168.303 25.6321 168.129 25.4257 169.16 20.4631C171.635 8.5731 172.112 0 170.3 0C169.294 0 166.227 3.08463 163.483 6.85654ZM165.957 17.5463C164.656 23.1267 163.936 28.2506 164.355 28.9298C164.774 29.6106 170.764 30.6221 177.667 31.1787C192.344 32.3612 213.131 37.7529 234.314 45.871C250.583 52.1065 256.935 55.909 260.699 61.6669C264.393 67.3215 260.341 79.7262 253.417 83.9498C246.708 88.0444 243.494 87.9395 239.353 83.4884C236.438 80.3554 234.019 79.7827 221.69 79.3003L207.406 78.7405L200.096 85.4841C187.223 97.3596 170.102 99.6456 161.482 90.6402C155.429 84.3144 151.87 74.7637 153.108 68.162C154.254 62.0428 164.84 50.3512 173.106 46.0727C177.801 43.6447 178.502 43.6866 184.5 46.7487C192.66 50.9142 194.702 50.8513 200.036 46.2598L204.397 42.5057L198.727 39C195.61 37.0705 191.627 35.4927 189.879 35.4927C184.082 35.4927 166.149 45.7113 158.486 53.381C149.802 62.0718 147.608 69.2914 150.606 79.3083C153.057 87.4894 162.417 97.892 168.543 99.2375C174.124 100.465 174.09 100.331 170.468 106.962C166.057 115.035 166.562 148.434 171.229 157.297C182.227 178.183 206.117 187.753 237.504 183.849C252.993 181.922 263.839 177.988 290.964 164.452C315.903 152.007 328.449 148.238 348.189 147.264C385.049 145.442 414.429 162.513 425.394 192.12C433.302 213.472 434.379 228.482 434.295 316.207C434.226 387.602 433.979 395.179 431.966 387.696C415.941 328.175 371.052 280.202 312.726 260.268C278.295 248.5 234.072 248.712 197.868 260.816C142.248 279.414 97.3882 326.573 80.7235 383.966L76.7403 397.679L76.679 298.461C76.5839 148.24 79.018 121.044 95.5054 88.025C98.5795 81.8703 103.81 73.1584 107.128 68.6654C115.53 57.2948 133.137 41.1876 143.665 35.241C150.737 31.2464 154.012 27.8827 160.03 18.4368C164.168 11.9417 167.726 6.80168 167.938 7.01303C168.15 7.22437 167.258 11.9643 165.957 17.5463ZM339.323 35.5669C337.558 36.7623 338.209 36.9124 341.741 36.1218C347.669 34.7941 348.955 33.8713 344.831 33.9036C343.132 33.9181 340.653 34.665 339.323 35.5669ZM356.652 37.0882C359.534 38.8467 361.893 40.4778 361.894 40.7117C361.898 40.9472 356.512 40.9021 349.929 40.6133C342.509 40.2858 336.533 40.8472 334.208 42.0862C330.665 43.977 330.588 43.9157 332.804 41.0005C334.097 39.3017 332.521 40.36 329.303 43.3511C325.586 46.8068 323.801 49.6962 324.409 51.2788C324.961 52.7195 324.683 53.3487 323.75 52.7711C322.723 52.1355 322.185 56.3785 322.267 64.4676C322.385 75.8914 322.888 77.858 327.293 84.1321C330.686 88.964 334.397 91.9502 339.383 93.8636L346.577 96.6223L337.526 96.7111C326.099 96.8208 321.232 93.3263 318.322 82.9222C316.72 77.1949 316.623 73.3891 317.919 67.1311C319.963 57.269 319.302 55.2556 316.881 63.9771C313.266 77.0094 315.909 88.5203 323.977 94.8719C330.296 99.8457 337.287 100.678 346.487 97.5516C350.841 96.0722 356.854 94.8622 359.847 94.8622C365.995 94.8622 371.204 90.3659 372.516 83.924C372.972 81.688 375.095 76.0834 377.234 71.4677C380.463 64.5015 380.827 62.3106 379.383 58.5613C377.46 53.5713 356.799 33.8761 353.498 33.8858C352.351 33.889 353.77 35.3297 356.652 37.0882ZM67.7035 36.9866C70.3633 37.7303 77.7558 38.424 84.1312 38.5289C90.5066 38.6338 96.1712 39.4453 96.7192 40.3326C97.2673 41.2199 98.9422 41.8878 100.441 41.8184C102.666 41.7152 102.722 41.5216 100.749 40.7698C99.4193 40.2632 97.8589 39.1242 97.2834 38.2401C96.7064 37.3544 88.727 36.4074 79.5516 36.1331C68.6288 35.8089 64.5375 36.1025 67.7035 36.9866ZM56.3003 38.6773C55.4362 39.542 42.7789 40.4681 28.1711 40.7375L1.61199 41.2247L28.7272 41.5861C51.0258 41.8813 56.2729 41.5151 58.2621 39.5259C59.592 38.1949 60.0481 37.106 59.2744 37.106C58.5022 37.106 57.1643 37.8126 56.3003 38.6773ZM194.351 40.389C199.14 42.9542 198.062 45.1725 192.023 45.1725C185.728 45.1725 180.884 41.0957 185.696 39.8486C190.472 38.6079 191.098 38.6483 194.351 40.389ZM60.4495 49.5348C57.3464 49.8769 51.258 51.3046 46.9185 52.7098C40.6575 54.7377 35.2284 55.0475 20.6012 54.207C8.1357 53.4923 2.50342 53.6859 3.19657 54.8071C4.87949 57.532 42.8724 56.9109 49.7234 54.0456C58.2733 50.4706 71.0612 50.8739 75.3282 54.8523C80.6977 59.8584 81.623 58.6532 76.5694 53.239C74.0853 50.577 70.7114 48.5152 69.072 48.6572C67.4327 48.7992 63.5526 49.1944 60.4495 49.5348ZM378.011 61.7524C378.011 66.2164 376.243 64.1659 373.77 56.8383L371.739 50.819L374.876 54.628C376.601 56.7221 378.011 59.9293 378.011 61.7524ZM350.93 69.6947C350.021 70.6046 348.378 70.7934 347.28 70.1142C345.797 69.1978 346.068 68.3056 348.33 66.6504C351.699 64.1836 353.881 66.7407 350.93 69.6947ZM368.536 86.594C366.635 89.8642 366.177 88.8172 367.733 84.7613C368.284 83.319 369.077 82.4785 369.492 82.8947C369.908 83.3093 369.477 84.9743 368.536 86.594ZM30.3553 101.027C28.0067 102.669 22.7129 103.516 14.2354 103.608C4.68442 103.711 2.93381 104.037 7.04115 104.947C14.4853 106.594 29.4172 104.347 32.6734 101.09C35.9602 97.7984 35.0059 97.7726 30.3553 101.027ZM36.2181 107.554C34.0307 108.859 33.568 109.514 35.1929 109.009C36.8162 108.504 41.4716 108.091 45.5354 108.091C54 108.091 54.1338 107.327 45.8901 106.059C42.3211 105.508 38.7119 106.067 36.2181 107.554ZM9.31728 110.892C13.5552 111.226 20.0837 111.221 23.8252 110.884C27.5666 110.545 24.0992 110.272 16.1199 110.277C8.14054 110.282 5.07937 110.56 9.31728 110.892ZM38.2621 116.427C40.8042 118.042 49.567 117.987 58.0315 116.301C63.1528 115.282 61.5731 115.03 50.352 115.075C42.5822 115.108 37.1418 115.716 38.2621 116.427ZM6.07558 120.502C7.64404 120.912 9.82022 120.885 10.9115 120.443C12.0029 120.001 10.7197 119.667 8.05994 119.699C5.40016 119.731 4.50711 120.093 6.07558 120.502ZM47.5536 127.483C44.968 128.291 49.2559 128.8 59.5098 128.903C68.3015 128.992 75.0912 128.661 74.5979 128.167C73.1052 126.672 51.8657 126.134 47.5536 127.483ZM19.8484 128.553C21.0106 129.019 22.4018 128.961 22.937 128.425C23.4722 127.89 22.5211 127.509 20.8221 127.578C18.9441 127.656 18.562 128.038 19.8484 128.553ZM37.4787 128.519C38.5878 128.967 40.4012 128.967 41.5087 128.519C42.6177 128.072 41.7102 127.706 39.4937 127.706C37.2772 127.706 36.3713 128.072 37.4787 128.519ZM9.67355 137.128C9.04487 138.146 12.688 138.744 19.5179 138.744C25.4807 138.744 30.0571 138.483 29.688 138.162C27.8616 136.577 10.565 135.684 9.67355 137.128ZM34.6577 139.551C35.7619 140.882 37.353 141.971 38.1944 141.971C39.0359 141.971 38.6361 140.882 37.3062 139.551C35.9763 138.22 34.3853 137.131 33.7695 137.131C33.1538 137.131 33.5535 138.22 34.6577 139.551ZM24.9858 143.085C27.2023 143.529 30.041 144.731 31.2935 145.755C33.0893 147.224 33.4036 147.106 32.7814 145.197C32.3074 143.747 29.7831 142.677 26.4737 142.527C22.6355 142.355 22.1826 142.524 24.9858 143.085ZM36.7033 147.929C38.2718 148.338 40.448 148.311 41.5393 147.869C42.6306 147.427 41.3475 147.093 38.6877 147.125C36.0279 147.157 35.1349 147.519 36.7033 147.929ZM15.7395 152.809C18.1897 153.178 21.8166 153.169 23.7994 152.786C25.7821 152.404 23.7768 152.101 19.3438 152.112C14.9109 152.125 13.2892 152.438 15.7395 152.809ZM31.7578 153.352C32.9087 153.964 38.9295 154.837 45.1356 155.293C51.3418 155.75 54.9688 155.576 53.1956 154.906C49.035 153.336 28.9916 151.883 31.7578 153.352ZM7.59729 156.87C6.0788 157.521 9.85248 157.884 15.9861 157.676C23.7543 157.412 27.3393 157.908 27.8068 159.314C28.1792 160.43 30.7583 161.232 33.5825 161.111C38.009 160.921 38.1509 160.791 34.6577 160.141C32.4412 159.728 30.1151 158.565 29.4881 157.555C28.2243 155.518 11.9384 155.006 7.59729 156.87ZM10.9115 167.288C12.48 167.698 14.6562 167.671 15.7475 167.229C16.8388 166.786 15.5557 166.453 12.8959 166.485C10.2361 166.517 9.34307 166.878 10.9115 167.288ZM8.46293 173.762C10.4586 174.146 13.7212 174.146 15.7169 173.762C17.7125 173.377 16.0796 173.062 12.0899 173.062C8.10024 173.062 6.46729 173.377 8.46293 173.762ZM18.2348 175.737C-1.03813 177.099 -1.31861 178.823 17.8947 177.817C31.2097 177.12 33.6809 177.386 34.9479 179.653C37.2385 183.749 56.2584 183.423 59.189 179.236C60.3689 177.55 63.1302 175.834 65.3258 175.422C69.2461 174.688 69.2397 174.672 64.9389 174.456C62.0599 174.312 59.9724 175.34 58.8375 177.463C57.4206 180.112 55.462 180.69 47.8841 180.69C40.4029 180.69 38.2766 180.08 36.6437 177.463C35.5363 175.689 34.0919 174.351 33.4358 174.492C32.7782 174.634 25.9369 175.193 18.2348 175.737ZM299.83 260.376C317.939 265.072 343.071 276.743 358.433 287.589C381.109 303.601 403.466 329.912 416.333 355.733C422.916 368.946 429.142 389.325 432.019 407.081C444.409 483.526 404.697 560.76 334.944 595.89C291.044 617.998 236.92 620.454 191.021 602.419C94.1723 564.367 50.0377 451.112 95.2362 356.63C120.346 304.141 167.186 268.423 225.678 257.157C243.855 253.656 279.959 255.225 299.83 260.376ZM238.909 273.413C222.172 279.821 208.78 294.883 205.42 311.079C195.752 357.697 245.314 392.258 284.298 366.079C300.45 355.233 308.202 338.669 306.731 318.147C305.454 300.349 295.706 285.568 279.383 276.675C272.369 272.855 268.56 271.945 257.937 271.551C249.468 271.237 242.918 271.877 238.909 273.413ZM275.026 277.133C278.916 278.903 283.549 281.567 285.322 283.052C288.414 285.643 288.281 285.708 282.098 284.622C278.551 283.998 264.769 283.046 251.47 282.505L227.29 281.521L233.738 278.421C237.285 276.715 242.362 274.75 245.022 274.055C252.555 272.084 267.242 273.59 275.026 277.133ZM282.578 288.872C293.928 290.822 294.484 291.132 298.295 297.641C303.278 306.15 303.241 306.826 297.897 304.792C287.437 300.812 256.092 296.848 235.081 296.848H213.369L216.735 292.116C218.587 289.514 221.719 287.023 223.695 286.582C229.931 285.193 270.308 286.763 282.578 288.872ZM268.396 302.444C283.22 304.721 302.144 309.114 303.66 310.63C304.068 311.037 304.733 315.386 305.14 320.294L305.879 329.217L298.824 328.131C294.944 327.534 289.231 325.787 286.128 324.25C267.097 314.812 235.872 308.615 217.206 310.57L207.123 311.626L208.791 307.231C209.71 304.814 210.845 302.215 211.314 301.455C212.695 299.218 251.786 299.895 268.396 302.444ZM254.191 316.985C259.788 318.3 267.908 320.736 272.234 322.398L280.104 325.418L261.756 326.27C246.634 326.97 240.373 328.112 226.131 332.771C207.049 339.013 208.417 339.395 206.267 327.238C204.136 315.185 205.042 314.594 225.686 314.594C236.229 314.594 248.34 315.61 254.191 316.985ZM148.654 329.167C141.718 330.909 134.217 334.562 127.75 339.347C123.502 342.49 121.326 346.668 125.179 344.287C126.341 343.567 126.601 343.845 125.872 345.024C125.23 346.063 124.078 346.525 123.311 346.05C121.181 344.732 114.292 354.794 111.393 363.453C105.219 381.896 109.888 402.434 123.411 416.329C133.079 426.262 143.299 431.002 157.143 431.973C177.58 433.407 195.549 423.29 205.635 404.671C210.78 395.174 211.169 393.428 211.156 379.933C211.143 367.362 210.567 364.323 206.866 357.282C201.718 347.486 190.115 336.412 180.573 332.187C172.207 328.485 157.074 327.052 148.654 329.167ZM294.252 332.373C297.763 334.167 300.636 335.819 300.636 336.046C300.636 336.274 297.831 336.191 294.402 335.864C288.675 335.317 281.408 336.043 249.858 340.313C243.652 341.154 233.134 343.692 226.484 345.955C215.204 349.793 214.257 349.885 212.358 347.32C209.117 342.945 210.664 341.451 222.556 337.474C241.04 331.293 252.195 329.377 270.475 329.241C284.914 329.136 288.952 329.667 294.252 332.373ZM176.603 333.179C180.42 334.526 186.028 337.526 189.062 339.842L194.578 344.053L181.919 350.033C174.955 353.323 163.186 360.167 155.763 365.242L142.268 374.47L143.383 367.023C144.844 357.28 148.475 343.433 151.425 336.366C153.664 331.005 154.172 330.727 161.719 330.727C166.086 330.727 172.784 331.831 176.603 333.179ZM330.043 335.625C318.872 341.212 309.885 350.348 304.903 361.183C302.264 366.92 301.469 371.802 301.458 382.353C301.443 394.101 302.083 397.374 305.923 405.199C314.6 422.882 329.524 432.517 349.982 433.641C361.659 434.283 364.114 433.885 372.948 429.918C383.769 425.057 393.248 415.968 399.251 404.695C402.405 398.773 402.987 395.291 402.984 382.353C402.982 368.838 402.47 366.052 398.646 358.786C393.117 348.281 380.789 337.175 370.62 333.542C365.884 331.85 358.1 330.714 351.268 330.719C341.774 330.725 338.18 331.556 330.043 335.625ZM374.083 337.668C384.264 342.878 392.986 351.957 397.645 362.186C402.736 373.367 402.773 391.268 397.727 402.316C393.165 412.302 390.913 410.852 386.037 394.785C380.453 376.385 371.025 360.22 354.881 341.362L346.721 331.832L356.422 332.713C362.102 333.228 369.422 335.281 374.083 337.668ZM146.415 340.004C145.026 343.332 142.514 353.665 140.838 362.967C138.653 375.078 136.845 380.804 134.469 383.134L131.151 386.386L132.197 379.933C135.417 360.092 144.034 333.954 147.357 333.954C148.232 333.954 147.808 336.672 146.415 340.004ZM354.318 346.053C365.186 358.991 375.203 375.159 379.72 387.057C381.433 391.568 382.57 395.259 382.247 395.259C381.923 395.259 378.844 390.413 375.403 384.487C367.793 371.389 346.34 348.275 336.359 342.42L329.058 338.139L333.788 336.088C341.456 332.763 344.322 334.154 354.318 346.053ZM134.601 337.737C134.601 338.043 132.97 339.676 130.974 341.367L127.347 344.44L130.418 340.81C133.303 337.4 134.601 336.446 134.601 337.737ZM136.851 347.263C133.194 357.53 128.177 379.258 128.164 384.892C128.158 387.938 126.022 392.852 122.629 397.628L117.106 405.402L114.333 399.121C112.584 395.156 111.5 388.333 111.395 380.617C111.243 369.596 111.669 367.814 115.717 362.501C121.273 355.207 136.182 340.407 137.972 340.407C138.699 340.407 138.194 343.493 136.851 347.263ZM300.199 342.995C299.664 343.53 298.272 343.588 297.11 343.122C295.824 342.607 296.206 342.225 298.084 342.148C299.783 342.078 300.734 342.459 300.199 342.995ZM291.389 346.107C297.481 346.867 298.798 347.549 297.758 349.408C296.706 351.292 291.012 351.826 268.775 352.129C244.912 352.455 241.903 352.229 246.931 350.49C256.44 347.202 273.678 344.027 278.874 344.608C281.534 344.905 287.166 345.579 291.389 346.107ZM236.962 350.264C220.546 356.421 217.288 357.379 218.94 355.569C220.521 353.836 243.99 345.515 247.44 345.463C248.77 345.444 244.055 347.604 236.962 350.264ZM202.314 353.333C203.502 355.553 201.102 357.789 188.928 365.807C180.77 371.179 171.785 378.008 168.96 380.981C160.659 389.719 152.866 404.176 149.876 416.389C147.179 427.407 146.954 427.74 142.859 426.728C140.535 426.154 137.973 425.039 137.167 424.253C134.807 421.943 140.681 382.206 143.913 378.633C149.188 372.799 161.94 364.419 178.948 355.612C196.904 346.315 198.479 346.162 202.314 353.333ZM324.815 350.087C327.032 351.823 328.265 353.258 327.556 353.278C325.813 353.326 316.756 348.586 316.756 347.625C316.756 345.842 321.08 347.162 324.815 350.087ZM349.255 361.073L354.637 366.863L348.995 362.816C325.865 346.224 324.337 344.863 335.553 350.845C340.128 353.286 346.294 357.889 349.255 361.073ZM123.317 349.083C123.317 349.417 122.048 350.688 120.496 351.906C117.939 353.912 117.883 353.855 119.887 351.297C121.994 348.609 123.317 347.755 123.317 349.083ZM324.201 355.895C337.021 361.964 348.907 374.327 355.841 388.806C359.028 395.461 362.031 403.084 362.517 405.746C363.063 408.758 361.58 406.694 358.59 400.283C349.021 379.768 335.688 365.744 319.491 359.155C314.444 357.103 311.146 354.831 311.531 353.675C312.468 350.861 314.22 351.168 324.201 355.895ZM291.689 356.432C290.793 357.314 287.817 357.382 284.516 356.598L278.874 355.257L286.047 355.091C290.506 354.99 292.64 355.496 291.689 356.432ZM337.918 359.363C339.921 361.922 339.865 361.978 337.308 359.973C335.758 358.755 334.487 357.484 334.487 357.15C334.487 355.822 335.811 356.675 337.918 359.363ZM327.327 366.997C334.296 371.082 345.681 382.591 349.071 388.977C350.257 391.21 346.714 388.722 340.676 383.082C334.915 377.7 325.222 370.827 319.061 367.756C312.916 364.694 307.635 362.053 307.325 361.891C307.014 361.728 307.235 360.826 307.814 359.888C309.005 357.96 316.68 360.755 327.327 366.997ZM285.212 361.204C285.701 361.993 284.409 363.748 282.344 365.103C279.59 366.91 272.971 367.709 257.518 368.102C245.928 368.398 237.288 368.106 238.316 367.454C239.345 366.802 242.138 366.258 244.524 366.244C246.91 366.231 249.239 365.608 249.702 364.86C250.163 364.113 246.454 364.142 241.458 364.926C229.457 366.81 224.719 364.89 234.544 362.125C242.86 359.784 283.876 359.037 285.212 361.204ZM207.14 362.774C207.14 363.54 204.234 366.183 200.683 368.646C189.889 376.133 172.52 395.703 166.92 406.686L161.642 417.039L162.679 409.779C164.378 397.881 170.945 386.515 181.845 376.609C194.618 365.002 207.14 358.152 207.14 362.774ZM355.071 372.523C363.482 379.342 368.386 391.294 368.233 404.597L368.126 413.812L365.791 405.115C362.243 391.91 358.38 384.231 349.192 372.107C344.586 366.026 342.499 362.396 344.554 364.04C346.61 365.682 351.342 369.5 355.071 372.523ZM318.011 370.929C331.803 377.973 335.841 381.593 325.621 377.755C321.189 376.09 314.842 373.847 311.517 372.77C308.193 371.69 305.472 369.777 305.472 368.514C305.472 365.213 307.633 365.629 318.011 370.929ZM192.2 382.756C177.743 396.91 170.656 407.377 167.432 419.344C166.102 424.284 165.411 425.388 165.338 422.685C165.1 413.714 174.664 398.194 189.428 383.6C197.302 375.816 204.207 369.446 204.771 369.446C205.333 369.446 199.677 375.435 192.2 382.756ZM318.058 384.745C323.308 389.611 330.549 397.415 334.15 402.088C341.332 411.413 352.219 428.934 352.219 431.168C352.219 433.496 343.781 431.75 342.404 429.139C341.703 427.808 339.356 422.639 337.187 417.652C332.248 406.293 324.204 397.298 311.868 389.345C303.121 383.705 300.455 379.844 303.323 376.976C305.704 374.591 308.944 376.3 318.058 384.745ZM330.457 383.587C348.049 392.455 358.04 405.208 359.422 420.561C359.942 426.344 359.657 430.945 358.745 431.51C357.879 432.046 355.401 429.009 353.238 424.762C348.296 415.053 334.858 396.863 325.057 386.613C318.654 379.918 318.15 378.949 321.591 379.962C323.808 380.615 327.798 382.245 330.457 383.587ZM206.254 383.651C201.023 388.088 192.313 393.864 191.731 393.283C190.879 392.429 204.142 382.504 206.254 382.417C207.221 382.377 207.221 382.832 206.254 383.651ZM373.86 394.049C377.278 401.809 381.235 416.644 381.235 421.7C381.235 423.276 374.995 427.532 372.696 427.524C372.516 427.524 372.285 420.081 372.184 410.987C372.081 401.893 371.192 392.455 370.209 390.016C366.974 381.996 370.045 385.387 373.86 394.049ZM134.469 404.726C133.389 413.656 131.888 420.582 131.134 420.115C128.566 418.526 129.549 394.672 132.347 390.674C133.768 388.645 135.268 387.323 135.683 387.738C136.097 388.153 135.55 395.796 134.469 404.726ZM207.01 390.46C205.624 391.237 199.825 395.3 194.127 399.489C188.428 403.677 184.855 405.765 186.185 404.128C189.857 399.609 207.468 386.983 208.565 388.082C209.097 388.612 208.396 389.684 207.01 390.46ZM321.5 400.975C331.529 410.366 342.465 433.267 334.595 428.398C333.649 427.814 332.875 426.038 332.875 424.454C332.875 419.614 320.905 402.706 313.38 396.921C303.207 389.098 302.344 388.078 308.546 391.215C311.567 392.741 317.395 397.134 321.5 400.975ZM204.49 402.792C201.389 409.345 189.076 422.685 186.13 422.685C185.092 422.685 184.582 420.225 184.879 416.645C185.319 411.333 186.617 409.669 195.647 402.856C201.294 398.594 206.252 395.446 206.665 395.859C207.077 396.272 206.099 399.392 204.49 402.792ZM324.412 414.701C332.559 428.15 331.067 429.598 319.536 419.441C312.703 413.422 305.472 401.862 305.472 396.961C305.472 393.125 319.041 405.834 324.412 414.701ZM160.456 403.108C159.633 405.976 158.473 413.28 157.876 419.338C156.917 429.072 156.439 430.258 153.756 429.556C152.086 429.119 150.739 428.303 150.76 427.74C151.003 421.454 159.943 395.884 161.391 397.334C161.698 397.64 161.278 400.239 160.456 403.108ZM126.243 411.767L125.735 417.039L122.779 412.678C119.911 408.448 119.911 408.166 122.779 403.268L125.735 398.218L126.243 402.356C126.522 404.632 126.522 408.867 126.243 411.767ZM386.071 412.564C386.071 416.652 385.805 419.694 385.479 419.325C384.141 417.803 383.361 403.453 384.66 404.257C385.436 404.737 386.071 408.474 386.071 412.564ZM161.494 421.375C160.98 422.661 160.597 422.279 160.52 420.399C160.451 418.699 160.831 417.747 161.366 418.283C161.902 418.818 161.96 420.211 161.494 421.375ZM178.262 426.42C176.174 428.509 175.837 424.618 177.707 419.994C178.758 417.392 178.968 417.495 179.456 420.854C179.761 422.953 179.222 425.459 178.262 426.42ZM247.44 427.525C243.768 431.2 243.41 434.272 246.07 439.328C248.581 444.104 250.567 445.218 256.617 445.247C260.128 445.263 262.564 444.131 264.274 441.685C269.774 433.827 265.357 424.299 256.214 424.299C252.813 424.299 249.416 425.547 247.44 427.525ZM263.023 430.131C265.498 433.911 265.538 434.793 263.413 438.601C258.946 446.603 247.44 443.854 247.44 434.785C247.44 425.96 258.192 422.75 263.023 430.131ZM142.471 442.66C127.171 448.13 115.689 459.762 110.181 475.366C101.907 498.807 112.547 525.869 134.809 537.995C141.779 541.791 145.932 542.82 156.522 543.377C168.208 543.99 170.692 543.581 179.58 539.59C191.748 534.126 203.499 521.905 207.551 510.502C211.18 500.295 211.186 483.881 207.566 473.504C203.676 462.353 188.248 446.798 177.435 443.127C168.059 439.946 150.708 439.714 142.471 442.66ZM159.83 455.098C163.459 476.679 172.676 498.972 185.754 517.799L192.99 528.216L188.691 531.916C186.326 533.952 183.451 535.617 182.298 535.617C179.411 535.617 167.624 518.432 162.006 506.032C156.152 493.109 151.337 473.888 149.933 457.834C148.728 444.057 149.43 441.625 154.398 442.356C157.259 442.776 158.083 444.709 159.83 455.098ZM334.96 444.286C309.466 452.62 293.927 481.748 301.347 507.293C308.351 531.411 327.175 545.834 351.645 545.834C388.992 545.834 413.594 507.405 398.211 473.099C393.236 462.003 384.111 452.485 372.932 446.732C364.204 442.24 345.004 441.003 334.96 444.286ZM150.561 483.417C154.825 500.066 161.163 514.156 170.518 527.789L177.878 538.514L171.15 540.268C165.021 541.865 164.157 541.7 161.424 538.42C150.239 524.99 138.334 488.611 135.542 459.332L134.499 448.385L139.79 446.152L145.079 443.918L146.136 457.099C146.72 464.347 148.709 476.191 150.561 483.417ZM357.568 447.057C359.365 453.94 352.727 469.794 343.284 481.168C338.313 487.156 334.02 492.057 333.747 492.057C333.473 492.057 335.097 487.521 337.354 481.974C340.113 475.192 341.706 467.666 342.215 458.985C342.633 451.886 343.785 445.544 344.777 444.892C345.766 444.241 348.85 443.697 351.628 443.682C355.421 443.665 356.9 444.505 357.568 447.057ZM181.242 447.637C185.05 449.608 186.273 451.893 188.596 461.379C190.129 467.635 194.47 478.914 198.244 486.44C202.019 493.966 204.463 500.124 203.678 500.124C201.474 500.124 188.449 485.982 181.937 476.52C176.943 469.261 175.976 466.377 175.281 456.65C174.833 450.392 174.963 445.272 175.57 445.272C176.177 445.272 178.729 446.336 181.242 447.637ZM337.669 469.471C335.097 481.335 329.2 493.567 323.35 499.177L318.567 503.764L324.981 490.886C329.382 482.053 332.179 473.5 333.888 463.657C335.258 455.763 336.841 448.216 337.403 446.885C339.365 442.256 339.581 460.654 337.669 469.471ZM166.849 460.598C169.275 472.523 174.852 487.664 182.301 502.544C185.411 508.755 186.75 512.385 185.279 510.61C177.647 501.411 161.905 460.007 162.053 449.527C162.134 443.874 164.61 449.589 166.849 460.598ZM332.042 456.161C329.531 474.822 321.495 494.211 311.931 504.691C306.402 510.749 304.572 511.062 303.263 506.174C299.772 493.132 304.164 472.964 312.746 462.64C317.188 457.296 328.92 448.498 331.605 448.498C332.426 448.498 332.619 451.873 332.042 456.161ZM373.781 449.452C375.933 450.278 375.738 451.796 372.309 460.913C368.128 472.028 360.16 487.635 359.17 486.646C358.848 486.322 360.869 480.343 363.664 473.358C366.46 466.372 369.113 457.922 369.561 454.577C370.009 451.234 370.583 448.498 370.838 448.498C371.091 448.498 372.416 448.927 373.781 449.452ZM381.943 454.792C383.319 457.021 376.773 476.85 369.906 491.251C362.491 506.801 352.753 522.152 343.052 533.584L335.877 542.037L330.749 539.432C320.358 534.152 320.208 534.6 338.208 517.189C347.453 508.247 357.721 496.634 361.026 491.381C367.046 481.814 378.011 458.389 378.011 455.093C378.011 452.972 380.692 452.765 381.943 454.792ZM128.153 460.667C128.153 473.014 140.949 521.156 147.805 534.608L151.022 540.919L145.743 539.863C142.84 539.282 137.259 536.927 133.342 534.629C127.756 531.354 125.343 528.486 122.153 521.339C115.784 507.063 110.418 490.352 110.457 484.919C110.499 479.061 115.396 467.676 121.084 460.211C125.514 454.398 128.153 454.569 128.153 460.667ZM203.924 471.462C207.218 479.124 210.271 496.897 208.295 496.897C207.413 496.897 195.798 467.935 193.413 459.791L192.233 455.758L196.332 459.546C198.587 461.63 202.005 466.993 203.924 471.462ZM132.444 465.035C131.998 466.145 131.632 465.236 131.632 463.018C131.632 460.8 131.998 459.893 132.444 461.001C132.892 462.111 132.892 463.926 132.444 465.035ZM395.443 471.789C399.097 478.756 399.731 481.977 399.75 493.671C399.77 505.44 399.134 508.682 395.275 516.551C387.265 532.874 373.148 542.134 354.637 543.207L343.353 543.86L349.113 538.529C359.128 529.259 368.969 515.834 374.311 504.157C379.895 491.949 384.459 476.26 384.459 469.265C384.459 457.313 388.313 458.199 395.443 471.789ZM92.009 514.553C117.387 567.581 165.882 604.585 224.429 615.596C245.199 619.503 279.872 618.105 301.179 612.5C319.283 607.739 345.173 595.764 359.723 585.422C394.634 560.608 420.908 522.949 431.966 481.874C433.957 474.479 434.231 486.587 434.324 585.798C434.448 717.312 433.201 740.866 424.456 771.965C416.164 801.458 391.605 833.037 366.516 846.468C361.894 848.941 357.381 853.676 351.877 861.823L343.922 873.603L345.138 866.344C347.76 850.682 348.067 851.156 334.487 849.89C307.072 847.331 265.522 833.185 254.894 822.794L248.646 816.685L250.612 808.479C252.162 802.015 253.699 799.582 257.857 797.009C264.716 792.767 269.041 792.879 272.023 797.375C274.168 800.611 276.008 801.065 288.97 801.561L303.51 802.12L309.729 796.539C327.669 780.443 346.355 780.63 355 796.993C359.235 805.004 359.642 811.378 356.331 817.785C353.623 823.026 344.604 831.317 337.755 834.862C333.37 837.132 332.518 837.065 326.663 834.011C319.834 830.449 313.609 830.904 310.024 835.228C308.333 837.265 308.771 838.343 312.656 841.688C316.303 844.827 318.495 845.511 322.713 844.825C334.818 842.859 354.41 829.357 359.528 819.453C366.492 805.974 356.986 785.33 342.09 781.589L337.798 780.511L340.576 775.431C342.804 771.359 343.352 766.196 343.347 749.379C343.34 725.696 342.317 722.529 331.015 711.218C318.584 698.776 298.771 693.87 273.599 697.002C258.234 698.912 250.338 701.743 226.072 714.041C216.535 718.873 202.027 725.157 193.832 728.003C180.08 732.778 177.377 733.172 158.781 733.112C142.064 733.057 136.982 732.436 128.959 729.469C108.59 721.937 93.0229 707.458 86.4799 689.955C78.0605 667.435 77.7881 663.771 77.1691 564.656L76.5887 471.891L80.6526 485.604C82.8884 493.146 87.9984 506.174 92.009 514.553ZM203.987 512.712L202.161 516.723L197.48 512.235C193.748 508.657 181.349 487.963 181.349 485.314C181.349 484.969 186.854 490.091 193.58 496.694C204.996 507.898 205.691 508.97 203.987 512.712ZM374.526 495.57C368.868 508.789 364.335 516.288 356.335 525.666C352.298 530.396 348.995 533.89 348.995 533.432C348.995 532.972 353.03 526.564 357.961 519.192C362.892 511.819 369.221 500.829 372.026 494.769C377.911 482.056 380.021 482.731 374.526 495.57ZM339.593 494.074C334.154 501.97 319.341 516.384 313.49 519.477C310.628 520.989 311.715 519.122 317.334 512.871C324.44 504.965 342.663 487.351 343.834 487.256C344.098 487.235 342.189 490.304 339.593 494.074ZM242.735 496.165C231.741 499.209 225.18 503.252 217.593 511.657C207.811 522.494 204.718 531.032 204.821 546.91C204.893 557.991 205.657 562.17 208.807 568.689C223.829 599.776 264.077 608.267 289.643 585.745C293.532 582.318 298.866 575.628 301.496 570.875C305.855 562.999 306.278 560.883 306.278 546.91C306.278 534.152 305.652 530.314 302.549 524.009C291.615 501.792 265.804 489.776 242.735 496.165ZM276.456 501.405C280.445 503.402 285.886 506.845 288.546 509.055C294.455 513.968 292.755 515.599 280.073 517.185C264.7 519.108 228.826 514.395 224.284 509.859C222.622 508.197 233.509 501.001 241.216 498.669C250.327 495.91 268.26 497.302 276.456 501.405ZM312.742 513.014C310.203 515.666 307.709 517.42 307.201 516.909C306.273 515.978 314.438 508.19 316.341 508.19C316.901 508.19 315.281 510.36 312.742 513.014ZM157.588 541.973C156.3 543.819 152.104 536.888 147.608 525.491C140.706 507.989 141.466 508.11 150.402 525.937C154.628 534.366 157.862 541.583 157.588 541.973ZM198.924 520.179C198.5 520.603 197.193 519.35 196.018 517.394C193.979 513.995 194.014 513.961 196.79 516.622C198.387 518.154 199.348 519.755 198.924 520.179ZM236.503 529.88C240.352 531.351 247.108 533.213 251.515 534.016C259.019 535.383 258.753 535.446 247.329 535C237.57 534.621 232.81 533.456 223.552 529.186C217.185 526.248 211.976 523.58 211.976 523.255C211.976 522.931 212.818 521.318 213.846 519.669C215.613 516.839 216.1 516.965 222.611 521.939C226.402 524.835 232.653 528.408 236.503 529.88ZM332.074 517.862C331.529 518.745 329.492 520.245 327.546 521.197C324.5 522.688 324.567 522.47 328.039 519.627C332.553 515.933 333.53 515.505 332.074 517.862ZM267.59 520.29C276.456 520.29 286.958 519.654 290.927 518.877C297.602 517.568 297.974 517.669 295.88 520.193C291.841 525.064 284.872 527.55 275.327 527.526C265.159 527.5 249.926 524.357 240.992 520.443L235.35 517.972L243.41 519.13C247.843 519.769 258.724 520.29 267.59 520.29ZM194.451 522.307C196.454 524.865 196.398 524.922 193.841 522.917C191.156 520.808 190.303 519.484 191.63 519.484C191.964 519.484 193.234 520.755 194.451 522.307ZM299.024 523.32C299.024 523.654 297.753 524.925 296.203 526.143C293.646 528.148 293.59 528.092 295.593 525.533C297.7 522.846 299.024 521.992 299.024 523.32ZM218.632 533.087C223.502 535.294 234.697 538.109 244.216 539.522C273.74 543.904 276.309 544.898 258.659 545.111C249.441 545.222 239.482 544.306 233.795 542.823C223.805 540.219 208.752 532.824 208.752 530.52C208.752 528.639 208.907 528.679 218.632 533.087ZM291.77 538.082C288.223 539.251 282.42 540.223 278.874 540.242L272.426 540.274L278.068 538.138C281.171 536.964 286.974 535.991 290.964 535.978L298.218 535.955L291.77 538.082ZM305.077 540.86C304.712 541.97 300.118 545.054 294.868 547.716C285.672 552.379 284.554 552.553 264.366 552.45C248.557 552.371 241.826 551.679 236.962 549.633L230.514 546.921L237.768 547.973C241.758 548.552 251.551 549.007 259.53 548.986C271.517 548.954 276.419 548.099 287.74 544.067C303.329 538.516 306.012 538.019 305.077 540.86ZM237.563 555.702C244.326 557.949 253.303 560.257 257.515 560.828C261.727 561.4 265.172 562.423 265.172 563.101C265.172 564.445 246.141 568.964 234.544 570.374C228.353 571.125 225.875 570.453 217.618 565.78C208.567 560.658 207.858 559.826 206.563 552.805C204.321 540.639 205.583 539.753 216.126 546.108C221.153 549.138 230.801 553.455 237.563 555.702ZM305.447 550.54C305.401 557.262 303.25 558.471 289.969 559.237C282.981 559.64 274.723 559.442 271.62 558.798C266.428 557.717 266.823 557.532 276.583 556.46C282.514 555.809 290.683 553.545 295.121 551.324C305.281 546.237 305.476 546.222 305.447 550.54ZM302.248 563.922C302.248 567.973 295.081 573.955 287.522 576.215C278.48 578.918 252.044 578.54 242.604 575.575L235.35 573.295L242.686 572.151C246.721 571.522 254.7 569.464 260.418 567.574C266.136 565.687 277.342 563.659 285.322 563.068C293.301 562.478 300.373 561.868 301.039 561.712C301.704 561.557 302.248 562.551 302.248 563.922ZM218.29 570.52C218.66 570.845 217.467 571.109 215.642 571.109C213.816 571.109 211.897 570.004 211.378 568.652C210.587 566.587 211.009 566.494 214.028 568.063C216.003 569.093 217.921 570.198 218.29 570.52ZM237.768 577.701C251.689 582.118 274.588 583.361 285.825 580.308L294.388 577.983L289.911 582.659C277.662 595.456 253.719 599.842 237.051 592.345C227.596 588.092 219.125 581.888 216.777 577.496C215.236 574.615 215.626 574.337 221.189 574.357C224.545 574.368 232.005 575.873 237.768 577.701ZM454.948 691.658C457.809 692.015 462.887 692.02 466.232 691.671C469.575 691.321 467.235 691.031 461.028 691.023C454.822 691.016 452.085 691.302 454.948 691.658ZM479.931 694.654C481.462 696.253 483.061 697.215 483.485 696.79C483.909 696.366 482.656 695.058 480.703 693.882C477.306 691.841 477.272 691.876 479.931 694.654ZM496.089 696.445C497.64 696.852 500.18 696.852 501.731 696.445C503.282 696.04 502.013 695.708 498.91 695.708C495.807 695.708 494.538 696.04 496.089 696.445ZM456.595 699.699C458.591 700.083 461.854 700.083 463.849 699.699C465.845 699.314 464.212 698.999 460.222 698.999C456.233 698.999 454.6 699.314 456.595 699.699ZM473.118 701.692C473.118 702.527 473.836 703.653 474.713 704.195C475.625 704.76 475.896 704.113 475.346 702.677C474.274 699.883 473.118 699.372 473.118 701.692ZM449.664 703.244C448.822 704.045 446.682 705.049 444.909 705.476C442.383 706.085 442.607 706.293 445.945 706.439C448.382 706.546 450.602 705.591 451.134 704.207C452.2 701.425 451.83 701.183 449.664 703.244ZM483.216 704.558C485.666 704.928 489.293 704.918 491.276 704.536C493.258 704.153 491.253 703.85 486.82 703.861C482.387 703.874 480.766 704.187 483.216 704.558ZM458.61 705.631C458.61 705.972 460.063 706.63 461.836 707.094C463.611 707.559 464.657 707.28 464.159 706.477C463.292 705.071 458.61 704.358 458.61 705.631ZM498.507 707.695C499.616 708.143 501.43 708.143 502.537 707.695C503.646 707.248 502.739 706.882 500.522 706.882C498.306 706.882 497.4 707.248 498.507 707.695ZM444.536 709.358C446.105 709.768 448.281 709.74 449.372 709.298C450.463 708.856 449.18 708.522 446.521 708.555C443.861 708.587 442.968 708.948 444.536 709.358ZM482.36 724.573C483.454 725.677 484.755 726.172 485.25 725.675C485.747 725.178 484.852 724.276 483.263 723.67C480.965 722.795 480.78 722.979 482.36 724.573ZM491.253 723.915C493.69 724.284 497.682 724.284 500.119 723.915C502.556 723.545 500.562 723.244 495.686 723.244C490.81 723.244 488.816 723.545 491.253 723.915ZM493.268 729.176C497.701 729.837 502.234 729.907 503.341 729.329C504.45 728.751 500.824 728.209 495.281 728.125L485.208 727.972L493.268 729.176ZM478.886 737.471C479.84 739.035 506.812 738.841 507.786 737.265C508.263 736.49 501.82 735.995 493.465 736.165C485.111 736.334 478.551 736.921 478.886 737.471ZM486.82 743.807C498.422 745.615 505.358 745.588 505.358 743.733C505.358 742.769 499.993 742.206 492.059 742.335C479.531 742.537 479.226 742.623 486.82 743.807ZM450.249 746.448C451.411 746.914 452.802 746.856 453.338 746.32C453.873 745.785 452.922 745.404 451.223 745.473C449.345 745.551 448.963 745.933 450.249 746.448ZM489.238 751.799C484.763 752.741 485.929 752.998 494.88 753.04C502.751 753.075 504.945 752.699 502.134 751.799C497.335 750.26 496.54 750.26 489.238 751.799ZM439.4 752.388C439.771 752.711 444.062 753.454 448.938 754.038C455.117 754.779 457.071 754.608 455.386 753.475C453.217 752.015 437.777 750.965 439.4 752.388ZM489.238 761.479L481.984 762.608L488.432 762.757C491.979 762.839 497.782 762.305 501.328 761.571L507.776 760.237L502.134 760.293C499.031 760.325 493.228 760.858 489.238 761.479ZM462.64 764.706C465.3 765.383 469.29 765.972 471.506 766.014C475.162 766.085 475.238 765.964 472.312 764.706C470.539 763.942 466.549 763.354 463.446 763.397L457.804 763.475L462.64 764.706ZM451.759 765.773C452.868 766.222 454.682 766.222 455.789 765.773C456.898 765.327 455.991 764.96 453.774 764.96C451.558 764.96 450.652 765.327 451.759 765.773ZM489.238 769.731C482.589 770.426 473.159 771.596 468.282 772.328C460.387 773.516 459.945 773.774 464.252 774.684C467.078 775.281 471.347 774.761 474.524 773.432C477.814 772.056 485.608 771.159 494.271 771.159C502.737 771.159 508.582 770.501 508.582 769.545C508.582 767.806 507.542 767.816 489.238 769.731ZM449.372 775.503C450.941 775.913 453.117 775.886 454.208 775.444C455.299 775.002 454.016 774.668 451.356 774.7C448.697 774.732 447.804 775.094 449.372 775.503ZM161.199 787.348C149.563 789.794 135.853 800.382 132.96 809.157C130.84 815.587 131.882 821.749 137.088 833.561C142.741 846.389 147.402 848.012 176.037 847.124C185.008 846.847 186.463 846.311 190.142 841.936C193.505 837.937 194.235 835.407 194.186 827.903C194.127 818.416 191.077 803.107 188.159 797.651C183.729 789.367 172.328 785.011 161.199 787.348ZM182.253 793.837C184.249 795.713 186.272 798.741 186.747 800.564C187.473 803.341 186.778 803.078 182.466 798.946C179.635 796.233 173.692 792.85 169.259 791.431L161.199 788.85L169.912 789.638C175.76 790.167 179.817 791.548 182.253 793.837ZM156.848 801.879C153.568 803.612 150.145 806.303 149.239 807.858C148.335 809.412 147.595 809.959 147.597 809.071C147.603 805.114 155.568 798.661 160.393 798.706C161.723 798.717 160.127 800.145 156.848 801.879ZM140.166 805.188C138.747 807.932 137.18 809.77 136.682 809.271C135.755 808.344 140.47 800.198 141.934 800.198C142.379 800.198 141.584 802.444 140.166 805.188ZM173.132 808.96C172.708 809.384 171.401 808.131 170.226 806.176C168.187 802.776 168.222 802.742 170.998 805.403C172.595 806.935 173.556 808.536 173.132 808.96ZM180.37 805.977C180.909 807.381 181.274 810.828 181.184 813.64L181.018 818.751L179.77 813.911C179.085 811.249 177.994 807.8 177.346 806.248C176.682 804.656 176.87 803.425 177.78 803.425C178.666 803.425 179.832 804.573 180.37 805.977ZM167.447 806.329C167.885 807.039 165.762 807.619 162.73 807.619C159.445 807.619 158.022 807.108 159.208 806.353C161.805 804.703 166.434 804.688 167.447 806.329ZM152.889 815.594C152.363 816.964 151.588 817.738 151.166 817.315C150.743 816.893 150.876 815.771 151.461 814.826C153.05 812.251 153.979 812.751 152.889 815.594ZM192.263 827.678C191.735 833.177 190.279 837.08 187.747 839.777C181.652 846.271 181.189 844.383 186.252 833.674C188.873 828.129 191.019 822.684 191.019 821.574C191.02 820.466 191.475 819.558 192.031 819.558C192.587 819.558 192.692 823.212 192.263 827.678ZM180.456 833.177C178.969 835.447 176.712 837.304 175.439 837.304C173.787 837.304 174.299 835.762 177.236 831.909C179.498 828.941 181.457 825.13 181.59 823.439C181.729 821.666 182.113 822.205 182.495 824.708C182.861 827.108 181.948 830.898 180.456 833.177ZM432.819 825.511C432.819 826.398 434.126 828.308 435.725 829.755C439.167 832.872 452.193 832.087 462.64 828.131C467.812 826.174 473.039 825.916 489.038 826.832C503.48 827.658 508.682 827.479 507.884 826.185C506.124 823.335 468.379 823.848 461.277 826.818C453.378 830.122 439.541 829.986 435.767 826.568C434.145 825.099 432.819 824.624 432.819 825.511ZM150.653 830.756C152.51 833.364 155.515 835.972 157.332 836.549C159.15 837.127 160.336 837.899 159.97 838.266C158.117 840.119 148.725 834.789 146.601 830.677C143.459 824.595 146.309 824.651 150.653 830.756ZM325.489 836.67C329.047 838.037 328.668 839.99 324.643 841.044C320.648 842.089 313.532 839.719 313.532 837.345C313.532 835.542 321.398 835.099 325.489 836.67ZM151.527 841.291C156.646 843.136 157.145 843.62 153.945 843.635C151.728 843.646 148.506 842.589 146.786 841.286C142.928 838.366 143.415 838.366 151.527 841.291ZM411.864 841.683C414.79 843.732 419.778 844.553 431.165 844.856C441.386 845.127 445.173 844.796 442.491 843.865C440.274 843.096 433.244 842.394 426.869 842.305C420.493 842.217 414.829 841.418 414.281 840.531C413.733 839.643 412.077 838.917 410.602 838.917C408.594 838.917 408.91 839.61 411.864 841.683ZM451.452 841.389C449.73 842.691 449.042 843.757 449.92 843.757C450.799 843.757 452.224 843.051 453.088 842.186C453.952 841.321 466.609 840.395 481.217 840.126L507.776 839.639L481.178 839.329C459.929 839.082 453.952 839.497 451.452 841.389ZM175.304 843.212C174.196 843.661 172.383 843.661 171.274 843.212C170.166 842.765 171.072 842.399 173.289 842.399C175.505 842.399 176.413 842.765 175.304 843.212Z" fill="#F35503"/>
</svg>
