<svg width="390" height="85" viewBox="0 0 390 85" fill="none" xmlns="http://www.w3.org/2000/svg">
<mask id="mask0_396_544" style="mask-type:alpha" maskUnits="userSpaceOnUse" x="197" y="0" width="193" height="85">
<path d="M202.72 22.263C197.982 29.5098 197.68 43.2788 197.68 44.8317V85H389.811V74.8544C390.113 70.6788 390.274 60.3607 388.5 52.4927C386.283 42.6577 378.319 39.2413 370.154 37.999C363.622 37.0051 354.798 40.8977 351.203 42.9683C345.894 45.8325 333.603 50.8156 326.91 47.834C318.543 44.1071 316.426 35.5144 320.256 29.4063C324.087 23.2982 334.369 25.0582 335.276 30.6486C336.183 36.239 330.135 37.3778 328.119 35.5144C326.103 33.6509 330.942 31.2698 326.91 30.6486C323.684 30.1517 323.415 34.9277 323.684 37.3778C324.692 39.2758 328.018 42.8854 333.26 42.1401C339.812 41.2083 347.776 33.1333 341.627 25.0582C335.478 16.9831 328.623 16.7761 321.769 17.8113C314.914 18.8466 304.934 27.3358 299.39 34.3756C293.846 41.4154 283.766 45.867 276.81 44.0035C269.855 42.1401 268.04 35.5144 270.56 31.8909C273.081 28.2675 276.81 27.5428 278.625 30.2345C280.439 32.9262 276.105 31.2698 276.81 34.5826C277.516 37.8955 280.439 36.3426 281.145 36.3426C281.85 36.3426 289.007 29.5098 281.145 25.0582C274.855 21.4969 267.1 26.128 264.008 28.8887C260.984 31.5459 252.436 38.4131 242.436 44.6247C232.437 50.8363 225.3 45.4874 222.981 42.0365C219.514 33.506 222.545 28.0605 224.493 26.404C225.837 26.404 228.808 25.845 229.937 23.6088C231.066 21.3727 235.918 21.8489 238.203 22.3665C238.102 22.7461 238.384 23.6502 240.319 24.23C242.255 24.8097 244.284 22.5391 245.057 21.3312L246.166 17.3972L244.15 14.9126C244.284 14.6365 242.638 13.4011 234.977 10.668C227.316 7.93492 222.511 7.73477 221.066 7.97633C221.637 5.59522 222.639 0.833008 222.074 0.833008C221.51 0.833008 218.277 5.59522 216.732 7.97633C211.792 10.3574 207.458 15.0161 202.72 22.263Z" fill="#D9D9D9"/>
</mask>
<g mask="url(#mask0_396_544)">
<rect x="197.377" y="-89.8557" width="192.736" height="174.96" fill="#13171A"/>
</g>
<mask id="mask1_396_544" style="mask-type:alpha" maskUnits="userSpaceOnUse" x="0" y="0" width="193" height="85">
<path d="M187.28 22.263C192.018 29.5098 192.32 43.2788 192.32 44.8317V85H0.189301V74.8544C-0.113113 70.6788 -0.274399 60.3607 1.49974 52.4927C3.71741 42.6577 11.6809 39.2413 19.8459 37.999C26.378 37.0051 35.2016 40.8977 38.797 42.9683C44.1059 45.8325 56.3972 50.8156 63.0905 47.834C71.4572 44.1071 73.5741 35.5144 69.7436 29.4063C65.913 23.2982 55.6311 25.0582 54.7239 30.6486C53.8166 36.239 59.8648 37.3778 61.8809 35.5144C63.897 33.6509 59.0584 31.2698 63.0905 30.6486C66.3162 30.1517 66.585 34.9277 66.3162 37.3778C65.3082 39.2758 61.9817 42.8854 56.7399 42.1401C50.1877 41.2083 42.2243 33.1333 48.3733 25.0582C54.5223 16.9831 61.3769 16.7761 68.2315 17.8113C75.0861 18.8466 85.0657 27.3358 90.6098 34.3756C96.154 41.4154 106.234 45.867 113.19 44.0035C120.145 42.1401 121.96 35.5144 119.44 31.8909C116.919 28.2675 113.19 27.5428 111.375 30.2345C109.561 32.9262 113.895 31.2698 113.19 34.5826C112.484 37.8955 109.561 36.3426 108.855 36.3426C108.15 36.3426 100.993 29.5098 108.855 25.0582C115.145 21.4969 122.9 26.128 125.992 28.8887C129.016 31.5459 137.564 38.4131 147.564 44.6247C157.563 50.8363 164.7 45.4874 167.019 42.0365C170.486 33.506 167.456 28.0605 165.507 26.404C164.163 26.404 161.192 25.845 160.063 23.6088C158.934 21.3727 154.082 21.8489 151.797 22.3665C151.898 22.7461 151.616 23.6502 149.681 24.23C147.745 24.8097 145.716 22.5391 144.943 21.3312L143.834 17.3972L145.85 14.9126C145.716 14.6365 147.362 13.4011 155.023 10.668C162.684 7.93492 167.489 7.73477 168.934 7.97633C168.363 5.59522 167.361 0.833008 167.926 0.833008C168.49 0.833008 171.723 5.59522 173.269 7.97633C178.208 10.3574 182.542 15.0161 187.28 22.263Z" fill="#D9D9D9"/>
</mask>
<g mask="url(#mask1_396_544)">
<rect width="192.736" height="174.96" transform="matrix(-1 0 0 1 192.623 -89.8557)" fill="#13171A"/>
</g>
</svg>
