<svg width="65" height="65" viewBox="0 0 65 65" fill="none" xmlns="http://www.w3.org/2000/svg">
<circle cx="32.5" cy="32.5" r="32.5" fill="white"/>
<path d="M20.9393 31.9393C20.3536 32.5251 20.3536 33.4749 20.9393 34.0607L30.4853 43.6066C31.0711 44.1924 32.0208 44.1924 32.6066 43.6066C33.1924 43.0208 33.1924 42.0711 32.6066 41.4853L24.1213 33L32.6066 24.5147C33.1924 23.9289 33.1924 22.9792 32.6066 22.3934C32.0208 21.8076 31.0711 21.8076 30.4853 22.3934L20.9393 31.9393ZM43 34.5C43.8284 34.5 44.5 33.8284 44.5 33C44.5 32.1716 43.8284 31.5 43 31.5V34.5ZM22 34.5H43V31.5H22V34.5Z" fill="black"/>
</svg>
