<svg width="110" height="22" viewBox="0 0 110 22" fill="none" xmlns="http://www.w3.org/2000/svg">
<path d="M10.9208 21.18C10.7475 21.18 10.6008 21.12 10.4808 21C10.3741 20.8933 10.3208 20.7533 10.3208 20.58V14.34C9.89414 15.0333 9.29414 15.5867 8.52081 16C7.76081 16.4133 6.90081 16.62 5.94081 16.62C4.87414 16.62 3.91414 16.38 3.06081 15.9C2.22081 15.4067 1.55414 14.74 1.06081 13.9C0.580808 13.0467 0.340808 12.0933 0.340808 11.04C0.340808 9.97333 0.580808 9.02 1.06081 8.18C1.55414 7.32667 2.22081 6.66 3.06081 6.18C3.91414 5.68667 4.87414 5.44 5.94081 5.44C6.99414 5.44 7.93414 5.68 8.76081 6.16C9.60081 6.64 10.2675 7.29333 10.7608 8.12C11.2541 8.93333 11.5075 9.86667 11.5208 10.92V20.58C11.5208 20.7533 11.4675 20.8933 11.3608 21C11.2541 21.12 11.1075 21.18 10.9208 21.18ZM5.94081 15.5C6.78081 15.5 7.52748 15.3067 8.18081 14.92C8.84748 14.52 9.36748 13.9867 9.74081 13.32C10.1275 12.64 10.3208 11.88 10.3208 11.04C10.3208 10.1867 10.1275 9.42667 9.74081 8.76C9.36748 8.08 8.84748 7.54667 8.18081 7.16C7.52748 6.76 6.78081 6.56 5.94081 6.56C5.11414 6.56 4.36748 6.76 3.70081 7.16C3.03414 7.54667 2.50747 8.08 2.12081 8.76C1.73414 9.42667 1.54081 10.1867 1.54081 11.04C1.54081 11.88 1.73414 12.64 2.12081 13.32C2.50747 13.9867 3.03414 14.52 3.70081 14.92C4.36748 15.3067 5.11414 15.5 5.94081 15.5ZM20.1205 16.62C19.0538 16.62 18.0938 16.38 17.2405 15.9C16.4005 15.4067 15.7338 14.74 15.2405 13.9C14.7605 13.0467 14.5205 12.0933 14.5205 11.04C14.5205 9.97333 14.7605 9.02 15.2405 8.18C15.7338 7.32667 16.4005 6.66 17.2405 6.18C18.0938 5.68667 19.0538 5.44 20.1205 5.44C21.1872 5.44 22.1405 5.68667 22.9805 6.18C23.8205 6.66 24.4805 7.32667 24.9605 8.18C25.4538 9.02 25.7005 9.97333 25.7005 11.04L25.2005 11.84C25.2005 12.7467 24.9738 13.56 24.5205 14.28C24.0805 15 23.4805 15.5733 22.7205 16C21.9605 16.4133 21.0938 16.62 20.1205 16.62ZM20.1205 15.5C20.9605 15.5 21.7072 15.3067 22.3605 14.92C23.0272 14.52 23.5472 13.9867 23.9205 13.32C24.3072 12.64 24.5005 11.88 24.5005 11.04C24.5005 10.1867 24.3072 9.42667 23.9205 8.76C23.5472 8.08 23.0272 7.54667 22.3605 7.16C21.7072 6.76 20.9605 6.56 20.1205 6.56C19.2938 6.56 18.5472 6.76 17.8805 7.16C17.2138 7.54667 16.6872 8.08 16.3005 8.76C15.9138 9.42667 15.7205 10.1867 15.7205 11.04C15.7205 11.88 15.9138 12.64 16.3005 13.32C16.6872 13.9867 17.2138 14.52 17.8805 14.92C18.5472 15.3067 19.2938 15.5 20.1205 15.5ZM25.1005 16.5C24.9272 16.5 24.7805 16.4467 24.6605 16.34C24.5538 16.22 24.5005 16.0733 24.5005 15.9V12.24L24.8805 11.04H25.7005V15.9C25.7005 16.0733 25.6472 16.22 25.5405 16.34C25.4338 16.4467 25.2872 16.5 25.1005 16.5ZM29.0947 9.82C29.1747 8.96667 29.408 8.21333 29.7947 7.56C30.1814 6.89333 30.6814 6.37333 31.2947 6C31.908 5.62667 32.588 5.44 33.3347 5.44C33.8414 5.44 34.2347 5.5 34.5147 5.62C34.7947 5.74 34.9014 5.95333 34.8347 6.26C34.7947 6.46 34.7014 6.58 34.5547 6.62C34.408 6.66 34.228 6.66667 34.0147 6.64C33.8147 6.6 33.588 6.58 33.3347 6.58C32.668 6.58 32.0747 6.72 31.5547 7C31.0347 7.28 30.628 7.66667 30.3347 8.16C30.0414 8.64 29.8947 9.19333 29.8947 9.82H29.0947ZM29.2947 16.5C29.1214 16.5 28.9747 16.4467 28.8547 16.34C28.748 16.22 28.6947 16.0733 28.6947 15.9V6.16C28.6947 5.97333 28.748 5.82667 28.8547 5.72C28.9747 5.61333 29.1214 5.56 29.2947 5.56C29.4814 5.56 29.628 5.61333 29.7347 5.72C29.8414 5.82667 29.8947 5.97333 29.8947 6.16V15.9C29.8947 16.0733 29.8414 16.22 29.7347 16.34C29.628 16.4467 29.4814 16.5 29.2947 16.5ZM41.6635 16.62C40.5968 16.62 39.6368 16.38 38.7835 15.9C37.9435 15.4067 37.2768 14.74 36.7835 13.9C36.3035 13.0467 36.0635 12.0933 36.0635 11.04C36.0635 9.97333 36.3035 9.02 36.7835 8.18C37.2768 7.32667 37.9435 6.66 38.7835 6.18C39.6368 5.68667 40.5968 5.44 41.6635 5.44C42.7301 5.44 43.6835 5.68667 44.5235 6.18C45.3635 6.66 46.0235 7.32667 46.5035 8.18C46.9968 9.02 47.2435 9.97333 47.2435 11.04L46.7435 11.84C46.7435 12.7467 46.5168 13.56 46.0635 14.28C45.6235 15 45.0235 15.5733 44.2635 16C43.5035 16.4133 42.6368 16.62 41.6635 16.62ZM41.6635 15.5C42.5035 15.5 43.2501 15.3067 43.9035 14.92C44.5701 14.52 45.0901 13.9867 45.4635 13.32C45.8501 12.64 46.0435 11.88 46.0435 11.04C46.0435 10.1867 45.8501 9.42667 45.4635 8.76C45.0901 8.08 44.5701 7.54667 43.9035 7.16C43.2501 6.76 42.5035 6.56 41.6635 6.56C40.8368 6.56 40.0901 6.76 39.4235 7.16C38.7568 7.54667 38.2301 8.08 37.8435 8.76C37.4568 9.42667 37.2635 10.1867 37.2635 11.04C37.2635 11.88 37.4568 12.64 37.8435 13.32C38.2301 13.9867 38.7568 14.52 39.4235 14.92C40.0901 15.3067 40.8368 15.5 41.6635 15.5ZM46.6435 16.5C46.4701 16.5 46.3235 16.4467 46.2035 16.34C46.0968 16.22 46.0435 16.0733 46.0435 15.9V12.24L46.4235 11.04H47.2435V15.9C47.2435 16.0733 47.1901 16.22 47.0835 16.34C46.9768 16.4467 46.8301 16.5 46.6435 16.5ZM53.9577 16.62C53.2644 16.62 52.5377 16.4933 51.7777 16.24C51.0177 15.9867 50.3843 15.56 49.8777 14.96C49.771 14.8267 49.7243 14.6867 49.7377 14.54C49.7643 14.38 49.851 14.2467 49.9977 14.14C50.131 14.0467 50.271 14.0133 50.4177 14.04C50.5777 14.0667 50.7043 14.14 50.7977 14.26C51.1843 14.7133 51.651 15.0333 52.1977 15.22C52.7577 15.3933 53.3643 15.48 54.0177 15.48C55.1377 15.48 55.931 15.28 56.3977 14.88C56.8644 14.48 57.0977 14.0133 57.0977 13.48C57.0977 12.96 56.8444 12.5333 56.3377 12.2C55.8443 11.8533 55.0777 11.6067 54.0377 11.46C52.7043 11.2733 51.7177 10.9133 51.0777 10.38C50.4377 9.84667 50.1177 9.22667 50.1177 8.52C50.1177 7.85333 50.2843 7.29333 50.6177 6.84C50.951 6.37333 51.4043 6.02667 51.9777 5.8C52.5643 5.56 53.231 5.44 53.9777 5.44C54.8844 5.44 55.651 5.60667 56.2777 5.94C56.9044 6.26 57.411 6.69333 57.7977 7.24C57.9044 7.37333 57.9377 7.52 57.8977 7.68C57.871 7.82667 57.771 7.94667 57.5977 8.04C57.4644 8.10667 57.3243 8.12667 57.1777 8.1C57.031 8.07333 56.9044 7.99333 56.7977 7.86C56.4643 7.43333 56.0577 7.11333 55.5777 6.9C55.111 6.67333 54.5644 6.56 53.9377 6.56C53.0977 6.56 52.4443 6.74 51.9777 7.1C51.511 7.46 51.2777 7.89333 51.2777 8.4C51.2777 8.74667 51.371 9.05333 51.5577 9.32C51.7577 9.57333 52.0777 9.79333 52.5177 9.98C52.9577 10.1533 53.5444 10.2933 54.2777 10.4C55.2777 10.5333 56.0644 10.76 56.6377 11.08C57.2244 11.4 57.6377 11.7733 57.8777 12.2C58.131 12.6133 58.2577 13.06 58.2577 13.54C58.2577 14.1667 58.0577 14.7133 57.6577 15.18C57.2577 15.6467 56.731 16.0067 56.0777 16.26C55.4244 16.5 54.7177 16.62 53.9577 16.62ZM61.5603 11.7C61.387 11.7 61.2403 11.6467 61.1203 11.54C61.0137 11.42 60.9603 11.2733 60.9603 11.1V1.48C60.9603 1.29333 61.0137 1.14667 61.1203 1.04C61.2403 0.933333 61.387 0.88 61.5603 0.88C61.747 0.88 61.8937 0.933333 62.0003 1.04C62.107 1.14667 62.1603 1.29333 62.1603 1.48V11.1C62.1603 11.2733 62.107 11.42 62.0003 11.54C61.8937 11.6467 61.747 11.7 61.5603 11.7ZM70.4203 16.5C70.247 16.5 70.1003 16.4467 69.9803 16.34C69.8737 16.22 69.8203 16.0733 69.8203 15.9V10.52C69.8203 9.64 69.647 8.91333 69.3003 8.34C68.967 7.76667 68.507 7.34 67.9203 7.06C67.347 6.76667 66.6937 6.62 65.9603 6.62C65.2403 6.62 64.5937 6.76 64.0203 7.04C63.447 7.30667 62.9937 7.68 62.6603 8.16C62.327 8.64 62.1603 9.18 62.1603 9.78H61.1603C61.2137 8.95333 61.4603 8.21333 61.9003 7.56C62.3403 6.89333 62.9137 6.37333 63.6203 6C64.327 5.61333 65.107 5.42 65.9603 5.42C66.9203 5.42 67.7803 5.62 68.5403 6.02C69.3137 6.40667 69.9203 6.98 70.3603 7.74C70.8003 8.48667 71.0203 9.41333 71.0203 10.52V15.9C71.0203 16.0733 70.9603 16.22 70.8403 16.34C70.7337 16.4467 70.5937 16.5 70.4203 16.5ZM61.5603 16.5C61.387 16.5 61.2403 16.4467 61.1203 16.34C61.0137 16.22 60.9603 16.0733 60.9603 15.9V6.16C60.9603 5.97333 61.0137 5.82667 61.1203 5.72C61.2403 5.61333 61.387 5.56 61.5603 5.56C61.747 5.56 61.8937 5.61333 62.0003 5.72C62.107 5.82667 62.1603 5.97333 62.1603 6.16V15.9C62.1603 16.0733 62.107 16.22 62.0003 16.34C61.8937 16.4467 61.747 16.5 61.5603 16.5ZM82.4767 16.5C81.9701 16.5 81.5167 16.36 81.1167 16.08C80.7301 15.8 80.4234 15.4133 80.1967 14.92C79.9834 14.4267 79.8767 13.8533 79.8767 13.2V1.48C79.8767 1.29333 79.9301 1.14667 80.0367 1.04C80.1567 0.933333 80.3034 0.88 80.4767 0.88C80.6634 0.88 80.8101 0.933333 80.9167 1.04C81.0234 1.14667 81.0767 1.29333 81.0767 1.48V13.2C81.0767 13.8133 81.2034 14.32 81.4567 14.72C81.7234 15.1067 82.0634 15.3 82.4767 15.3H82.9767C83.1234 15.3 83.2434 15.3533 83.3367 15.46C83.4301 15.5667 83.4767 15.7133 83.4767 15.9C83.4767 16.0733 83.4234 16.22 83.3167 16.34C83.2101 16.4467 83.0634 16.5 82.8767 16.5H82.4767ZM90.0619 16.62C88.9952 16.62 88.0352 16.38 87.1819 15.9C86.3419 15.4067 85.6752 14.74 85.1819 13.9C84.7019 13.0467 84.4619 12.0933 84.4619 11.04C84.4619 9.97333 84.7019 9.02 85.1819 8.18C85.6752 7.32667 86.3419 6.66 87.1819 6.18C88.0352 5.68667 88.9952 5.44 90.0619 5.44C91.1286 5.44 92.0819 5.68667 92.9219 6.18C93.7619 6.66 94.4219 7.32667 94.9019 8.18C95.3952 9.02 95.6419 9.97333 95.6419 11.04L95.1419 11.84C95.1419 12.7467 94.9152 13.56 94.4619 14.28C94.0219 15 93.4219 15.5733 92.6619 16C91.9019 16.4133 91.0352 16.62 90.0619 16.62ZM90.0619 15.5C90.9019 15.5 91.6486 15.3067 92.3019 14.92C92.9686 14.52 93.4886 13.9867 93.8619 13.32C94.2486 12.64 94.4419 11.88 94.4419 11.04C94.4419 10.1867 94.2486 9.42667 93.8619 8.76C93.4886 8.08 92.9686 7.54667 92.3019 7.16C91.6486 6.76 90.9019 6.56 90.0619 6.56C89.2352 6.56 88.4886 6.76 87.8219 7.16C87.1552 7.54667 86.6286 8.08 86.2419 8.76C85.8552 9.42667 85.6619 10.1867 85.6619 11.04C85.6619 11.88 85.8552 12.64 86.2419 13.32C86.6286 13.9867 87.1552 14.52 87.8219 14.92C88.4886 15.3067 89.2352 15.5 90.0619 15.5ZM95.0419 16.5C94.8686 16.5 94.7219 16.4467 94.6019 16.34C94.4952 16.22 94.4419 16.0733 94.4419 15.9V12.24L94.8219 11.04H95.6419V15.9C95.6419 16.0733 95.5886 16.22 95.4819 16.34C95.3752 16.4467 95.2286 16.5 95.0419 16.5ZM104.216 16.62C103.176 16.62 102.236 16.38 101.396 15.9C100.556 15.42 99.8895 14.7667 99.3961 13.94C98.9161 13.1133 98.6628 12.18 98.6361 11.14V1.48C98.6361 1.29333 98.6895 1.14667 98.7961 1.04C98.9161 0.933333 99.0628 0.88 99.2361 0.88C99.4228 0.88 99.5695 0.933333 99.6761 1.04C99.7828 1.14667 99.8361 1.29333 99.8361 1.48V7.72C100.263 7.02667 100.856 6.47333 101.616 6.06C102.389 5.64667 103.256 5.44 104.216 5.44C105.283 5.44 106.236 5.68667 107.076 6.18C107.929 6.66 108.596 7.32 109.076 8.16C109.569 9 109.816 9.95333 109.816 11.02C109.816 12.0867 109.569 13.0467 109.076 13.9C108.596 14.74 107.929 15.4067 107.076 15.9C106.236 16.38 105.283 16.62 104.216 16.62ZM104.216 15.5C105.056 15.5 105.803 15.3067 106.456 14.92C107.123 14.52 107.649 13.9867 108.036 13.32C108.423 12.64 108.616 11.8733 108.616 11.02C108.616 10.1667 108.423 9.40667 108.036 8.74C107.649 8.07333 107.123 7.54667 106.456 7.16C105.803 6.76 105.056 6.56 104.216 6.56C103.389 6.56 102.643 6.76 101.976 7.16C101.309 7.54667 100.783 8.07333 100.396 8.74C100.023 9.40667 99.8361 10.1667 99.8361 11.02C99.8361 11.8733 100.023 12.64 100.396 13.32C100.783 13.9867 101.309 14.52 101.976 14.92C102.643 15.3067 103.389 15.5 104.216 15.5Z" fill="white"/>
</svg>
