<svg width="65" height="65" viewBox="0 0 65 65" fill="none" xmlns="http://www.w3.org/2000/svg">
<circle cx="32.5" cy="32.5" r="32.5" transform="matrix(-1 0 0 1 65 0)" fill="white"/>
<path d="M44.0607 31.9393C44.6464 32.5251 44.6464 33.4749 44.0607 34.0607L34.5147 43.6066C33.9289 44.1924 32.9792 44.1924 32.3934 43.6066C31.8076 43.0208 31.8076 42.0711 32.3934 41.4853L40.8787 33L32.3934 24.5147C31.8076 23.9289 31.8076 22.9792 32.3934 22.3934C32.9792 21.8076 33.9289 21.8076 34.5147 22.3934L44.0607 31.9393ZM22 34.5C21.1716 34.5 20.5 33.8284 20.5 33C20.5 32.1716 21.1716 31.5 22 31.5V34.5ZM43 34.5H22V31.5H43V34.5Z" fill="black"/>
</svg>
